<?xml version="1.0" encoding="UTF-8" standalone="no"?>
<!DOCTYPE svg PUBLIC "-//W3C//DTD SVG 1.1//EN" "http://www.w3.org/Graphics/SVG/1.1/DTD/svg11.dtd">
<svg class="st22" color-interpolation-filters="sRGB" height="9.02778in" viewbox="0 0 900 650" width="12.5in" xml:space="preserve" xmlns="http://www.w3.org/2000/svg" xmlns:ev="http://www.w3.org/2001/xml-events" xmlns:v="http://schemas.microsoft.com/visio/2003/SVGExtensions/" xmlns:xlink="http://www.w3.org/1999/xlink">
<style type="text/css">
	
		.st1 {fill:none;stroke:#000000;stroke-width:1}
		.st2 {fill:#dbeef3;stroke:none;stroke-linecap:round;stroke-linejoin:round;stroke-width:0.75}
		.st3 {fill:none;stroke:none;stroke-linecap:round;stroke-linejoin:round;stroke-width:0.72}
		.st4 {fill:#000000;font-family:Arial;font-size:0.833336em}
		.st5 {fill:#ffffff;stroke:#000000;stroke-width:1}
		.st6 {fill:#000000;font-family:Arial;font-size:0.916672em}
		.st7 {marker-end:url(#mrkr4-22);stroke:#000000;stroke-width:1}
		.st8 {fill:#000000;fill-opacity:1;stroke:#000000;stroke-opacity:1;stroke-width:0.28409090909091}
		.st9 {stroke:#000000;stroke-width:1}
		.st10 {marker-start:url(#mrkr4-54);stroke:#000000;stroke-width:1}
		.st11 {marker-end:url(#mrkr4-22);marker-start:url(#mrkr4-54);stroke:#000000;stroke-width:1}
		.st12 {marker-end:url(#mrkr4-22);marker-start:url(#mrkr4-54);stroke:#000000;stroke-dasharray:7,5;stroke-width:1}
		.st13 {fill:#000000;stroke:none;stroke-linecap:round;stroke-linejoin:round;stroke-width:0.75}
		.st14 {stroke:#000000;stroke-linecap:round;stroke-linejoin:round;stroke-width:1}
		.st15 {fill:#0071b9;stroke:none;stroke-linecap:round;stroke-linejoin:round;stroke-width:0.24}
		.st16 {fill:#ffffff;font-family:Arial;font-size:0.916672em}
		.st17 {fill:#4ba3d3;stroke:none;stroke-linecap:round;stroke-linejoin:round;stroke-width:0.24}
		.st18 {fill:#ffffff;font-family:Arial;font-size:0.833336em}
		.st19 {font-size:1em}
		.st20 {fill:#ffffff;stroke:#000000;stroke-linecap:round;stroke-linejoin:round;stroke-width:1}
		.st21 {fill:#ffffff;stroke:#000000;stroke-dasharray:7,5;stroke-width:1}
		.st22 {fill:none;fill-rule:evenodd;font-size:12px;overflow:visible;stroke-linecap:square;stroke-miterlimit:3}
	
	</style>
<defs id="Markers">
<g id="lend4">
<path d="M 2 1 L 0 0 L 2 -1 L 2 1 " style="stroke:none"></path>
</g>
<marker class="st8" id="mrkr4-22" markerunits="strokeWidth" orient="auto" overflow="visible" refx="-7.04" v:arrowsize="2" v:arrowtype="4" v:setback="7.04">
<use transform="scale(-3.52,-3.52) " xlink:href="#lend4"></use>
</marker>
<marker class="st8" id="mrkr4-54" markerunits="strokeWidth" orient="auto" overflow="visible" refx="6.68" v:arrowsize="2" v:arrowtype="4" v:setback="6.68">
<use transform="scale(3.52) " xlink:href="#lend4"></use>
</marker>
</defs>
<g v:groupcontext="foregroundPage" v:index="1" v:mid="8">
<title>4:3 ratio</title>
<g id="shape145-1" transform="translate(40,-35.0018)" v:groupcontext="shape" v:mid="145">
<title> </title>
<rect class="st1" height="600" width="747" x="0" y="50"></rect>
</g>
<g display="none" id="shape1-3" transform="translate(2.55795E-13,2.68221E-05)" v:groupcontext="shape" v:layermember="3" v:mid="1">
<title>Sheet.1</title>
<rect class="st2" height="675" width="9" x="0" y="-25"></rect>
</g>
<g display="none" id="shape2-5" transform="translate(891,2.68221E-05)" v:groupcontext="shape" v:layermember="3" v:mid="2">
<title>Sheet.2</title>
<rect class="st2" height="675" width="9" x="0" y="-25"></rect>
</g>
<g display="none" id="shape3-7" transform="translate(250,-16) rotate(-90)" v:groupcontext="shape" v:layermember="3" v:mid="3">
<title>Sheet.3</title>
<rect class="st2" height="900" width="9" x="0" y="-250"></rect>
</g>
<g display="none" id="shape4-9" transform="translate(250,650) rotate(-90)" v:groupcontext="shape" v:layermember="3" v:mid="4">
<title>Sheet.4</title>
<rect class="st2" height="900" width="9" x="0" y="-250"></rect>
</g>
<g id="shape5-11" transform="translate(842.325,-4.9982)" v:groupcontext="shape" v:mid="5">
<title>EU203</title>
<desc>EU203</desc>
<rect class="st3" height="20.0036" width="48.2996" x="0" y="629.996"></rect>
<text class="st4" v:langid="1033" x="13.72" y="643">EU203</text> </g>
<g id="shape24-14" transform="translate(9,-141.752)" v:groupcontext="shape" v:mid="24">
<title>Ethernet PHY</title>
<desc>Ethernet PHY</desc>
<rect class="st5" height="60.125" width="81" x="0" y="589.875"></rect>
<text class="st6" v:langid="1033" x="6.87" y="623.24">Ethernet PHY</text> </g>
<g id="shape59-17" transform="translate(81,-585.002)" v:groupcontext="shape" v:mid="59">
<title>Sheet.59</title>
<path class="st7" d="M0 650 L11.34 650"></path>
</g>
<g id="shape60-23" transform="translate(175,-585.002)" v:groupcontext="shape" v:mid="60">
<title>Sheet.60</title>
<path class="st7" d="M0 650 L27.33 650"></path>
</g>
<g id="shape61-28" transform="translate(285,-585.002) rotate(1.96382E-05)" v:groupcontext="shape" v:mid="61">
<title>Sheet.61</title>
<path class="st7" d="M0 650 L27.33 650"></path>
</g>
<g id="shape62-33" transform="translate(395,-585.002)" v:groupcontext="shape" v:mid="62">
<title>Sheet.62</title>
<path class="st7" d="M0 650 L276.71 650"></path>
</g>
<g id="shape63-38" transform="translate(780,-585.002)" v:groupcontext="shape" v:mid="63">
<title>Sheet.63</title>
<path class="st9" d="M0 650 L35 650"></path>
</g>
<g id="shape64-41" transform="translate(1062.77,64.9981) rotate(90)" v:groupcontext="shape" v:mid="64">
<title>Sheet.64</title>
<path class="st9" d="M0 650 L390 650"></path>
</g>
<g id="shape65-44" transform="translate(413,844.998) rotate(180)" v:groupcontext="shape" v:mid="65">
<title>Sheet.65</title>
<path class="st7" d="M0 650 L35.46 650"></path>
</g>
<g id="shape66-49" transform="translate(450,859.998) rotate(180)" v:groupcontext="shape" v:mid="66">
<title>Sheet.66</title>
<path class="st10" d="M6.68 650 L7.04 650 L79.75 650"></path>
</g>
<g id="shape67-55" transform="translate(81.1111,-409.002)" v:groupcontext="shape" v:mid="67">
<title>Sheet.67</title>
<path class="st10" d="M6.68 650 L7.04 650 L331.89 650"></path>
</g>
<g id="shape69-60" transform="translate(80.9259,-390.002)" v:groupcontext="shape" v:mid="69">
<title>Sheet.69</title>
<path class="st11" d="M6.68 650 L7.04 650 L362.13 650"></path>
</g>
<g id="shape70-67" transform="translate(413,967.498) rotate(180)" v:groupcontext="shape" v:mid="70">
<title>Sheet.70</title>
<path class="st7" d="M0 650 L35.46 650"></path>
</g>
<g id="shape71-72" transform="translate(450,982.498) rotate(180)" v:groupcontext="shape" v:mid="71">
<title>Sheet.71</title>
<path class="st12" d="M6.68 650 L7.04 650 L72.21 650"></path>
</g>
<g id="shape72-79" transform="translate(90,-195.002)" v:groupcontext="shape" v:mid="72">
<title>Sheet.72</title>
<path class="st10" d="M6.68 650 L7.04 650 L467.27 650"></path>
</g>
<g id="shape73-84" transform="translate(90,-149.752)" v:groupcontext="shape" v:mid="73">
<title>Sheet.73</title>
<path class="st10" d="M6.68 650 L7.04 650 L335 650"></path>
</g>
<g id="shape74-89" transform="translate(450,1013.67) rotate(180)" v:groupcontext="shape" v:mid="74">
<title>Sheet.74</title>
<path class="st10" d="M6.68 650 L7.04 650 L25 650"></path>
</g>
<g id="shape75-94" transform="translate(-225,500.248) rotate(-90)" v:groupcontext="shape" v:mid="75">
<title>Sheet.75</title>
<path class="st9" d="M0 650 L136.57 650"></path>
</g>
<g id="shape76-97" transform="translate(1113,455.248) rotate(90)" v:groupcontext="shape" v:mid="76">
<title>Sheet.76</title>
<path class="st7" d="M0 650 L12.21 650"></path>
</g>
<g id="shape77-102" transform="translate(1137,434.813) rotate(90)" v:groupcontext="shape" v:mid="77">
<title>Sheet.77</title>
<path class="st11" d="M6.68 650 L7.04 650 L32.52 650"></path>
</g>
<g id="shape78-109" transform="translate(1207.27,454.998) rotate(90)" v:groupcontext="shape" v:mid="78">
<title>Sheet.78</title>
<path class="st7" d="M0 650 L12.46 650"></path>
</g>
<g id="shape79-114" transform="translate(1239.4,434.998) rotate(90)" v:groupcontext="shape" v:mid="79">
<title>Sheet.79</title>
<path class="st11" d="M6.68 650 L7.04 650 L32.46 650"></path>
</g>
<g id="shape80-121" transform="translate(1188.37,65.2482) rotate(90)" v:groupcontext="shape" v:mid="80">
<title>Sheet.80</title>
<path class="st7" d="M0 650 L8.09 650"></path>
</g>
<g id="shape81-126" transform="translate(626.738,-530.002) rotate(2.41415E-05)" v:groupcontext="shape" v:mid="81">
<title>Sheet.81</title>
<path class="st10" d="M6.68 650 L7.04 650 L23.26 650"></path>
</g>
<g id="shape82-131" transform="translate(678.75,724.998) rotate(180)" v:groupcontext="shape" v:mid="82">
<title>Sheet.82</title>
<path class="st10" d="M6.68 650 L7.04 650 L28.75 650"></path>
</g>
<g id="shape83-136" transform="translate(2.55795E-13,119.998) rotate(-90)" v:groupcontext="shape" v:mid="83">
<title>Sheet.83</title>
<path class="st9" d="M0 650 L45 650"></path>
</g>
<g id="shape84-139" transform="translate(1315,64.9981) rotate(90)" v:groupcontext="shape" v:mid="84">
<title>Sheet.84</title>
<path class="st9" d="M0 650 L511.11 650"></path>
</g>
<g id="shape85-142" transform="translate(678.75,814.998) rotate(180)" v:groupcontext="shape" v:mid="85">
<title>Sheet.85</title>
<path class="st10" d="M6.68 650 L7.04 650 L13.75 650"></path>
</g>
<g id="shape86-147" transform="translate(626.737,-469.678)" v:groupcontext="shape" v:mid="86">
<title>Sheet.86</title>
<path class="st11" d="M6.68 650 L7.04 650 L44.97 650"></path>
</g>
<g id="shape87-154" transform="translate(678.75,859.998) rotate(180)" v:groupcontext="shape" v:mid="87">
<title>Sheet.87</title>
<path class="st10" d="M6.68 650 L7.04 650 L13.75 650"></path>
</g>
<g id="shape88-159" transform="translate(626.737,-423.678)" v:groupcontext="shape" v:mid="88">
<title>Sheet.88</title>
<path class="st11" d="M6.68 650 L7.04 650 L44.97 650"></path>
</g>
<g id="shape89-166" transform="translate(678.75,904.998) rotate(180)" v:groupcontext="shape" v:mid="89">
<title>Sheet.89</title>
<path class="st10" d="M6.68 650 L7.04 650 L13.75 650"></path>
</g>
<g id="shape90-171" transform="translate(678.75,919.998) rotate(180)" v:groupcontext="shape" v:mid="90">
<title>Sheet.90</title>
<path class="st11" d="M6.68 650 L7.04 650 L44.97 650"></path>
</g>
<g id="shape91-178" transform="translate(626.75,-340.002)" v:groupcontext="shape" v:mid="91">
<title>Sheet.91</title>
<path class="st10" d="M6.68 650 L7.04 650 L28.25 650"></path>
</g>
<g id="shape92-183" transform="translate(678.75,1090) rotate(180)" v:groupcontext="shape" v:mid="92">
<title>Sheet.92</title>
<path class="st10" d="M6.68 650 L7.04 650 L23.75 650"></path>
</g>
<g id="shape93-188" transform="translate(1305,310.554) rotate(90)" v:groupcontext="shape" v:mid="93">
<title>Sheet.93</title>
<path class="st9" d="M0 650 L129.44 650"></path>
</g>
<g id="shape94-191" transform="translate(626.75,-301.877)" v:groupcontext="shape" v:mid="94">
<title>Sheet.94</title>
<path class="st10" d="M6.68 650 L7.04 650 L20.25 650"></path>
</g>
<g id="shape95-196" transform="translate(678.75,1160) rotate(180)" v:groupcontext="shape" v:mid="95">
<title>Sheet.95</title>
<path class="st10" d="M6.68 650 L7.04 650 L31.75 650"></path>
</g>
<g id="shape96-201" transform="translate(1297.5,351.092) rotate(90.178)" v:groupcontext="shape" v:mid="96">
<title>Sheet.96</title>
<path class="st9" d="M0 650 L160.93 650"></path>
</g>
<g id="shape97-204" transform="translate(626.75,-261.178)" v:groupcontext="shape" v:mid="97">
<title>Sheet.97</title>
<path class="st10" d="M6.68 650 L7.04 650 L13.25 650"></path>
</g>
<g id="shape98-209" transform="translate(675.644,1244.99) rotate(-179.726)" v:groupcontext="shape" v:mid="98">
<title>Sheet.98</title>
<path class="st10" d="M6.68 650 L7.04 650 L38.75 650"></path>
</g>
<g id="shape99-214" transform="translate(1290,389.813) rotate(90)" v:groupcontext="shape" v:mid="99">
<title>Sheet.99</title>
<path class="st9" d="M0 650 L205 650"></path>
</g>
<g id="shape100-217" transform="translate(665,-73.8907)" v:groupcontext="shape" v:mid="100">
<title>Sheet.100</title>
<path class="st7" d="M0 650 L6.71 650"></path>
</g>
<g id="shape101-222" transform="translate(780,-65.0018)" v:groupcontext="shape" v:mid="101">
<title>Sheet.101</title>
<path class="st9" d="M0 650 L35 650"></path>
</g>
<g id="shape102-225" transform="translate(780,-148.127)" v:groupcontext="shape" v:mid="102">
<title>Sheet.102</title>
<path class="st9" d="M0 650 L35 650"></path>
</g>
<g id="shape103-228" transform="translate(678.75,1075) rotate(180)" v:groupcontext="shape" v:mid="103">
<title>Sheet.103</title>
<path class="st10" d="M6.68 650 L7.04 650 L13.75 650"></path>
</g>
<g id="shape104-233" transform="translate(792,1038.82) rotate(180)" v:groupcontext="shape" v:mid="104">
<title>Sheet.104</title>
<path class="st9" d="M0 650 L11.63 650"></path>
</g>
<g id="shape105-236" transform="translate(792,999.214) rotate(180)" v:groupcontext="shape" v:mid="105">
<title>Sheet.105</title>
<path class="st9" d="M0 650 L11.63 650"></path>
</g>
<g id="shape106-239" transform="translate(792,959.606) rotate(180)" v:groupcontext="shape" v:mid="106">
<title>Sheet.106</title>
<path class="st9" d="M0 650 L11.63 650"></path>
</g>
<g id="shape107-242" transform="translate(792,919.998) rotate(180)" v:groupcontext="shape" v:mid="107">
<title>Sheet.107</title>
<path class="st9" d="M0 650 L11.63 650"></path>
</g>
<g id="shape108-245" transform="translate(815,868.123) rotate(180)" v:groupcontext="shape" v:mid="108">
<title>Sheet.108</title>
<path class="st9" d="M0 650 L35.45 650"></path>
</g>
<g id="shape111-248" transform="translate(175.625,-585)" v:groupcontext="shape" v:mid="111">
<title>21V</title>
<desc>21V</desc>
<rect class="st3" height="20.0036" width="34.375" x="0" y="629.996"></rect>
<text class="st4" v:langid="1033" x="8.29" y="643">21V</text> </g>
<g id="shape112-251" transform="translate(285.625,-585)" v:groupcontext="shape" v:mid="112">
<title>5V</title>
<desc>5V</desc>
<rect class="st3" height="20.0036" width="34.375" x="0" y="629.996"></rect>
<text class="st4" v:langid="1033" x="11.07" y="643">5V</text> </g>
<g id="shape113-254" transform="translate(421.875,-585)" v:groupcontext="shape" v:mid="113">
<title>6+3 Rails</title>
<desc>6+3 Rails</desc>
<rect class="st3" height="20.0036" width="72" x="0" y="629.996"></rect>
<text class="st4" v:langid="1033" x="15.02" y="643">6+3 Rails</text> </g>
<g id="shape114-257" transform="translate(410,-582.229)" v:groupcontext="shape" v:mid="114">
<title>Connector 1.166</title>
<ellipse class="st13" cx="2.77275" cy="647.227" rx="2.77275" ry="2.77275"></ellipse>
</g>
<g id="shape115-259" transform="translate(410,-452.229)" v:groupcontext="shape" v:mid="115">
<title>Connector 1.166.115</title>
<ellipse class="st13" cx="2.77275" cy="647.227" rx="2.77275" ry="2.77275"></ellipse>
</g>
<g id="shape116-261" transform="translate(410,-406.229)" v:groupcontext="shape" v:mid="116">
<title>Connector 1.166.116</title>
<ellipse class="st13" cx="2.77275" cy="647.227" rx="2.77275" ry="2.77275"></ellipse>
</g>
<g id="shape117-263" transform="translate(410,-329.729)" v:groupcontext="shape" v:mid="117">
<title>Connector 1.166.117</title>
<ellipse class="st13" cx="2.77275" cy="647.227" rx="2.77275" ry="2.77275"></ellipse>
</g>
<g id="group118-265" transform="translate(395.625,-581.623)" v:groupcontext="group" v:mid="118">
<title>Vertical Wire Bundle</title>
<g id="shape119-266" transform="translate(0,-3.375)" v:groupcontext="shape" v:mid="119">
<title>Label Text 10pt.1046</title>
<rect class="st3" height="20.0036" width="68.3156" x="0" y="629.996"></rect>
</g>
<g id="shape120-268" transform="translate(529.208,1065.14) rotate(130.601)" v:groupcontext="shape" v:mid="120">
<title>Sheet.120</title>
<path class="st14" d="M0 650 L10.37 650"></path>
</g>
</g>
<g id="shape121-271" transform="translate(410,-192.229)" v:groupcontext="shape" v:mid="121">
<title>Connector 1.166.121</title>
<ellipse class="st13" cx="2.77275" cy="647.227" rx="2.77275" ry="2.77275"></ellipse>
</g>
<g id="shape122-273" transform="translate(460.348,-192.229)" v:groupcontext="shape" v:mid="122">
<title>Connector 1.166.122</title>
<ellipse class="st13" cx="2.77275" cy="647.227" rx="2.77275" ry="2.77275"></ellipse>
</g>
<g id="shape124-275" transform="translate(535.583,-582.229)" v:groupcontext="shape" v:mid="124">
<title>Connector 1.166.124</title>
<ellipse class="st13" cx="2.77275" cy="647.227" rx="2.77275" ry="2.77275"></ellipse>
</g>
<g id="shape130-277" transform="translate(662.227,-482.229)" v:groupcontext="shape" v:mid="130">
<title>Connector 1.166.130</title>
<ellipse class="st13" cx="2.77275" cy="647.227" rx="2.77275" ry="2.77275"></ellipse>
</g>
<g id="shape131-279" transform="translate(662.227,-437.229)" v:groupcontext="shape" v:mid="131">
<title>Connector 1.166.131</title>
<ellipse class="st13" cx="2.77275" cy="647.227" rx="2.77275" ry="2.77275"></ellipse>
</g>
<g id="shape132-281" transform="translate(662.227,-392.229)" v:groupcontext="shape" v:mid="132">
<title>Connector 1.166.132</title>
<ellipse class="st13" cx="2.77275" cy="647.227" rx="2.77275" ry="2.77275"></ellipse>
</g>
<g id="shape133-283" transform="translate(678.75,1142.78) rotate(180)" v:groupcontext="shape" v:mid="133">
<title>Sheet.133</title>
<path class="st10" d="M6.68 650 L7.04 650 L13.75 650"></path>
</g>
<g id="shape134-288" transform="translate(662.227,-222.229)" v:groupcontext="shape" v:mid="134">
<title>Connector 1.166.134</title>
<ellipse class="st13" cx="2.77275" cy="647.227" rx="2.77275" ry="2.77275"></ellipse>
</g>
<g id="shape135-290" transform="translate(662.227,-154.451)" v:groupcontext="shape" v:mid="135">
<title>Connector 1.166.135</title>
<ellipse class="st13" cx="2.77275" cy="647.227" rx="2.77275" ry="2.77275"></ellipse>
</g>
<g id="group142-292" transform="translate(395.625,-435.188)" v:groupcontext="group" v:mid="142">
<title>N</title>
<g id="shape143-293" transform="translate(0,-3.375)" v:groupcontext="shape" v:mid="143">
<title> N</title>
<desc>N</desc>
<rect class="st3" height="20.0036" width="68.3156" x="0" y="629.996"></rect>
<text class="st4" v:langid="1033" x="30.55" y="643">N</text> </g>
<g id="shape144-296" transform="translate(529.208,1065.14) rotate(130.601)" v:groupcontext="shape" v:mid="144">
<title>Sheet.144</title>
<path class="st14" d="M0 650 L10.37 650"></path>
</g>
</g>
<a data-link-id="#single-cortex-a55" xlink:href="#single-cortex-a55">
<g id="group146-299" transform="translate(450,-215.002)" v:groupcontext="group" v:mid="146">
<title>Sheet.146</title>
<g id="shape56-300" v:groupcontext="shape" v:mid="56">
<title>Single Cortex A55</title>
<desc>Single Cortex-A55</desc>
<rect class="st15" height="354.625" width="176.737" x="0" y="295.375"></rect>
<text class="st16" v:langid="1033" x="43.73" y="313.28">Single Cortex-A55</text> </g>
<g id="shape26-303" transform="translate(5.59704,-213.676)" v:groupcontext="shape" v:mid="26">
<title>Clk</title>
<desc>Clk</desc>
<rect class="st17" height="22.648" width="61.204" x="0" y="627.352"></rect>
<text class="st18" v:langid="1033" x="23.38" y="641.68">Clk</text> </g>
<g id="shape27-306" transform="translate(5.59704,-163.676)" v:groupcontext="shape" v:mid="27">
<title>SD</title>
<desc>SD</desc>
<rect class="st17" height="22.648" width="61.204" x="0" y="627.352"></rect>
<text class="st18" v:langid="1033" x="23.66" y="641.68">SD</text> </g>
<g id="shape28-309" transform="translate(108.796,-303.676)" v:groupcontext="shape" v:mid="28">
<title>SPI</title>
<desc>SPI</desc>
<rect class="st17" height="22.648" width="61.204" x="0" y="627.352"></rect>
<text class="st18" v:langid="1033" x="22.54" y="641.68">SPI</text> </g>
<g id="shape29-312" transform="translate(108.796,-243.352)" v:groupcontext="shape" v:mid="29">
<title>QSPI</title>
<desc>QSPI</desc>
<rect class="st17" height="22.648" width="61.204" x="0" y="627.352"></rect>
<text class="st18" v:langid="1033" x="18.65" y="641.68">QSPI</text> </g>
<g id="shape30-315" transform="translate(108.796,-197.352)" v:groupcontext="shape" v:mid="30">
<title>SPI   </title>
<desc>SPI</desc>
<rect class="st17" height="22.648" width="61.204" x="0" y="627.352"></rect>
<text class="st18" v:langid="1033" x="22.54" y="641.68">SPI</text> </g>
<g id="shape31-318" transform="translate(108.796,-153.676)" v:groupcontext="shape" v:mid="31">
<title>UART</title>
<desc>UART</desc>
<rect class="st17" height="22.648" width="61.204" x="0" y="627.352"></rect>
<text class="st18" v:langid="1033" x="16.99" y="641.68">UART</text> </g>
<g id="shape32-321" transform="translate(108.796,-113.676)" v:groupcontext="shape" v:mid="32">
<title> UART</title>
<desc>UART</desc>
<rect class="st17" height="22.648" width="61.204" x="0" y="627.352"></rect>
<text class="st18" v:langid="1033" x="16.99" y="641.68">UART</text> </g>
<g id="shape33-324" transform="translate(108.796,-75.551)" v:groupcontext="shape" v:mid="33">
<title>  UART </title>
<desc>UART</desc>
<rect class="st17" height="22.648" width="61.204" x="0" y="627.352"></rect>
<text class="st18" v:langid="1033" x="16.99" y="641.68">UART</text> </g>
<g id="shape34-327" transform="translate(108.796,-34.852)" v:groupcontext="shape" v:mid="34">
<title>    UART </title>
<desc>UART</desc>
<rect class="st17" height="22.648" width="61.204" x="0" y="627.352"></rect>
<text class="st18" v:langid="1033" x="16.99" y="641.68">UART</text> </g>
<g id="shape35-330" transform="translate(5.59704,-91)" v:groupcontext="shape" v:mid="35">
<title>Display I/F  </title>
<desc>Display I/F</desc>
<rect class="st17" height="22.648" width="61.204" x="0" y="627.352"></rect>
<text class="st18" v:langid="1033" x="6.99" y="641.68">Display I/F</text> </g>
<g id="shape36-333" transform="translate(5.59704,-60)" v:groupcontext="shape" v:mid="36">
<title>Ethernet</title>
<desc>Ethernet</desc>
<rect class="st17" height="22.648" width="61.204" x="0" y="627.352"></rect>
<text class="st18" v:langid="1033" x="11.7" y="641.68">Ethernet</text> </g>
<g id="shape37-336" transform="translate(5.59704,-7.35198)" v:groupcontext="shape" v:mid="37">
<title>eMMC</title>
<desc>eMMC</desc>
<rect class="st17" height="22.648" width="61.204" x="0" y="627.352"></rect>
<text class="st18" v:langid="1033" x="15.88" y="641.68">eMMC</text> </g>
<g id="shape123-339" transform="translate(108.796,-7.67599)" v:groupcontext="shape" v:mid="123">
<title>DDR</title>
<desc>DDR</desc>
<rect class="st17" height="22.648" width="61.204" x="0" y="627.352"></rect>
<text class="st18" v:langid="1033" x="19.77" y="641.68">DDR</text> </g>
</g>
</a>
<g id="shape18-342" transform="translate(10.7561,-568.127)" v:groupcontext="shape" v:mid="18">
<title>USB-C Connector</title>
<desc>USB-C Connector</desc>
<rect class="st5" height="33.75" width="70.2439" x="0" y="616.25"></rect>
<text class="st6" v:langid="1033" x="18.01" y="629.82">USB-C <tspan class="st19" dy="1.2em" x="9.75">Connector</tspan></text> </g>
<g id="shape22-346" transform="translate(10.7561,-383.127)" v:groupcontext="shape" v:mid="22">
<title>SD-Card I/F</title>
<desc>SD-Card I/F</desc>
<rect class="st5" height="33.75" width="70.2439" x="0" y="616.25"></rect>
<text class="st6" v:langid="1033" x="5.78" y="636.43">SD-Card I/F</text> </g>
<a data-link-id="#pmic" xlink:href="#pmic">
<g id="shape58-349" transform="translate(319.375,-561.564)" v:groupcontext="shape" v:mid="58">
<title>PMIC Bucks x6 LDO x3</title>
<desc>PMIC Bucks x6 LDO x3</desc>
<rect class="st15" height="46.875" width="75.625" x="0" y="603.125"></rect>
<text class="st16" v:langid="1033" x="24.06" y="616.66">PMIC <tspan class="st19" dy="1.2em" x="15.5">Bucks x6 </tspan><tspan class="st19" dy="1.2em" x="19.17">LDO x3</tspan></text> </g>
</a>
<a data-link-id="#buck-dc-dc" xlink:href="#buck-dc-dc">
<g id="shape109-354" transform="translate(209.375,-568.127)" v:groupcontext="shape" v:mid="109">
<title>Buck DC/DC</title>
<desc>Buck DC/DC</desc>
<rect class="st15" height="33.75" width="75.625" x="0" y="616.25"></rect>
<text class="st16" v:langid="1033" x="6.64" y="636.43">Buck DC/DC</text> </g>
</a>
<a data-link-id="#usb-c-pd-controller" xlink:href="#usb-c-pd-controller">
<g id="shape110-357" transform="translate(99.375,-568.127)" v:groupcontext="shape" v:mid="110">
<title>USB-C PD Controller</title>
<desc>USB-C PD Controller</desc>
<rect class="st15" height="33.75" width="75.625" x="0" y="616.25"></rect>
<text class="st16" v:langid="1033" x="11.53" y="629.82">USB-C PD <tspan class="st19" dy="1.2em" x="13.97">Controller</tspan></text> </g>
</a>
<g id="shape42-361" transform="translate(815,-568.127)" v:groupcontext="shape" v:mid="42">
<title>Antenna</title>
<desc>Antenna</desc>
<rect class="st5" height="33.75" width="75.625" x="0" y="616.25"></rect>
<text class="st6" v:langid="1033" x="17.32" y="636.43">Antenna</text> </g>
<g id="shape45-364" transform="translate(815,-415.002)" v:groupcontext="shape" v:mid="45">
<title>  Antenna</title>
<desc>Antenna</desc>
<rect class="st5" height="33.75" width="75.625" x="0" y="616.25"></rect>
<text class="st6" v:langid="1033" x="17.32" y="636.43">Antenna</text> </g>
<g id="shape53-367" transform="translate(815,-131.252)" v:groupcontext="shape" v:mid="53">
<title>    Antenna  </title>
<desc>Antenna</desc>
<rect class="st5" height="33.75" width="75.625" x="0" y="616.25"></rect>
<text class="st6" v:langid="1033" x="17.32" y="636.43">Antenna</text> </g>
<g id="shape55-370" transform="translate(815,-48.1268)" v:groupcontext="shape" v:mid="55">
<title>     Antenna </title>
<desc>Antenna</desc>
<rect class="st5" height="33.75" width="75.625" x="0" y="616.25"></rect>
<text class="st6" v:langid="1033" x="17.32" y="636.43">Antenna</text> </g>
<g id="shape47-373" transform="translate(792,-363.127)" v:groupcontext="shape" v:mid="47">
<title>USB-Stick “ZigBee”</title>
<desc>USB-Stick “ZigBee”</desc>
<rect class="st5" height="33.75" width="98.625" x="0" y="616.25"></rect>
<text class="st6" v:langid="1033" x="24.25" y="629.82">USB-Stick <tspan class="st19" dy="1.2em" x="28.22">“</tspan>ZigBee”</text> </g>
<g id="shape48-377" transform="translate(792,-323.519)" v:groupcontext="shape" v:mid="48">
<title>USB-Stick “HomeMatic”</title>
<desc>USB-Stick “HomeMatic”</desc>
<rect class="st5" height="33.75" width="98.625" x="0" y="616.25"></rect>
<text class="st6" v:langid="1033" x="24.25" y="629.82">USB-Stick <tspan class="st19" dy="1.2em" x="17.84">“</tspan>HomeMatic”</text> </g>
<g id="shape49-381" transform="translate(792,-283.911)" v:groupcontext="shape" v:mid="49">
<title>USB-Stick “eNet”</title>
<desc>USB-Stick “eNet”</desc>
<rect class="st5" height="33.75" width="98.625" x="0" y="616.25"></rect>
<text class="st6" v:langid="1033" x="7.44" y="636.43">USB-Stick “eNet”</text> </g>
<g id="shape50-384" transform="translate(792,-244.303)" v:groupcontext="shape" v:mid="50">
<title>USB-Stick...</title>
<desc>USB-Stick...</desc>
<rect class="st5" height="33.75" width="98.625" x="0" y="616.25"></rect>
<text class="st6" v:langid="1033" x="19.67" y="636.43">USB-Stick...</text> </g>
<g id="shape46-387" transform="translate(678.75,-255.002)" v:groupcontext="shape" v:mid="46">
<title>USB Hub x4 USB 2.0</title>
<desc>USB Hub x4 USB 2.0</desc>
<rect class="st5" height="152.574" width="101.25" x="0" y="497.426"></rect>
<text class="st6" v:langid="1033" x="20.36" y="570.41">USB Hub x4 <tspan class="st19" dy="1.2em" x="30.14">USB 2.0</tspan></text> </g>
<a data-link-id="#wi-fi-bluetooth-module" xlink:href="#wi-fi-bluetooth-module">
<g id="shape41-391" transform="translate(678.75,-568.127)" v:groupcontext="shape" v:mid="41">
<title>Wi-Fi Bluetooth Module</title>
<desc>Wi-Fi Bluetooth Module</desc>
<rect class="st15" height="33.75" width="101.25" x="0" y="616.25"></rect>
<text class="st16" v:langid="1033" x="13.03" y="629.82">Wi-Fi Bluetooth <tspan class="st19" dy="1.2em" x="32.59">Module</tspan></text> </g>
</a>
<a data-link-id="#qspi-flash" xlink:href="#qspi-flash">
<g id="shape43-395" transform="translate(678.75,-460.553)" v:groupcontext="shape" v:mid="43">
<title>QSPI Flash </title>
<desc>QSPI Flash</desc>
<rect class="st15" height="33.75" width="101.25" x="0" y="616.25"></rect>
<text class="st16" v:langid="1033" x="22.5" y="636.43">QSPI Flash</text> </g>
</a>
<g id="shape44-398" transform="translate(678.75,-415.002)" v:groupcontext="shape" v:mid="44">
<title>LTE-M Module GM01Q</title>
<desc>LTE-M Module GM01Q</desc>
<rect class="st20" height="33.75" width="101.25" x="0" y="616.25"></rect>
<text class="st6" v:langid="1033" x="14.56" y="629.82">LTE-M Module <tspan class="st19" dy="1.2em" x="31.37">GM01Q</tspan></text> </g>
<g id="shape51-402" transform="translate(678.75,-201.252)" v:groupcontext="shape" v:mid="51">
<title>KNX TP</title>
<desc>KNX TP</desc>
<rect class="st5" height="33.75" width="101.25" x="0" y="616.25"></rect>
<text class="st6" v:langid="1033" x="30.76" y="636.43">KNX TP</text> </g>
<g id="shape52-405" transform="translate(678.75,-131.252)" v:groupcontext="shape" v:mid="52">
<title>KNX RF</title>
<desc>KNX RF</desc>
<rect class="st5" height="33.75" width="101.25" x="0" y="616.25"></rect>
<text class="st6" v:langid="1033" x="30.46" y="636.43">KNX RF</text> </g>
<a data-link-id="#dect-data" xlink:href="#dect-data">
<g id="shape54-408" transform="translate(678.75,-48.1268)" v:groupcontext="shape" v:mid="54">
<title>DECT Data </title>
<desc>DECT Data</desc>
<rect class="st15" height="33.75" width="101.25" x="0" y="616.25"></rect>
<text class="st16" v:langid="1033" x="22.51" y="636.43">DECT Data</text> </g>
</a>
<g id="shape39-411" transform="translate(455,-141.752)" v:groupcontext="shape" v:mid="39">
<title> eMMC</title>
<desc>eMMC</desc>
<rect class="st5" height="33.75" width="86.25" x="0" y="616.25"></rect>
<text class="st6" v:langid="1033" x="26.93" y="636.43">eMMC</text> </g>
<g id="shape40-414" transform="translate(548.75,-141.752)" v:groupcontext="shape" v:mid="40">
<title> DDR4 RM</title>
<desc>DDR4 RM</desc>
<rect class="st5" height="33.75" width="77.9874" x="0" y="616.25"></rect>
<text class="st6" v:langid="1033" x="13.94" y="636.43">DDR4 RM</text> </g>
<g id="shape23-417" transform="translate(269.375,-308.127)" v:groupcontext="shape" v:mid="23">
<title>Display I/F</title>
<desc>Display I/F</desc>
<path class="st21" d="M0 650 L101.25 650 L101.25 616.25 L0 616.25 L0 650 Z"></path>
<text class="st6" v:langid="1033" x="24.65" y="636.43">Display I/F</text> </g>
<a data-link-id="#versaclock" xlink:href="#versaclock">
<g id="shape25-420" transform="translate(269.375,-430.002)" v:groupcontext="shape" v:mid="25">
<title>VersaClock</title>
<desc>VersaClock</desc>
<rect class="st15" height="33.75" width="101.25" x="0" y="616.25"></rect>
<text class="st16" v:langid="1033" x="22.5" y="636.43">VersaClock</text> </g>
</a>
</g>
</svg>