<?xml version="1.0" encoding="UTF-8" standalone="no"?>
<!DOCTYPE svg PUBLIC "-//W3C//DTD SVG 1.1//EN" "http://www.w3.org/Graphics/SVG/1.1/DTD/svg11.dtd">
<svg class="st28" color-interpolation-filters="sRGB" height="6.94444in" viewbox="0 0 900 500" width="12.5in" xml:space="preserve" xmlns="http://www.w3.org/2000/svg" xmlns:ev="http://www.w3.org/2001/xml-events" xmlns:v="http://schemas.microsoft.com/visio/2003/SVGExtensions/" xmlns:xlink="http://www.w3.org/1999/xlink">
<style type="text/css">
	
		.st1 {stroke:#000000;stroke-width:1}
		.st2 {stroke:#000000;stroke-linecap:round;stroke-linejoin:round;stroke-width:0.75}
		.st3 {marker-end:url(#mrkr4-23);stroke:#000000;stroke-width:1}
		.st4 {fill:#000000;fill-opacity:1;stroke:#000000;stroke-opacity:1;stroke-width:0.28409090909091}
		.st5 {fill:none;stroke:none;stroke-linecap:round;stroke-linejoin:round;stroke-width:0.72}
		.st6 {fill:#000000;font-family:Arial;font-size:0.833336em}
		.st7 {fill:none;stroke:#000000;stroke-linecap:round;stroke-linejoin:round;stroke-width:1}
		.st8 {marker-end:url(#mrkr4-23);marker-start:url(#mrkr4-41);stroke:#000000;stroke-width:1}
		.st9 {marker-start:url(#mrkr4-41);stroke:#000000;stroke-width:1}
		.st10 {fill:none;stroke:none;stroke-linecap:round;stroke-linejoin:round;stroke-width:0.24}
		.st11 {fill:#ff0000;stroke:none;stroke-linecap:round;stroke-linejoin:round;stroke-width:0.75}
		.st12 {fill:#00b050;stroke:none;stroke-linecap:round;stroke-linejoin:round;stroke-width:0.75}
		.st13 {fill:#0070c0;stroke:none;stroke-linecap:round;stroke-linejoin:round;stroke-width:0.75}
		.st14 {fill:#ffffff;stroke:#000000;stroke-linecap:round;stroke-linejoin:round;stroke-width:1.5}
		.st15 {fill:none;stroke:none;stroke-linecap:round;stroke-linejoin:round;stroke-width:1.5}
		.st16 {fill:#000000;font-family:Arial;font-size:1.00001em}
		.st17 {fill:#000000;stroke:none;stroke-linecap:round;stroke-linejoin:round;stroke-width:0.75}
		.st18 {fill:#ffffff;stroke:#000000;stroke-dasharray:7,5;stroke-width:1}
		.st19 {fill:#000000;font-family:Arial;font-size:0.916672em}
		.st20 {fill:#000000;stroke:none;stroke-linecap:round;stroke-linejoin:round;stroke-width:6.375}
		.st21 {fill:#0071b9;stroke:none;stroke-linecap:round;stroke-linejoin:round;stroke-width:0.24}
		.st22 {fill:#ffffff;font-family:Arial;font-size:0.916672em}
		.st23 {fill:#4ba3d3;stroke:none;stroke-linecap:round;stroke-linejoin:round;stroke-width:0.24}
		.st24 {fill:#ffffff;font-family:Arial;font-size:0.833336em}
		.st25 {baseline-shift:32.4947%;font-size:0.649894em}
		.st26 {font-size:1em}
		.st27 {fill:#ffffff;stroke:#000000;stroke-width:1}
		.st28 {fill:none;fill-rule:evenodd;font-size:12px;overflow:visible;stroke-linecap:square;stroke-miterlimit:3}
	
	</style>
<defs id="Markers">
<g id="lend4">
<path d="M 2 1 L 0 0 L 2 -1 L 2 1 " style="stroke:none"></path>
</g>
<marker class="st4" id="mrkr4-23" markerunits="strokeWidth" orient="auto" overflow="visible" refx="-7.04" v:arrowsize="2" v:arrowtype="4" v:setback="7.04">
<use transform="scale(-3.52,-3.52) " xlink:href="#lend4"></use>
</marker>
<marker class="st4" id="mrkr4-41" markerunits="strokeWidth" orient="auto" overflow="visible" refx="6.68" v:arrowsize="2" v:arrowtype="4" v:setback="6.68">
<use transform="scale(3.52) " xlink:href="#lend4"></use>
</marker>
</defs>
<g v:groupcontext="foregroundPage" v:index="1" v:mid="8">
<title>Template 1</title>
<g id="group262-1" transform="translate(671,-331.002)" v:groupcontext="group" v:mid="262">
<title>Antenna</title>
<g id="shape263-2" transform="translate(508.317,489.084) rotate(90)" v:groupcontext="shape" v:mid="263">
<title>Sheet.263</title>
<path class="st1" d="M0 500 L10.92 500"></path>
</g>
<g id="group264-5" transform="translate(0,-10.9164)" v:groupcontext="group" v:mid="264">
<title>Sheet.264</title>
<g id="shape265-6" transform="translate(0,-13.3803)" v:groupcontext="shape" v:mid="265">
<title>Sheet.265</title>
<path class="st2" d="M0 500 L16.42 500"></path>
</g>
<g id="shape266-9" transform="translate(424.643,222.653) rotate(58.134)" v:groupcontext="shape" v:mid="266">
<title>Sheet.266</title>
<path class="st2" d="M0 500 L15.75 500"></path>
</g>
<g id="shape267-12" transform="translate(444.098,745.643) rotate(121.201)" v:groupcontext="shape" v:mid="267">
<title>Sheet.267</title>
<path class="st2" d="M0 500 L15.64 500"></path>
</g>
</g>
</g>
<g id="shape269-15" transform="translate(654.125,-318.502)" v:groupcontext="shape" v:layermember="1" v:mid="269">
<title>Connector Line.269</title>
<path class="st1" d="M0 487.5 L25 487.5"></path>
</g>
<g id="shape221-18" transform="translate(553.037,-27.5018)" v:groupcontext="shape" v:layermember="1" v:mid="221">
<title>Connector Arrow.221</title>
<path class="st3" d="M0 487.5 L-45.27 487.5"></path>
</g>
<g id="shape64-24" transform="translate(801.5,-14.9982)" v:groupcontext="shape" v:mid="64">
<title>JP128</title>
<desc>JP128</desc>
<rect class="st5" height="20.0036" width="72" x="0" y="479.996"></rect>
<text class="st6" v:langid="1033" x="39.65" y="493">JP128</text> </g>
<g id="shape170-27" transform="translate(93.3523,-444.373)" v:groupcontext="shape" v:layermember="1" v:mid="170">
<title>Connector Arrow.170</title>
<path class="st1" d="M0 487.5 L40.5 487.5"></path>
</g>
<g id="shape171-30" transform="translate(87.8068,-454.1)" v:groupcontext="shape" v:mid="171">
<title>Connector 2</title>
<ellipse class="st7" cx="2.77275" cy="497.227" rx="2.77275" ry="2.77275"></ellipse>
</g>
<g id="shape172-32" transform="translate(72.8523,-454.998)" v:groupcontext="shape" v:mid="172">
<title>5V   </title>
<desc>5V</desc>
<rect class="st5" height="20.0036" width="34" x="0" y="479.996"></rect>
<text class="st6" v:langid="1033" x="10.88" y="493">5V</text> </g>
<g id="shape191-35" transform="translate(88.5,-329.854)" v:groupcontext="shape" v:layermember="1" v:mid="191">
<title>Bi-directional</title>
<path class="st8" d="M6.68 487.5 L7.04 487.5 L260.19 487.5"></path>
</g>
<g id="shape192-43" transform="translate(88.5,-314.854)" v:groupcontext="shape" v:layermember="1" v:mid="192">
<title>Bi-directional.192</title>
<path class="st8" d="M6.68 487.5 L7.04 487.5 L260.19 487.5"></path>
</g>
<g id="shape193-50" transform="translate(88.5,-275.242)" v:groupcontext="shape" v:layermember="1" v:mid="193">
<title>Bi-directional.193</title>
<path class="st8" d="M6.68 487.5 L7.04 487.5 L260.19 487.5"></path>
</g>
<g id="shape194-57" transform="translate(88.5,-230.242)" v:groupcontext="shape" v:layermember="1" v:mid="194">
<title>Bi-directional.194</title>
<path class="st8" d="M6.68 487.5 L7.04 487.5 L260.19 487.5"></path>
</g>
<g id="shape195-64" transform="translate(315.227,-190.242)" v:groupcontext="shape" v:layermember="1" v:mid="195">
<title>Bi-directional.195</title>
<path class="st8" d="M6.68 487.5 L7.04 487.5 L33.46 487.5"></path>
</g>
<g id="shape197-71" transform="translate(315.227,-90.2424)" v:groupcontext="shape" v:layermember="1" v:mid="197">
<title>Bi-directional.197</title>
<path class="st9" d="M6.68 487.5 L7.04 487.5 L40.5 487.5"></path>
</g>
<g id="shape198-76" transform="translate(315.227,-30.6268)" v:groupcontext="shape" v:layermember="1" v:mid="198">
<title>Bi-directional.198</title>
<path class="st8" d="M6.68 487.5 L7.04 487.5 L33.46 487.5"></path>
</g>
<g id="group199-83" transform="translate(213.977,-90.8674)" v:groupcontext="group" v:mid="199">
<title>LCD (TFT-LCD)</title>
<g id="shape200-84" v:groupcontext="shape" v:mid="200">
<title>Block.120</title>
<rect class="st7" height="33.75" width="101.25" x="0" y="466.25"></rect>
</g>
<g id="shape201-86" transform="translate(20.023,-4.66015)" v:groupcontext="shape" v:mid="201">
<title>Block.124</title>
<desc>TFT-LCD</desc>
<rect class="st10" height="33.75" width="61.204" x="0" y="466.25"></rect>
<text class="st6" v:langid="1033" x="9.77" y="484.13">TFT-LCD</text> </g>
<g id="group202-89" transform="translate(26.9212,-3.53515)" v:groupcontext="group" v:mid="202">
<title>Sheet.202</title>
<g id="shape203-90" v:groupcontext="shape" v:mid="203">
<title>Sheet.203</title>
<ellipse class="st11" cx="5.34375" cy="494.375" rx="5.34375" ry="5.625"></ellipse>
</g>
<g id="shape204-92" transform="translate(18.36,5.68434E-14)" v:groupcontext="shape" v:mid="204">
<title>Sheet.204</title>
<ellipse class="st12" cx="5.34375" cy="494.375" rx="5.34375" ry="5.625"></ellipse>
</g>
<g id="shape205-94" transform="translate(36.72,5.68434E-14)" v:groupcontext="shape" v:mid="205">
<title>Sheet.205</title>
<ellipse class="st13" cx="5.34375" cy="494.375" rx="5.34375" ry="5.625"></ellipse>
</g>
</g>
</g>
<g id="shape206-96" transform="translate(302.727,-154.594)" v:groupcontext="shape" v:layermember="1" v:mid="206">
<title>Connector Line</title>
<path class="st1" d="M12.5 500 L26 500 L26 539.1 L12.5 539.1"></path>
</g>
<g id="shape207-99" transform="translate(180.292,-70.0018)" v:groupcontext="shape" v:mid="207">
<title>LCD with Capacitive Touch Overlay</title>
<desc>LCD with Capacitive Touch Overlay</desc>
<rect class="st5" height="20.0036" width="168.62" x="0" y="479.996"></rect>
<text class="st6" v:langid="1033" x="5.39" y="493">LCD with Capacitive Touch Overlay</text> </g>
<g id="shape208-102" transform="translate(113.5,-456.873)" v:groupcontext="shape" v:layermember="1" v:mid="208">
<title>Connector Line.208</title>
<path class="st1" d="M0 500 L-0 916.87 L100.48 916.87"></path>
</g>
<g id="shape209-105" transform="translate(213.977,-50.0018)" v:groupcontext="shape" v:layermember="1" v:mid="209">
<title>Connector Arrow</title>
<path class="st3" d="M0 500 L-49.98 500 L-49.98 439.5 L-43.55 439.5"></path>
</g>
<g id="group210-110" transform="translate(177.5,-96.6753)" v:groupcontext="group" v:mid="210">
<title>Motor</title>
<g id="shape211-111" v:groupcontext="shape" v:mid="211">
<title>Sheet.211</title>
<ellipse class="st14" cx="13.8801" cy="486.337" rx="13.8801" ry="13.6633"></ellipse>
</g>
<g id="shape212-113" v:groupcontext="shape" v:mid="212">
<title>Sheet.212</title>
<desc>M</desc>
<rect class="st15" height="27.3265" width="27.7603" x="0" y="472.673"></rect>
<text class="st16" v:langid="1033" x="8.88" y="489.94">M</text> </g>
</g>
<g id="shape213-116" transform="translate(16.5,-332.005)" v:groupcontext="shape" v:mid="213">
<title>Pmod 1</title>
<desc>Pmod 1</desc>
<rect class="st5" height="20.0036" width="72" x="0" y="479.996"></rect>
<text class="st6" v:langid="1033" x="33.54" y="493">Pmod 1</text> </g>
<g id="shape214-119" transform="translate(16.5,-316.002)" v:groupcontext="shape" v:mid="214">
<title>Pmod 2</title>
<desc>Pmod 2</desc>
<rect class="st5" height="20.0036" width="72" x="0" y="479.996"></rect>
<text class="st6" v:langid="1033" x="33.54" y="493">Pmod 2</text> </g>
<g id="shape215-122" transform="translate(16.5,-277.998)" v:groupcontext="shape" v:mid="215">
<title>Micro SD</title>
<desc>Micro SD</desc>
<rect class="st5" height="20.0036" width="72" x="0" y="479.996"></rect>
<text class="st6" v:langid="1033" x="26.89" y="493">Micro SD</text> </g>
<g id="shape216-125" transform="translate(16.5,-234.002)" v:groupcontext="shape" v:mid="216">
<title>USB Type A</title>
<desc>USB Type A</desc>
<rect class="st5" height="20.0036" width="72" x="0" y="479.996"></rect>
<text class="st6" v:langid="1033" x="12.98" y="493">USB Type A</text> </g>
<g id="shape217-128" transform="translate(235.102,-456.873)" v:groupcontext="shape" v:layermember="1" v:mid="217">
<title>Connector Arrow.217</title>
<path class="st3" d="M0 500 L507.77 500 L507.77 844.83"></path>
</g>
<g id="shape218-133" transform="translate(235.102,-410.002)" v:groupcontext="shape" v:layermember="1" v:mid="218">
<title>Connector Arrow.218</title>
<path class="st3" d="M0 500 L286.73 500 L286.73 860 L310.73 860"></path>
</g>
<g id="shape222-138" transform="translate(552.875,-65.5018)" v:groupcontext="shape" v:layermember="1" v:mid="222">
<title>Connector Arrow.222</title>
<path class="st8" d="M-6.68 487.5 L-7.04 487.5 L-45.11 487.5"></path>
</g>
<g id="shape223-145" transform="translate(530.815,-456.903)" v:groupcontext="shape" v:layermember="1" v:mid="223">
<title>Connector Arrow.223</title>
<path class="st3" d="M2.94 500 L2.94 896.9 L15.02 896.9"></path>
</g>
<g id="shape224-150" transform="translate(500.727,-318.502)" v:groupcontext="shape" v:layermember="1" v:mid="224">
<title>Bi-directional.224</title>
<path class="st8" d="M6.68 487.5 L7.04 487.5 L45.11 487.5"></path>
</g>
<g id="shape229-157" transform="translate(521.75,-80.5018)" v:groupcontext="shape" v:layermember="1" v:mid="229">
<title>Connector Arrow.229</title>
<path class="st3" d="M0 487.5 L24.08 487.5"></path>
</g>
<g id="shape230-162" transform="translate(518.955,-90.2291)" v:groupcontext="shape" v:mid="230">
<title>Connector 1.160</title>
<ellipse class="st17" cx="2.77275" cy="497.227" rx="2.77275" ry="2.77275"></ellipse>
</g>
<g id="shape233-164" transform="translate(552.875,-132.502)" v:groupcontext="shape" v:layermember="1" v:mid="233">
<title>Connector Arrow.233</title>
<path class="st8" d="M-6.68 487.5 L-7.04 487.5 L-44.83 487.5"></path>
</g>
<g id="shape235-171" transform="translate(552.875,-178.502)" v:groupcontext="shape" v:layermember="1" v:mid="235">
<title>Connector Arrow.235</title>
<path class="st8" d="M-6.68 487.5 L-7.04 487.5 L-45.3 487.5"></path>
</g>
<g id="shape236-178" transform="translate(521.835,-194.502)" v:groupcontext="shape" v:layermember="1" v:mid="236">
<title>Connector Arrow.236</title>
<path class="st3" d="M0 487.5 L24.08 487.5"></path>
</g>
<g id="shape237-183" transform="translate(519.04,-204.229)" v:groupcontext="shape" v:mid="237">
<title>Connector 1.237</title>
<ellipse class="st17" cx="2.77275" cy="497.227" rx="2.77275" ry="2.77275"></ellipse>
</g>
<g id="shape239-185" transform="translate(552.875,-242.502)" v:groupcontext="shape" v:layermember="1" v:mid="239">
<title>Connector Arrow.239</title>
<path class="st8" d="M-6.68 487.5 L-7.04 487.5 L-45.11 487.5"></path>
</g>
<g id="shape242-192" transform="translate(654.125,-67.5018)" v:groupcontext="shape" v:layermember="1" v:mid="242">
<title>Connector Arrow.242</title>
<path class="st3" d="M0 487.5 L31.09 487.5"></path>
</g>
<g id="shape243-197" transform="translate(801.5,-134.002)" v:groupcontext="shape" v:layermember="1" v:mid="243">
<title>Connector Arrow.243</title>
<path class="st3" d="M0 500 L-125 500 L-125 540.88 L-140.33 540.88"></path>
</g>
<g id="group255-202" transform="translate(801.5,-108.002)" v:groupcontext="group" v:mid="255">
<title>Sheet.255</title>
<g id="shape253-203" v:groupcontext="shape" v:mid="253">
<title>MIC x 2ch</title>
<desc>MIC x 2ch</desc>
<path class="st18" d="M0 500 L72 500 L72 448 L0 448 L0 500 Z"></path>
<text class="st19" v:langid="1033" x="11.24" y="461.9">MIC x 2ch</text> </g>
<g id="group254-206" transform="translate(18.775,-6.25)" v:groupcontext="group" v:mid="254">
<title>Sheet.254</title>
<g id="group244-207" v:groupcontext="group" v:mid="244">
<title>Microphone</title>
<g id="shape245-208" v:groupcontext="shape" v:mid="245">
<title>Sheet.245</title>
<path class="st20" d="M8.13 498.24 L14.45 498.24 L14.45 500 L0 500 L0 498.24 L6.32 498.24 L6.32 494.66 C2.92 494.22 0.3           491.41 0.3 487.98 L0.3 485.05 L2.11 485.05 L2.11 487.98 C2.11 490.73 4.4 492.96 7.22 492.96           C10.05 492.96 12.34 490.73 12.34 487.98 L12.34 485.05 L14.15 485.05 L14.15 487.98 C14.15 491.41           11.53 494.22 8.13 494.66 L8.13 498.24 Z"></path>
</g>
<g id="shape246-210" transform="translate(3.31146,-8.21023)" v:groupcontext="shape" v:mid="246">
<title>Sheet.246</title>
<path class="st20" d="M3.91 500 C1.75 500 0 498.3 0 496.19 L0 486.22 C0 484.11 1.75 482.41 3.91 482.41 C6.08 482.41 7.83           484.11 7.83 486.22 L4.82 486.22 L4.82 487.39 L7.83 487.39 L7.83 489.15 L4.82 489.15 L4.82 490.32           L7.83 490.32 L7.83 492.08 L4.82 492.08 L4.82 493.26 L7.83 493.26 L7.83 495.02 L4.82 495.02 L4.82           496.19 L7.83 496.19 C7.83 498.3 6.08 500 3.91 500 Z"></path>
</g>
</g>
<g id="group247-212" transform="translate(20,5.68434E-14)" v:groupcontext="group" v:mid="247">
<title>Microphone.247</title>
<g id="shape248-213" v:groupcontext="shape" v:mid="248">
<title>Sheet.248</title>
<path class="st20" d="M8.13 498.24 L14.45 498.24 L14.45 500 L0 500 L0 498.24 L6.32 498.24 L6.32 494.66 C2.92 494.22 0.3           491.41 0.3 487.98 L0.3 485.05 L2.11 485.05 L2.11 487.98 C2.11 490.73 4.4 492.96 7.22 492.96           C10.05 492.96 12.34 490.73 12.34 487.98 L12.34 485.05 L14.15 485.05 L14.15 487.98 C14.15 491.41           11.53 494.22 8.13 494.66 L8.13 498.24 Z"></path>
</g>
<g id="shape249-215" transform="translate(3.31146,-8.21023)" v:groupcontext="shape" v:mid="249">
<title>Sheet.249</title>
<path class="st20" d="M3.91 500 C1.75 500 0 498.3 0 496.19 L0 486.22 C0 484.11 1.75 482.41 3.91 482.41 C6.08 482.41 7.83           484.11 7.83 486.22 L4.82 486.22 L4.82 487.39 L7.83 487.39 L7.83 489.15 L4.82 489.15 L4.82 490.32           L7.83 490.32 L7.83 492.08 L4.82 492.08 L4.82 493.26 L7.83 493.26 L7.83 495.02 L4.82 495.02 L4.82           496.19 L7.83 496.19 C7.83 498.3 6.08 500 3.91 500 Z"></path>
</g>
</g>
</g>
</g>
<g id="shape256-217" transform="translate(793.5,-75.6268)" v:groupcontext="shape" v:layermember="1" v:mid="256">
<title>Connector Arrow.256</title>
<path class="st3" d="M0 487.5 L31.09 487.5"></path>
</g>
<g id="shape257-222" transform="translate(831.5,-78.0018)" v:groupcontext="shape" v:mid="257">
<title>Audio</title>
<desc>Audio</desc>
<rect class="st5" height="20.0036" width="37" x="0" y="479.996"></rect>
<text class="st6" v:langid="1033" x="4" y="493">Audio</text> </g>
<g id="shape259-225" transform="translate(654.125,-242.502)" v:groupcontext="shape" v:layermember="1" v:mid="259">
<title>Bi-directional.259</title>
<path class="st8" d="M6.68 487.5 L7.04 487.5 L169.93 487.5"></path>
</g>
<g id="shape260-232" transform="translate(831.5,-244.998)" v:groupcontext="shape" v:mid="260">
<title>RJ-45</title>
<desc>RJ-45</desc>
<rect class="st5" height="20.0036" width="37" x="0" y="479.996"></rect>
<text class="st6" v:langid="1033" x="4" y="493">RJ-45</text> </g>
<g id="shape268-235" transform="translate(591,-456.877)" v:groupcontext="shape" v:layermember="1" v:mid="268">
<title>Connector Arrow.268</title>
<path class="st3" d="M12.5 500 L12.5 601.96"></path>
</g>
<g id="shape270-240" transform="translate(601,-454.1)" v:groupcontext="shape" v:mid="270">
<title>Connector 1.160.270</title>
<ellipse class="st17" cx="2.77275" cy="497.227" rx="2.77275" ry="2.77275"></ellipse>
</g>
<g id="shape271-242" transform="translate(531,-454.1)" v:groupcontext="shape" v:mid="271">
<title>Connector 1.160.271</title>
<ellipse class="st17" cx="2.77275" cy="497.227" rx="2.77275" ry="2.77275"></ellipse>
</g>
<g id="shape272-244" transform="translate(440.864,-456.873)" v:groupcontext="shape" v:layermember="1" v:mid="272">
<title>Connector Arrow.272</title>
<path class="st3" d="M-12.36 500 L-12.64 500 L-12.64 564.83"></path>
</g>
<g id="shape273-249" transform="translate(425.5,-454.1)" v:groupcontext="shape" v:mid="273">
<title>Connector 1.160.273</title>
<ellipse class="st17" cx="2.77275" cy="497.227" rx="2.77275" ry="2.77275"></ellipse>
</g>
<g id="shape274-251" transform="translate(236.5,-453.745)" v:groupcontext="shape" v:mid="274">
<title>3.3V / &lt;900mA</title>
<desc>3.3V / &lt;900mA</desc>
<rect class="st5" height="20.0036" width="77.2136" x="0" y="479.996"></rect>
<text class="st6" v:langid="1033" x="4" y="493">3.3V / &lt;900mA</text> </g>
<g id="shape275-254" transform="translate(236.5,-406.741)" v:groupcontext="shape" v:mid="275">
<title>1.8V / &lt;15mA</title>
<desc>1.8V / &lt;15mA</desc>
<rect class="st5" height="20.0036" width="72" x="0" y="479.996"></rect>
<text class="st6" v:langid="1033" x="4" y="493">1.8V / &lt;15mA</text> </g>
<a data-link-id="#mpu" xlink:href="#mpu">
<g id="group278-257" transform="translate(355.727,-25.0018)" v:groupcontext="group" v:mid="278">
<title>Sheet.278</title>
<g id="shape65-258" v:groupcontext="shape" v:mid="65">
<title>MPU</title>
<desc>MPU</desc>
<rect class="st21" height="360" width="145" x="0" y="140"></rect>
<text class="st22" v:langid="1033" x="60.28" y="157.9">MPU</text> </g>
<g id="shape78-261" transform="translate(5.75945,-71.2963)" v:groupcontext="shape" v:mid="78">
<title>LCDC</title>
<desc>LCDC</desc>
<rect class="st23" height="22.648" width="45.6189" x="0" y="477.352"></rect>
<text class="st24" v:langid="1033" x="9.2" y="491.68">LCDC</text> </g>
<g id="shape80-264" transform="translate(5.75945,-165.241)" v:groupcontext="shape" v:mid="80">
<title>I2C</title>
<desc>I2C</desc>
<rect class="st23" height="22.648" width="45.6189" x="0" y="477.352"></rect>
<text class="st24" v:langid="1033" x="16" y="491.68">I<tspan class="st25" dy="-0.235em" v:basefontsize="10">2</tspan><tspan class="st26" dy="0.153em">C</tspan></text> </g>
<g id="shape82-269" transform="translate(5.75945,-208.796)" v:groupcontext="shape" v:mid="82">
<title>USBHC</title>
<desc>USBHC</desc>
<rect class="st23" height="22.648" width="45.6189" x="0" y="477.352"></rect>
<text class="st24" v:langid="1033" x="5.31" y="491.68">USBHC</text> </g>
<g id="shape87-272" transform="translate(5.75945,-295.519)" v:groupcontext="shape" v:mid="87">
<title>SPI/UART</title>
<desc>SPI/UART</desc>
<rect class="st23" height="29.4809" width="45.6189" x="0" y="470.519"></rect>
<text class="st24" v:langid="1033" x="13.36" y="482.26">SPI/<tspan class="st26" dy="1.2em" x="9.2">UART</tspan></text> </g>
<g id="shape188-276" transform="translate(5.75945,-252.352)" v:groupcontext="shape" v:mid="188">
<title>SDHI</title>
<desc>SDHI</desc>
<rect class="st23" height="22.648" width="45.6189" x="0" y="477.352"></rect>
<text class="st24" v:langid="1033" x="10.86" y="491.68">SDHI</text> </g>
<g id="shape189-279" transform="translate(5.75945,-114.852)" v:groupcontext="shape" v:mid="189">
<title>Security (TSPI)</title>
<desc>Security (TSPI)</desc>
<rect class="st23" height="29.4809" width="45.6189" x="0" y="470.519"></rect>
<text class="st24" v:langid="1033" x="4.75" y="482.26">Security <tspan class="st26" dy="1.2em" x="8.37">(TSPI)</tspan></text> </g>
<g id="shape190-283" transform="translate(5.75945,-8.125)" v:groupcontext="shape" v:mid="190">
<title>I2C   </title>
<desc>I2C</desc>
<rect class="st23" height="22.648" width="45.6189" x="0" y="477.352"></rect>
<text class="st24" v:langid="1033" x="16" y="491.68">I<tspan class="st25" dy="-0.235em" v:basefontsize="10">2</tspan><tspan class="st26" dy="0.153em">C</tspan></text> </g>
<g id="shape220-288" transform="translate(94.9633,-8.125)" v:groupcontext="shape" v:mid="220">
<title>I2S  </title>
<desc>I2S</desc>
<rect class="st23" height="63.1713" width="45.6189" x="0" y="436.829"></rect>
<text class="st24" v:langid="1033" x="16.28" y="471.41">I<tspan class="st25" dy="-0.235em" v:basefontsize="10">2</tspan><tspan class="st26" dy="0.153em">S</tspan></text> </g>
<g id="shape225-293" transform="translate(94.9633,-295.519)" v:groupcontext="shape" v:mid="225">
<title> UART   </title>
<desc>UART</desc>
<rect class="st23" height="22.648" width="45.6189" x="0" y="477.352"></rect>
<text class="st24" v:langid="1033" x="9.2" y="491.68">UART</text> </g>
<g id="shape231-296" transform="translate(94.9633,-108.676)" v:groupcontext="shape" v:mid="231">
<title>GPIO</title>
<desc>GPIO</desc>
<rect class="st23" height="22.648" width="45.6189" x="0" y="477.352"></rect>
<text class="st24" v:langid="1033" x="10.31" y="491.68">GPIO</text> </g>
<g id="shape234-299" transform="translate(94.9633,-163.676)" v:groupcontext="shape" v:mid="234">
<title>QSPI</title>
<desc>QSPI</desc>
<rect class="st23" height="22.648" width="45.6189" x="0" y="477.352"></rect>
<text class="st24" v:langid="1033" x="10.86" y="491.68">QSPI</text> </g>
<g id="shape240-302" transform="translate(94.9633,-216.875)" v:groupcontext="shape" v:mid="240">
<title>Ether Control</title>
<desc>Ether Control</desc>
<rect class="st23" height="28.125" width="45.6189" x="0" y="471.875"></rect>
<text class="st24" v:langid="1033" x="10.86" y="482.94">Ether <tspan class="st26" dy="1.2em" x="6.69">Control</tspan></text> </g>
</g>
</a>
<a data-link-id="#buck" xlink:href="#buck">
<g id="shape145-306" transform="translate(133.852,-439.998)" v:groupcontext="shape" v:mid="145">
<title>Buck Regulator</title>
<desc>Buck Regulator</desc>
<rect class="st21" height="33.75" width="101.25" x="0" y="466.25"></rect>
<text class="st22" v:langid="1033" x="13.02" y="486.43">Buck Regulator</text> </g>
</a>
<a data-link-id="#ldo" xlink:href="#ldo">
<g id="shape146-309" transform="translate(133.852,-393.127)" v:groupcontext="shape" v:mid="146">
<title>LDO</title>
<desc>LDO</desc>
<rect class="st21" height="33.75" width="101.25" x="0" y="466.25"></rect>
<text class="st22" v:langid="1033" x="39.32" y="486.43">LDO</text> </g>
</a>
<a data-link-id="#sensor" xlink:href="#sensor">
<g id="shape185-312" transform="translate(213.977,-185.867)" v:groupcontext="shape" v:mid="185">
<title>Humidity &amp; Temp Sensor</title>
<desc>Humidity &amp; Temp Sensor</desc>
<rect class="st21" height="33.75" width="101.25" x="0" y="466.25"></rect>
<text class="st22" v:langid="1033" x="8.45" y="479.82">Humidity &amp; Temp <tspan class="st26" dy="1.2em" x="33.2">Sensor</tspan></text> </g>
</a>
<a data-link-id="#backlight-driver" xlink:href="#backlight-driver">
<g id="shape186-316" transform="translate(213.977,-137.719)" v:groupcontext="shape" v:mid="186">
<title>Backlight Driver</title>
<desc>Backlight Driver</desc>
<rect class="st21" height="33.75" width="101.25" x="0" y="466.25"></rect>
<text class="st22" v:langid="1033" x="12.11" y="486.43">Backlight Driver</text> </g>
</a>
<a data-link-id="#haptics-driver" xlink:href="#haptics-driver">
<g id="shape187-319" transform="translate(213.977,-26.2518)" v:groupcontext="shape" v:mid="187">
<title>Haptics Driver</title>
<desc>Haptics Driver</desc>
<rect class="st21" height="33.75" width="101.25" x="0" y="466.25"></rect>
<text class="st22" v:langid="1033" x="16.09" y="486.43">Haptics Driver</text> </g>
</a>
<a data-link-id="#clock-generator" xlink:href="#clock-generator">
<g id="shape219-322" transform="translate(552.875,-33.1268)" v:groupcontext="shape" v:mid="219">
<title>Clock Generator</title>
<desc>Clock Generator</desc>
<rect class="st21" height="33.75" width="101.25" x="0" y="466.25"></rect>
<text class="st22" v:langid="1033" x="10.58" y="486.43">Clock Generator</text> </g>
</a>
<a data-link-id="#wifi-ble" xlink:href="#wifi-ble">
<g id="shape226-325" transform="translate(552.875,-314.127)" v:groupcontext="shape" v:mid="226">
<title>Wi-Fi/BLE</title>
<desc>Wi-Fi/BLE</desc>
<rect class="st21" height="33.75" width="101.25" x="0" y="466.25"></rect>
<text class="st22" v:langid="1033" x="25.87" y="486.43">Wi-Fi/BLE</text> </g>
</a>
<a data-link-id="#flash" xlink:href="#flash">
<g id="shape227-328" transform="translate(552.875,-183.127)" v:groupcontext="shape" v:mid="227">
<title>Serial FLASH</title>
<desc>Serial FLASH</desc>
<rect class="st21" height="33.75" width="101.25" x="0" y="466.25"></rect>
<text class="st22" v:langid="1033" x="17.31" y="486.43">Serial FLASH</text> </g>
</a>
<a data-link-id="#codec" xlink:href="#codec">
<g id="shape228-331" transform="translate(552.875,-71.2518)" v:groupcontext="shape" v:mid="228">
<title>Audio Codec</title>
<desc>Audio Codec</desc>
<rect class="st21" height="33.75" width="101.25" x="0" y="466.25"></rect>
<text class="st22" v:langid="1033" x="19.13" y="486.43">Audio Codec</text> </g>
</a>
<g id="shape232-334" transform="translate(552.875,-128.127)" v:groupcontext="shape" v:mid="232">
<title>LED/SW</title>
<desc>LED/SW</desc>
<rect class="st27" height="33.75" width="101.25" x="0" y="466.25"></rect>
<text class="st19" v:langid="1033" x="29.54" y="486.43">LED/SW</text> </g>
<g id="shape238-337" transform="translate(552.875,-238.127)" v:groupcontext="shape" v:mid="238">
<title>Ethernet PHY</title>
<desc>Ethernet PHY</desc>
<rect class="st27" height="33.75" width="101.25" x="0" y="466.25"></rect>
<text class="st19" v:langid="1033" x="17" y="486.43">Ethernet PHY</text> </g>
<a data-link-id="#op-amp" xlink:href="#op-amp">
<g id="shape241-340" transform="translate(692.25,-71.2518)" v:groupcontext="shape" v:mid="241">
<title>Op Amp</title>
<desc>Op Amp</desc>
<rect class="st21" height="33.75" width="101.25" x="0" y="466.25"></rect>
<text class="st22" v:langid="1033" x="30.45" y="486.43">Op Amp</text> </g>
</a>
<g id="shape279-343" transform="translate(111.176,-397.501)" v:groupcontext="shape" v:layermember="1" v:mid="279">
<title>Connector Arrow.279</title>
<path class="st3" d="M2.32 487.5 L2.32 487.5 L15.64 487.5"></path>
</g>
<g id="shape280-348" transform="translate(110.722,-407.229)" v:groupcontext="shape" v:mid="280">
<title>Connector 1.160.280</title>
<ellipse class="st17" cx="2.77275" cy="497.227" rx="2.77275" ry="2.77275"></ellipse>
</g>
<g id="shape281-350" transform="translate(110.722,-454.1)" v:groupcontext="shape" v:mid="281">
<title>Connector 1.160.281</title>
<ellipse class="st17" cx="2.77275" cy="497.227" rx="2.77275" ry="2.77275"></ellipse>
</g>
</g>
</svg>