<?xml version="1.0" encoding="UTF-8" standalone="no"?>
<!DOCTYPE svg PUBLIC "-//W3C//DTD SVG 1.1//EN" "http://www.w3.org/Graphics/SVG/1.1/DTD/svg11.dtd">
<svg class="st19" color-interpolation-filters="sRGB" height="6.92in" viewbox="0 0 891.43 498.24" width="12.381in" xml:space="preserve" xmlns="http://www.w3.org/2000/svg" xmlns:ev="http://www.w3.org/2001/xml-events" xmlns:v="http://schemas.microsoft.com/visio/2003/SVGExtensions/" xmlns:xlink="http://www.w3.org/1999/xlink">
<style type="text/css">
	
		.st1 {marker-end:url(#mrkr4-9);marker-start:url(#mrkr4-7);stroke:#000000;stroke-width:1}
		.st2 {fill:#000000;fill-opacity:1;stroke:#000000;stroke-opacity:1;stroke-width:0.28409090909091}
		.st3 {marker-end:url(#mrkr4-9);stroke:#000000;stroke-width:1}
		.st4 {marker-start:url(#mrkr4-7);stroke:#000000;stroke-width:1}
		.st5 {fill:none;stroke:none;stroke-linecap:round;stroke-linejoin:round;stroke-width:0.72}
		.st6 {fill:#000000;font-family:Arial;font-size:0.833336em}
		.st7 {fill:#ffffff;stroke:#000000;stroke-width:1}
		.st8 {fill:#000000;font-family:Arial;font-size:0.916672em}
		.st9 {baseline-shift:32.4944%;font-size:0.649888em}
		.st10 {font-size:1em}
		.st11 {fill:#000000;stroke:none;stroke-linecap:butt;stroke-width:4.25}
		.st12 {stroke:#000000;stroke-width:1}
		.st13 {fill:#000000;stroke:none;stroke-linecap:round;stroke-linejoin:round;stroke-width:0.75}
		.st14 {fill:#0071b9;stroke:none;stroke-linecap:round;stroke-linejoin:round;stroke-width:0.24}
		.st15 {fill:#ffffff;font-family:Arial;font-size:0.916672em}
		.st16 {fill:#ffffff;stroke:#000000;stroke-linecap:round;stroke-linejoin:round;stroke-width:1}
		.st17 {fill:#4ba3d3;stroke:none;stroke-linecap:round;stroke-linejoin:round;stroke-width:0.24}
		.st18 {fill:#ffffff;font-family:Arial;font-size:0.833336em}
		.st19 {fill:none;fill-rule:evenodd;font-size:12px;overflow:visible;stroke-linecap:square;stroke-miterlimit:3}
	
	</style>
<defs id="Markers">
<g id="lend4">
<path d="M 2 1 L 0 0 L 2 -1 L 2 1 " style="stroke:none"></path>
</g>
<marker class="st2" id="mrkr4-7" markerunits="strokeWidth" orient="auto" overflow="visible" refx="6.68" v:arrowsize="2" v:arrowtype="4" v:setback="6.68">
<use transform="scale(3.52) " xlink:href="#lend4"></use>
</marker>
<marker class="st2" id="mrkr4-9" markerunits="strokeWidth" orient="auto" overflow="visible" refx="-7.04" v:arrowsize="2" v:arrowtype="4" v:setback="7.04">
<use transform="scale(-3.52,-3.52) " xlink:href="#lend4"></use>
</marker>
</defs>
<g v:groupcontext="foregroundPage" v:index="1" v:mid="19">
<title>AS215</title>
<g id="shape201-1" transform="translate(591.18,-403.901)" v:groupcontext="shape" v:layermember="3" v:mid="201">
<title>Connector Arrow.201</title>
<path class="st1" d="M6.68 485.74 L7.04 485.74 L33.46 485.74"></path>
</g>
<g id="shape202-10" transform="translate(591.18,-360.62)" v:groupcontext="shape" v:layermember="3" v:mid="202">
<title>Connector Arrow.202</title>
<path class="st1" d="M6.68 485.74 L7.04 485.74 L33.46 485.74"></path>
</g>
<g id="shape203-17" transform="translate(591.18,-314.296)" v:groupcontext="shape" v:layermember="3" v:mid="203">
<title>Connector Arrow.203</title>
<path class="st1" d="M6.68 485.74 L7.04 485.74 L33.46 485.74"></path>
</g>
<g id="shape204-24" transform="translate(590.957,-191.437)" v:groupcontext="shape" v:layermember="3" v:mid="204">
<title>Connector Arrow.204</title>
<path class="st3" d="M0 485.74 L33.46 485.74"></path>
</g>
<g id="shape205-29" transform="translate(590.957,-138.738)" v:groupcontext="shape" v:layermember="3" v:mid="205">
<title>Connector Arrow.205</title>
<path class="st4" d="M6.68 485.74 L7.04 485.74 L40.5 485.74"></path>
</g>
<g id="shape206-34" transform="translate(590.957,-86.0379)" v:groupcontext="shape" v:layermember="3" v:mid="206">
<title>Connector Arrow.206</title>
<path class="st1" d="M6.68 485.74 L7.04 485.74 L33.46 485.74"></path>
</g>
<g id="shape207-41" transform="translate(590.957,-33.3382)" v:groupcontext="shape" v:layermember="3" v:mid="207">
<title>Connector Arrow.207</title>
<path class="st1" d="M6.68 485.74 L7.04 485.74 L33.46 485.74"></path>
</g>
<g id="shape208-48" transform="translate(732.43,-191.437)" v:groupcontext="shape" v:layermember="3" v:mid="208">
<title>Connector Arrow.208</title>
<path class="st3" d="M0 485.74 L33.46 485.74"></path>
</g>
<g id="shape193-53" transform="translate(373.092,-217.787)" v:groupcontext="shape" v:layermember="3" v:mid="193">
<title>Connector Arrow.193</title>
<path class="st1" d="M6.68 485.74 L7.04 485.74 L33.46 485.74"></path>
</g>
<g id="shape194-60" transform="translate(373.092,-165.087)" v:groupcontext="shape" v:layermember="3" v:mid="194">
<title>Connector Arrow.194</title>
<path class="st1" d="M6.68 485.74 L7.04 485.74 L33.46 485.74"></path>
</g>
<g id="shape195-67" transform="translate(373.092,-112.388)" v:groupcontext="shape" v:layermember="3" v:mid="195">
<title>Connector Arrow.195</title>
<path class="st1" d="M6.68 485.74 L7.04 485.74 L33.46 485.74"></path>
</g>
<g id="shape196-74" transform="translate(373.092,-59.688)" v:groupcontext="shape" v:layermember="3" v:mid="196">
<title>Connector Arrow.196</title>
<path class="st3" d="M0 485.74 L33.46 485.74"></path>
</g>
<g id="shape197-79" transform="translate(309.305,-284.37)" v:groupcontext="shape" v:layermember="3" v:mid="197">
<title>Connector Arrow.197</title>
<path class="st3" d="M12.5 498.24 L12.5 528.41"></path>
</g>
<g id="shape133-84" transform="translate(134.404,615.875) rotate(179.588)" v:groupcontext="shape" v:mid="133">
<title>Sheet.133</title>
<path class="st4" d="M6.68 498.24 L7.04 498.24 L34.75 498.24"></path>
</g>
<g id="shape191-89" transform="translate(372.732,-406.021)" v:groupcontext="shape" v:layermember="3" v:mid="191">
<title>Connector Arrow</title>
<path class="st3" d="M0 485.74 L33.46 485.74"></path>
</g>
<g id="shape198-94" transform="translate(230.32,-439.927)" v:groupcontext="shape" v:layermember="3" v:mid="198">
<title>Connector Arrow.198</title>
<path class="st3" d="M0 485.74 L33.46 485.74"></path>
</g>
<g id="shape199-99" transform="translate(230.32,-367.967)" v:groupcontext="shape" v:layermember="3" v:mid="199">
<title>Connector Arrow.199</title>
<path class="st3" d="M0 485.74 L33.46 485.74"></path>
</g>
<g id="shape200-104" transform="translate(60.82,-464.927)" v:groupcontext="shape" v:layermember="3" v:mid="200">
<title>Connector Arrow.200</title>
<path class="st3" d="M0 510.43 L0 511.05 L61.71 511.05"></path>
</g>
<g id="shape109-109" transform="translate(824.13,-29.5312)" v:groupcontext="shape" v:mid="109">
<title>AS215 </title>
<desc>AS215</desc>
<rect class="st5" height="20.0036" width="48.2996" x="0" y="478.236"></rect>
<text class="st6" v:langid="1033" x="9.14" y="491.24">AS215</text> </g>
<g id="shape110-112" transform="translate(271.18,-213.412)" v:groupcontext="shape" v:mid="110">
<title>PCIe 1</title>
<desc>PCIe</desc>
<rect class="st7" height="33.75" width="101.25" x="0" y="464.49"></rect>
<text class="st8" v:langid="1033" x="38.4" y="484.67">PCIe</text> </g>
<g id="shape111-115" transform="translate(271.18,-160.712)" v:groupcontext="shape" v:mid="111">
<title>I2C x2</title>
<desc>I2C x2</desc>
<rect class="st7" height="33.75" width="101.25" x="0" y="464.49"></rect>
<text class="st8" v:langid="1033" x="35.8" y="484.67">I<tspan class="st9" dy="-0.235em" v:basefontsize="11">2</tspan><tspan class="st10" dy="0.153em">C x2</tspan></text> </g>
<g id="shape112-120" transform="translate(271.18,-108.013)" v:groupcontext="shape" v:mid="112">
<title>SCIF 1</title>
<desc>SCIF</desc>
<rect class="st7" height="33.75" width="101.25" x="0" y="464.49"></rect>
<text class="st8" v:langid="1033" x="38.1" y="484.67">SCIF</text> </g>
<g id="shape113-123" transform="translate(271.18,-55.313)" v:groupcontext="shape" v:mid="113">
<title>DigRF </title>
<desc>DigRF</desc>
<rect class="st7" height="33.75" width="101.25" x="0" y="464.49"></rect>
<text class="st8" v:langid="1033" x="35.04" y="484.67">DigRF</text> </g>
<g id="shape115-126" transform="translate(129.57,-435.552)" v:groupcontext="shape" v:mid="115">
<title>DC/DC 1</title>
<desc>DC/DC</desc>
<rect class="st7" height="33.75" width="101.25" x="0" y="464.49"></rect>
<text class="st8" v:langid="1033" x="33.21" y="484.67">DC/DC</text> </g>
<g id="shape116-129" transform="translate(129.57,-363.592)" v:groupcontext="shape" v:mid="116">
<title>DC/DC 2</title>
<desc>DC/DC</desc>
<rect class="st7" height="33.75" width="101.25" x="0" y="464.49"></rect>
<text class="st8" v:langid="1033" x="33.21" y="484.67">DC/DC</text> </g>
<g id="shape117-132" transform="translate(270.82,-356.802)" v:groupcontext="shape" v:mid="117">
<title>PMIC </title>
<desc>PMIC</desc>
<rect class="st7" height="123.438" width="101.25" x="0" y="374.802"></rect>
<text class="st8" v:langid="1033" x="36.88" y="439.82">PMIC</text> </g>
<g id="group118-135" transform="translate(18,-422.161)" v:groupcontext="group" v:mid="118">
<title>Sheet.118</title>
<g id="group119-136" transform="translate(17.3391,-20.4474)" v:groupcontext="group" v:mid="119">
<title>Battery.230</title>
<g id="shape120-137" transform="translate(17.4682,-16.8943)" v:groupcontext="shape" v:mid="120">
<title>Sheet.120</title>
<path class="st11" d="M0.74 498.24 L4.43 498.24 C4.84 498.24 5.17 497.95 5.17 497.58 L5.17 496.32 C5.17 495.59 4.51 495 3.69          495 L1.48 495 C0.66 495 0 495.59 0 496.32 L0 497.59 C0 497.95 0.33 498.24 0.74 498.24 Z"></path>
</g>
<g id="shape121-139" transform="translate(4.32784,-16.8943)" v:groupcontext="shape" v:mid="121">
<title>Sheet.121</title>
<path class="st11" d="M0.74 498.24 L4.42 498.24 C4.83 498.24 5.17 497.95 5.17 497.58 L5.17 496.32 C5.17 495.59 4.5 495 3.68          495 L1.48 495 C0.66 495 0 495.59 0 496.32 L0 497.59 C0 497.95 0.33 498.24 0.74 498.24 Z"></path>
</g>
<g id="shape122-141" transform="translate(0,-13.9784)" v:groupcontext="shape" v:mid="122">
<title>Sheet.122</title>
<path class="st11" d="M25.67 495.94 L1.29 495.94 C0.58 495.94 0 496.46 0 497.09 C0 497.73 0.58 498.24 1.29 498.24 L25.67 498.24          C26.38 498.24 26.96 497.73 26.96 497.09 C26.96 496.46 26.38 495.94 25.67 495.94 Z"></path>
</g>
<g id="shape123-143" transform="translate(0.83419,-1.13687E-13)" v:groupcontext="shape" v:mid="123">
<title>Sheet.123</title>
<path class="st11" d="M23.46 485.02 L1.84 485.02 C0.82 485.02 0 485.75 0 486.66 L0 495.63 C0 497.07 1.31 498.24 2.93 498.24          L22.36 498.24 C23.98 498.24 25.29 497.07 25.29 495.63 L25.29 486.66 C25.29 485.75 24.47 485.02 23.46          485.02 Z"></path>
</g>
</g>
<g id="shape124-145" v:groupcontext="shape" v:mid="124">
<title>12V Battery </title>
<desc>12V Battery</desc>
<rect class="st5" height="20.0036" width="61.6401" x="0" y="478.236"></rect>
<text class="st6" v:langid="1033" x="4.69" y="491.24">12V Battery</text> </g>
</g>
<g id="shape132-148" transform="translate(594.057,44.4108) rotate(89.8029)" v:groupcontext="shape" v:mid="132">
<title>Sheet.132</title>
<path class="st12" d="M0 498.24 L71.77 498.24"></path>
</g>
<g id="shape134-151" transform="translate(93.32,-449.342)" v:groupcontext="shape" v:mid="134">
<title>Connector 1</title>
<ellipse class="st13" cx="2.77275" cy="495.467" rx="2.77275" ry="2.77275"></ellipse>
</g>
<g id="shape137-153" transform="translate(631.18,-29.5312)" v:groupcontext="shape" v:mid="137">
<title>GEther</title>
<desc>GEther</desc>
<rect class="st7" height="32.6139" width="101.25" x="0" y="465.626"></rect>
<text class="st8" v:langid="1033" x="33.2" y="485.23">GEther</text> </g>
<g id="shape139-156" transform="translate(631.18,-82.231)" v:groupcontext="shape" v:mid="139">
<title>EtherAVB</title>
<desc>EtherAVB</desc>
<rect class="st7" height="32.6139" width="101.25" x="0" y="465.626"></rect>
<text class="st8" v:langid="1033" x="26.47" y="485.23">EtherAVB</text> </g>
<g id="shape142-159" transform="translate(772.875,-187.63)" v:groupcontext="shape" v:mid="142">
<title>HDMI</title>
<desc>HDMI</desc>
<rect class="st7" height="32.6139" width="101.25" x="0" y="465.626"></rect>
<text class="st8" v:langid="1033" x="36.57" y="485.23">HDMI</text> </g>
<g id="shape143-162" transform="translate(631.18,-187.63)" v:groupcontext="shape" v:mid="143">
<title>LVDS OUT</title>
<desc>LVDS OUT</desc>
<rect class="st7" height="32.6139" width="101.25" x="0" y="465.626"></rect>
<text class="st8" v:langid="1033" x="23.12" y="485.23">LVDS OUT</text> </g>
<g id="shape146-165" transform="translate(631.18,-310.489)" v:groupcontext="shape" v:mid="146">
<title>Memory eMMC</title>
<desc>Memory eMMC</desc>
<rect class="st7" height="32.6139" width="101.25" x="0" y="465.626"></rect>
<text class="st8" v:langid="1033" x="13.04" y="485.23">Memory eMMC</text> </g>
<g id="shape148-168" transform="translate(631.18,-356.813)" v:groupcontext="shape" v:mid="148">
<title>Memory QSPI</title>
<desc>Memory QSPI</desc>
<rect class="st7" height="32.6139" width="101.25" x="0" y="465.626"></rect>
<text class="st8" v:langid="1033" x="16.09" y="485.23">Memory QSPI</text> </g>
<g id="shape150-171" transform="translate(631.18,-400.094)" v:groupcontext="shape" v:mid="150">
<title>Memory</title>
<desc>Memory</desc>
<rect class="st7" height="32.6139" width="101.25" x="0" y="465.626"></rect>
<text class="st8" v:langid="1033" x="30.76" y="485.23">Memory</text> </g>
<a data-link-id="#clock-generator" xlink:href="#clock-generator">
<g id="shape153-174" transform="translate(271.18,-284.37)" v:groupcontext="shape" v:mid="153">
<title>Clock Generator </title>
<desc>Clock Generator</desc>
<rect class="st14" height="33.75" width="101.25" x="0" y="464.49"></rect>
<text class="st15" v:langid="1033" x="10.58" y="484.67">Clock Generator</text> </g>
</a>
<g id="group155-177" transform="translate(631.18,-132.316)" v:groupcontext="group" v:mid="155">
<title>CSI IN</title>
<g id="shape156-178" transform="translate(6.75,-1.7053E-13)" v:groupcontext="shape" v:mid="156">
<title>Component block.631</title>
<rect class="st16" height="33.75" width="101.25" x="0" y="464.49"></rect>
</g>
<g id="shape157-180" transform="translate(0,-4.09348)" v:groupcontext="shape" v:mid="157">
<title>CSI IN</title>
<desc>CSI IN</desc>
<rect class="st16" height="33.75" width="101.25" x="0" y="464.49"></rect>
<text class="st8" v:langid="1033" x="34.43" y="484.67">CSI IN</text> </g>
</g>
<g id="shape192-183" transform="translate(373.092,-288.745)" v:groupcontext="shape" v:layermember="3" v:mid="192">
<title>Connector Arrow.192</title>
<path class="st3" d="M0 485.74 L33.46 485.74"></path>
</g>
<g id="shape430-188" transform="translate(231,-453)" v:groupcontext="shape" v:mid="430">
<title>5V 1</title>
<desc>5V</desc>
<rect class="st5" height="20.0036" width="39.82" x="0" y="478.236"></rect>
<text class="st6" v:langid="1033" x="13.79" y="491.24">5V</text> </g>
<g id="shape431-191" transform="translate(230.91,-381)" v:groupcontext="shape" v:mid="431">
<title>5V 2</title>
<desc>5V</desc>
<rect class="st5" height="20.0036" width="39.82" x="0" y="478.236"></rect>
<text class="st6" v:langid="1033" x="13.79" y="491.24">5V</text> </g>
<a data-link-id="#soc" xlink:href="#soc">
<g id="group432-194" transform="translate(413.592,-18.12)" v:groupcontext="group" v:mid="432">
<title>SoC R-Car V3H</title>
<a data-link-id="#soc" xlink:href="#soc">
<g id="shape154-195" v:groupcontext="shape" v:mid="154">
<title>SoC R-Car V3H</title>
<desc>SoC R-Car V3H</desc>
<rect class="st14" height="462" width="177.366" x="0" y="36.24"></rect>
<text class="st15" v:langid="1033" x="49.56" y="54.14">SoC R-Car V3H</text> </g>
</a>
<g id="shape170-198" transform="translate(6.02432,-389.077)" v:groupcontext="shape" v:mid="170">
<title>VCC </title>
<desc>VCC</desc>
<rect class="st17" height="22.648" width="61.204" x="0" y="475.592"></rect>
<text class="st18" v:langid="1033" x="20.05" y="489.92">VCC</text> </g>
<g id="shape172-201" transform="translate(107.588,-343.676)" v:groupcontext="shape" v:mid="172">
<title>QSPI</title>
<desc>QSPI</desc>
<rect class="st17" height="22.648" width="61.204" x="0" y="475.592"></rect>
<text class="st18" v:langid="1033" x="18.65" y="489.92">QSPI</text> </g>
<g id="shape173-204" transform="translate(7.58827,-271.801)" v:groupcontext="shape" v:mid="173">
<title>PCIe Clock </title>
<desc>PCIe Clock</desc>
<rect class="st17" height="22.648" width="61.204" x="0" y="475.592"></rect>
<text class="st18" v:langid="1033" x="5.59" y="489.92">PCIe Clock</text> </g>
<g id="shape174-207" transform="translate(7.58827,-200.843)" v:groupcontext="shape" v:mid="174">
<title>PCIe 2</title>
<desc>PCIe</desc>
<rect class="st17" height="22.648" width="61.204" x="0" y="475.592"></rect>
<text class="st18" v:langid="1033" x="19.49" y="489.92">PCIe</text> </g>
<g id="shape177-210" transform="translate(7.58827,-148.143)" v:groupcontext="shape" v:mid="177">
<title>I2C </title>
<desc>I2C</desc>
<rect class="st17" height="22.648" width="61.204" x="0" y="475.592"></rect>
<text class="st15" v:langid="1033" x="23.11" y="490.22">I<tspan class="st9" dy="-0.235em" v:basefontsize="11">2</tspan><tspan class="st10" dy="0.153em">C</tspan></text> </g>
<g id="shape179-215" transform="translate(7.58827,-95.4437)" v:groupcontext="shape" v:mid="179">
<title>SCIF 2</title>
<desc>SCIF</desc>
<rect class="st17" height="22.648" width="61.204" x="0" y="475.592"></rect>
<text class="st15" v:langid="1033" x="18.07" y="490.22">SCIF</text> </g>
<g id="shape181-218" transform="translate(7.58827,-42.744)" v:groupcontext="shape" v:mid="181">
<title>DifRF </title>
<desc>DifRF</desc>
<rect class="st17" height="22.648" width="61.204" x="0" y="475.592"></rect>
<text class="st15" v:langid="1033" x="16.55" y="490.22">DifRF</text> </g>
<g id="shape184-221" transform="translate(107.588,-297.352)" v:groupcontext="shape" v:mid="184">
<title>MMC</title>
<desc>MMC</desc>
<rect class="st17" height="22.648" width="61.204" x="0" y="475.592"></rect>
<text class="st18" v:langid="1033" x="18.66" y="489.92">MMC</text> </g>
<g id="shape185-224" transform="translate(107.588,-174.493)" v:groupcontext="shape" v:mid="185">
<title>LVDS</title>
<desc>LVDS</desc>
<rect class="st17" height="22.648" width="61.204" x="0" y="475.592"></rect>
<text class="st18" v:langid="1033" x="17.54" y="489.92">LVDS</text> </g>
<g id="shape186-227" transform="translate(107.588,-121.794)" v:groupcontext="shape" v:mid="186">
<title>CSI2 </title>
<desc>CSI2</desc>
<rect class="st17" height="22.648" width="61.204" x="0" y="475.592"></rect>
<text class="st15" v:langid="1033" x="19.45" y="490.22">CSI<tspan class="st9" dy="-0.235em" v:basefontsize="11">2</tspan></text> </g>
<g id="shape187-231" transform="translate(107.588,-69.0939)" v:groupcontext="shape" v:mid="187">
<title>RGMII/MII</title>
<desc>RGMII/MII</desc>
<rect class="st17" height="22.648" width="61.204" x="0" y="475.592"></rect>
<text class="st15" v:langid="1033" x="5.55" y="490.22">RGMII/MII</text> </g>
<g id="shape188-234" transform="translate(107.588,-16.3942)" v:groupcontext="shape" v:mid="188">
<title>RGMII</title>
<desc>RGMII</desc>
<rect class="st17" height="22.648" width="61.204" x="0" y="475.592"></rect>
<text class="st15" v:langid="1033" x="14.71" y="490.22">RGMII</text> </g>
<g id="shape190-237" transform="translate(107.588,-386.957)" v:groupcontext="shape" v:mid="190">
<title>DBSC</title>
<desc>DBSC</desc>
<rect class="st17" height="22.648" width="61.204" x="0" y="475.592"></rect>
<text class="st18" v:langid="1033" x="16.71" y="489.92">DBSC</text> </g>
</g>
</a>
</g>
</svg>