<?xml version="1.0" encoding="UTF-8" standalone="no"?>
<!DOCTYPE svg PUBLIC "-//W3C//DTD SVG 1.1//EN" "http://www.w3.org/Graphics/SVG/1.1/DTD/svg11.dtd">
<svg class="st27" color-interpolation-filters="sRGB" height="6.66283in" viewbox="0 0 1139.84 479.724" width="15.8311in" xml:space="preserve" xmlns="http://www.w3.org/2000/svg" xmlns:ev="http://www.w3.org/2001/xml-events" xmlns:v="http://schemas.microsoft.com/visio/2003/SVGExtensions/" xmlns:xlink="http://www.w3.org/1999/xlink">
<style type="text/css">
	
		.st1 {fill:#ffffff;stroke:#000000;stroke-linecap:round;stroke-linejoin:round;stroke-width:1}
		.st2 {fill:#ffffff;font-family:Arial;font-size:0.916672em}
		.st3 {fill:none;stroke:none;stroke-linecap:round;stroke-linejoin:round;stroke-width:0.72}
		.st4 {fill:#000000;font-family:Arial;font-size:0.833336em}
		.st5 {fill:#0071b9;stroke:none;stroke-linecap:round;stroke-linejoin:round;stroke-width:0.24}
		.st6 {fill:#4ba3d3;stroke:none;stroke-linecap:round;stroke-linejoin:round;stroke-width:0.24}
		.st7 {fill:#ffffff;font-family:Arial;font-size:0.833336em}
		.st8 {marker-start:url(#mrkr4-25);stroke:#000000;stroke-width:1}
		.st9 {fill:#000000;fill-opacity:1;stroke:#000000;stroke-opacity:1;stroke-width:0.28409090909091}
		.st10 {fill:#000000;stroke:none;stroke-linecap:round;stroke-linejoin:round;stroke-width:6.375}
		.st11 {stroke:#000000;stroke-width:1}
		.st12 {marker-start:url(#mrkr5-61);stroke:#000000;stroke-linecap:round;stroke-linejoin:round;stroke-width:1}
		.st13 {fill:#000000;stroke:none;stroke-linecap:butt;stroke-width:4.25}
		.st14 {marker-end:url(#mrkr4-82);marker-start:url(#mrkr4-25);stroke:#000000;stroke-width:1}
		.st15 {marker-start:url(#mrkr4-111);stroke:#000000;stroke-width:1.25}
		.st16 {fill:#000000;fill-opacity:1;stroke:#000000;stroke-opacity:1;stroke-width:0.3315649867374}
		.st17 {fill:none}
		.st18 {stroke:#000000;stroke-linecap:butt;stroke-width:1}
		.st19 {marker-start:url(#mrkr4-25);stroke:#000000;stroke-linecap:round;stroke-linejoin:round;stroke-width:1}
		.st20 {marker-end:url(#mrkr4-82);stroke:#000000;stroke-width:1}
		.st21 {marker-end:url(#mrkr4-268);marker-start:url(#mrkr4-266);stroke:#000000;stroke-linecap:round;stroke-linejoin:round;stroke-width:3}
		.st22 {fill:#000000;fill-opacity:1;stroke:#000000;stroke-opacity:1;stroke-width:0.54347826086957}
		.st23 {fill:#ffffff;stroke:#000000;stroke-width:1}
		.st24 {font-size:1em}
		.st25 {font-size:1.1em}
		.st26 {fill:#000000;font-family:Arial;font-size:0.916672em}
		.st27 {fill:none;fill-rule:evenodd;font-size:12px;overflow:visible;stroke-linecap:square;stroke-miterlimit:3}
	
	</style>
<defs id="Markers">
<g id="lend4">
<path d="M 2 1 L 0 0 L 2 -1 L 2 1 " style="stroke:none"></path>
</g>
<marker class="st9" id="mrkr4-25" markerunits="strokeWidth" orient="auto" overflow="visible" refx="6.68" v:arrowsize="2" v:arrowtype="4" v:setback="6.68">
<use transform="scale(3.52) " xlink:href="#lend4"></use>
</marker>
<g id="lend5">
<path d="M 2 1 L 0 0 L 1.98117 -0.993387 C 1.67173 -0.364515 1.67301 0.372641 1.98465 1.00043 " style="stroke:none"></path>
</g>
<marker class="st9" id="mrkr5-61" markerunits="strokeWidth" orient="auto" overflow="visible" refx="5.8" v:arrowsize="2" v:arrowtype="5" v:setback="5.8">
<use transform="scale(3.52) " xlink:href="#lend5"></use>
</marker>
<marker class="st9" id="mrkr4-82" markerunits="strokeWidth" orient="auto" overflow="visible" refx="-7.04" v:arrowsize="2" v:arrowtype="4" v:setback="7.04">
<use transform="scale(-3.52,-3.52) " xlink:href="#lend4"></use>
</marker>
<marker class="st16" id="mrkr4-111" markerunits="strokeWidth" orient="auto" overflow="visible" refx="5.744" v:arrowsize="2" v:arrowtype="4" v:setback="5.744">
<use transform="scale(3.016) " xlink:href="#lend4"></use>
</marker>
<marker class="st22" id="mrkr4-266" markerunits="strokeWidth" orient="auto" overflow="visible" refx="3.56" v:arrowsize="2" v:arrowtype="4" v:setback="3.56">
<use transform="scale(1.84) " xlink:href="#lend4"></use>
</marker>
<marker class="st22" id="mrkr4-268" markerunits="strokeWidth" orient="auto" overflow="visible" refx="-3.68" v:arrowsize="2" v:arrowtype="4" v:setback="3.68">
<use transform="scale(-1.84,-1.84) " xlink:href="#lend4"></use>
</marker>
</defs>
<g v:groupcontext="foregroundPage" v:index="1" v:mid="19">
<title>AS244</title>
<g id="group2282-1" transform="translate(62.5569,-277.84)" v:groupcontext="group" v:mid="2282">
<title>Quad component</title>
<g id="shape2283-2" transform="translate(35.2369,8.52651E-13)" v:groupcontext="shape" v:mid="2283">
<title>Component block.751</title>
<rect class="st1" height="113.096" width="205.263" x="0" y="366.628"></rect>
</g>
<g id="shape2284-4" transform="translate(23.4913,-16.8082)" v:groupcontext="shape" v:mid="2284">
<title>Component block.747</title>
<rect class="st1" height="113.096" width="205.263" x="0" y="366.628"></rect>
</g>
<g id="shape2285-6" transform="translate(11.7456,-33.6165)" v:groupcontext="shape" v:mid="2285">
<title>Component block.748</title>
<rect class="st1" height="113.096" width="205.263" x="0" y="366.628"></rect>
</g>
<g id="shape2286-8" transform="translate(0,-50.4247)" v:groupcontext="shape" v:mid="2286">
<title>Component block.749</title>
<desc>11pt text</desc>
<rect class="st1" height="113.096" width="205.263" x="0" y="366.628"></rect>
<text class="st2" v:langid="1033" x="81.53" y="426.48">11pt text</text> </g>
</g>
<g id="shape107-11" transform="translate(1073.18,-18.36)" v:groupcontext="shape" v:mid="107">
<title>WC#</title>
<desc>AS244</desc>
<rect class="st3" height="20.0036" width="48.2996" x="0" y="459.72"></rect>
<text class="st4" v:langid="1033" x="9.14" y="472.72">AS244</text> </g>
<a data-link-id="#soc" xlink:href="#soc">
<g id="shape1682-14" transform="translate(558.029,-118.36)" v:groupcontext="shape" v:mid="1682">
<title>SoC</title>
<desc>SoC</desc>
<rect class="st5" height="240.579" width="114.791" x="0" y="239.145"></rect>
<text class="st2" v:langid="1033" x="46.7" y="257.04">SoC</text> </g>
</a>
<g id="shape1688-17" transform="translate(589.002,-148.911)" v:groupcontext="shape" v:mid="1688">
<title>Subsystem component.1688</title>
<desc>VCNN-IP</desc>
<rect class="st6" height="22.648" width="52.8448" x="0" y="457.076"></rect>
<text class="st7" v:langid="1033" x="5.87" y="471.4">VCNN-IP</text> </g>
<g id="shape1711-20" transform="translate(558.566,629.363) rotate(180)" v:groupcontext="shape" v:mid="1711">
<title>Right arrow 1pt.1711</title>
<path class="st8" d="M6.68 479.72 L7.04 479.72 L45.16 479.72"></path>
</g>
<g id="group2052-26" transform="translate(156.913,-320.228)" v:groupcontext="group" v:mid="2052">
<title>Sheet.2052</title>
</g>
<g id="group2034-27" transform="translate(77.218,-337.99)" v:groupcontext="group" v:mid="2034">
<title>Camera.325</title>
<g id="shape2035-28" v:groupcontext="shape" v:mid="2035">
<title>Sheet.2035</title>
<path class="st10" d="M25.61 460.51 C26.36 460.51 26.96 461.12 26.96 461.88 L26.96 478.35 C26.96 479.11 26.36 479.72 25.61 479.72         L1.35 479.72 C0.61 479.72 0 479.11 0 478.35 L0 461.88 C0 461.12 0.61 460.51 1.35 460.51 L8.09 460.51         L10.11 457.08 L16.85 457.08 L18.87 460.51 L25.61 460.51 ZM6.74 466 L6.74 463.25 L2.7 463.25 L2.7 466         L6.74 466 ZM13.48 476.98 C16.85 476.98 19.55 474.23 19.55 470.8 C19.55 467.37 16.85 464.62 13.48 464.62         C10.11 464.62 7.41 467.37 7.41 470.8 C7.41 474.23 10.11 476.98 13.48 476.98 Z"></path>
</g>
<g id="shape2036-30" transform="translate(8.76263,-4.11782)" v:groupcontext="shape" v:mid="2036">
<title>Sheet.2036</title>
<path class="st10" d="M4.72 479.72 C7.35 479.72 9.44 477.6 9.44 474.92 C9.44 472.24 7.35 470.12 4.72 470.12 C2.09 470.12 0 472.24         0 474.92 C0 477.6 2.09 479.72 4.72 479.72 ZM4.72 471.49 C6.61 471.49 8.09 473 8.09 474.92 C8.09 476.84         6.61 478.35 4.72 478.35 C2.83 478.35 1.35 476.84 1.35 474.92 C1.35 473 2.83 471.49 4.72 471.49 Z"></path>
</g>
</g>
<a data-link-id="#pmic-1" xlink:href="#pmic-1">
<g id="shape2055-32" transform="translate(124.18,-403.582)" v:groupcontext="shape" v:mid="2055">
<title>PMIC 1</title>
<desc>PMIC</desc>
<rect class="st5" height="33.75" width="101.25" x="0" y="445.974"></rect>
<text class="st2" v:langid="1033" x="36.88" y="466.15">PMIC</text> </g>
</a>
<a data-link-id="#ahl-tx-1" xlink:href="#ahl-tx-1">
<g id="shape2056-35" transform="translate(124.18,-332.439)" v:groupcontext="shape" v:mid="2056">
<title>AHL TX 1</title>
<desc>AHL TX</desc>
<rect class="st5" height="33.75" width="101.25" x="0" y="445.974"></rect>
<text class="st2" v:langid="1033" x="31.37" y="466.15">AHL TX</text> </g>
</a>
<g id="shape2058-38" transform="translate(-304.919,113.535) rotate(-90)" v:groupcontext="shape" v:mid="2058">
<title>Down arrow.38</title>
<path class="st8" d="M6.68 479.72 L7.04 479.72 L37.39 479.72"></path>
</g>
<g id="shape2059-43" transform="translate(121.665,538.984) rotate(-179.7)" v:groupcontext="shape" v:mid="2059">
<title>Right arrow.36</title>
<path class="st8" d="M6.68 479.72 L7.04 479.72 L75 479.72"></path>
</g>
<g id="shape2060-48" transform="translate(-430.903,408.148) rotate(-89.941)" v:groupcontext="shape" v:mid="2060">
<title>Line</title>
<path class="st11" d="M0 479.72 L349.77 479.72"></path>
</g>
<g id="shape2061-51" transform="translate(570.544,88.9369) rotate(90)" v:groupcontext="shape" v:mid="2061">
<title>Right arrow bracket.32</title>
<path class="st8" d="M23.47 479.72 L23.11 479.72 L0 479.72 L0 395.74"></path>
</g>
<g id="shape2062-56" transform="translate(124.18,610.133) rotate(180)" v:groupcontext="shape" v:mid="2062">
<title>Right arrow</title>
<path class="st12" d="M5.8 479.72 L6.16 479.72 L20 479.72"></path>
</g>
<a data-link-id="#cmic" xlink:href="#cmic">
<g id="shape2069-62" transform="translate(564.799,-399.61)" v:groupcontext="shape" v:mid="2069">
<title>CMIC</title>
<desc>CMIC</desc>
<rect class="st5" height="33.75" width="101.25" x="0" y="445.974"></rect>
<text class="st2" v:langid="1033" x="36.57" y="466.15">CMIC</text> </g>
</a>
<g id="group2080-65" transform="translate(35.6991,-54.8074)" v:groupcontext="group" v:mid="2080">
<title>Battery.230</title>
<g id="shape2081-66" transform="translate(17.4682,-16.8943)" v:groupcontext="shape" v:mid="2081">
<title>Sheet.2081</title>
<path class="st13" d="M0.74 479.72 L4.43 479.72 C4.84 479.72 5.17 479.43 5.17 479.07 L5.17 477.8 C5.17 477.08 4.51 476.49 3.69         476.49 L1.48 476.49 C0.66 476.49 0 477.08 0 477.8 L0 479.07 C0 479.43 0.33 479.72 0.74 479.72 Z"></path>
</g>
<g id="shape2082-68" transform="translate(4.32784,-16.8943)" v:groupcontext="shape" v:mid="2082">
<title>Sheet.2082</title>
<path class="st13" d="M0.74 479.72 L4.42 479.72 C4.83 479.72 5.17 479.43 5.17 479.07 L5.17 477.8 C5.17 477.08 4.5 476.49 3.68         476.49 L1.48 476.49 C0.66 476.49 0 477.08 0 477.8 L0 479.07 C0 479.43 0.33 479.72 0.74 479.72 Z"></path>
</g>
<g id="shape2083-70" transform="translate(0,-13.9784)" v:groupcontext="shape" v:mid="2083">
<title>Sheet.2083</title>
<path class="st13" d="M25.67 477.43 L1.29 477.43 C0.58 477.43 0 477.94 0 478.58 C0 479.21 0.58 479.72 1.29 479.72 L25.67 479.72         C26.38 479.72 26.96 479.21 26.96 478.58 C26.96 477.94 26.38 477.43 25.67 477.43 Z"></path>
</g>
<g id="shape2084-72" transform="translate(0.83419,-1.13687E-13)" v:groupcontext="shape" v:mid="2084">
<title>Sheet.2084</title>
<path class="st13" d="M23.46 466.51 L1.84 466.51 C0.82 466.51 0 467.24 0 468.14 L0 477.12 C0 478.56 1.31 479.72 2.93 479.72 L22.36         479.72 C23.98 479.72 25.29 478.56 25.29 477.12 L25.29 468.14 C25.29 467.24 24.47 466.51 23.46 466.51         Z"></path>
</g>
</g>
<g id="group2088-74" transform="translate(156.913,-146.122)" v:groupcontext="group" v:mid="2088">
<title>Sheet.2088</title>
</g>
<g id="shape2105-75" transform="translate(1095.15,80.1136) rotate(90)" v:groupcontext="shape" v:mid="2105">
<title>Double arrow.267</title>
<path class="st14" d="M6.68 479.72 L7.04 479.72 L34.21 479.72"></path>
</g>
<g id="shape2120-83" transform="translate(672.098,-160.235)" v:groupcontext="shape" v:mid="2120">
<title>Left arrow.51</title>
<path class="st8" d="M6.68 479.72 L7.04 479.72 L51.61 479.72"></path>
</g>
<g id="shape2121-88" transform="translate(870.361,799.212) rotate(180)" v:groupcontext="shape" v:mid="2121">
<title>Right arrow.36.2121</title>
<path class="st8" d="M6.68 479.72 L7.04 479.72 L45.4 479.72"></path>
</g>
<a data-link-id="#vsp" xlink:href="#vsp">
<g id="shape2111-93" transform="translate(871.083,-119.325)" v:groupcontext="shape" v:mid="2111">
<title>VSP</title>
<desc>VSP</desc>
<rect class="st5" height="200.099" width="52.8448" x="0" y="279.624"></rect>
<text class="st2" v:langid="1033" x="15.42" y="382.97">VSP</text> </g>
</a>
<g id="shape2125-96" transform="translate(262.548,893.246) rotate(-179.946)" v:groupcontext="shape" v:mid="2125">
<title>Right arrow.2125</title>
<path class="st8" d="M6.68 479.72 L7.04 479.72 L201.17 479.72"></path>
</g>
<g id="shape2126-101" transform="translate(412.161,893.152) rotate(180)" v:groupcontext="shape" v:mid="2126">
<title>Right arrow.2126</title>
<path class="st8" d="M6.68 479.72 L7.04 479.72 L47.91 479.72"></path>
</g>
<g id="shape2127-106" transform="translate(136.224,413.523) rotate(-90)" v:groupcontext="shape" v:mid="2127">
<title>Right arrow bracket.32.2127</title>
<path class="st15" d="M44.98 479.72 L44.62 479.72 L0 479.72 L0 377.24"></path>
</g>
<g id="shape2128-112" transform="translate(871.083,679.508) rotate(180)" v:groupcontext="shape" v:mid="2128">
<title>Right arrow.2128</title>
<path class="st8" d="M6.68 479.72 L7.04 479.72 L198.26 479.72"></path>
</g>
<g id="shape2153-117" transform="translate(18.36,-34.36)" v:groupcontext="shape" v:mid="2153">
<title>Label Text 10pt.2153</title>
<desc>12V Battery</desc>
<rect class="st3" height="20.0036" width="61.6401" x="0" y="459.72"></rect>
<text class="st4" v:langid="1033" x="4.69" y="472.72">12V Battery</text> </g>
<g id="shape2159-120" transform="translate(923.927,-209.373)" v:groupcontext="shape" v:mid="2159">
<title>Label Text 10pt.262.2159</title>
<desc>Image Separation</desc>
<rect class="st3" height="20.0036" width="101.25" x="0" y="459.72"></rect>
<text class="st4" v:langid="1033" x="11.15" y="472.72">Image Separation</text> </g>
<g id="shape2164-123" transform="translate(969.938,-303.36)" v:groupcontext="shape" v:mid="2164">
<title>Label Text 10pt.2164</title>
<desc>Scale Up</desc>
<rect class="st3" height="20.0036" width="52.6683" x="0" y="459.72"></rect>
<text class="st4" v:langid="1033" x="6.05" y="472.72">Scale Up</text> </g>
<g id="shape2169-126" transform="translate(672.82,-160.235)" v:groupcontext="shape" v:mid="2169">
<title>Label Text 10pt.2169</title>
<desc>CLK</desc>
<rect class="st3" height="20.0036" width="52.8448" x="0" y="459.72"></rect>
<text class="st4" v:langid="1033" x="16.7" y="472.72">CLK</text> </g>
<g id="shape2170-129" transform="translate(672.82,-279.939)" v:groupcontext="shape" v:mid="2170">
<title>Label Text 10pt.2170</title>
<desc>LVDS</desc>
<rect class="st3" height="20.0036" width="52.8448" x="0" y="459.72"></rect>
<text class="st4" v:langid="1033" x="13.36" y="472.72">LVDS</text> </g>
<g id="shape2177-132" transform="translate(513.784,-328.36)" v:groupcontext="shape" v:mid="2177">
<title>Label Text 10pt.2177</title>
<desc>MIPI</desc>
<rect class="st3" height="20.0036" width="44.4095" x="0" y="459.72"></rect>
<text class="st4" v:langid="1033" x="11.93" y="472.72">MIPI</text> </g>
<a data-link-id="#ahl-rx-1" xlink:href="#ahl-rx-1">
<g id="shape2068-135" transform="translate(412.161,-287.9)" v:groupcontext="shape" v:mid="2068">
<title>AHL RX 1</title>
<desc>AHL RX</desc>
<rect class="st5" height="84.3688" width="101.25" x="0" y="395.355"></rect>
<text class="st2" v:langid="1033" x="30.76" y="440.84">AHL RX</text> </g>
</a>
<g id="shape2241-138" transform="translate(969.327,799.212) rotate(180)" v:groupcontext="shape" v:mid="2241">
<title>Right arrow.2241</title>
<path class="st8" d="M6.68 479.72 L7.04 479.72 L45.4 479.72"></path>
</g>
<g id="shape2242-143" transform="translate(968.22,679.508) rotate(180)" v:groupcontext="shape" v:mid="2242">
<title>Right arrow.2242</title>
<path class="st8" d="M6.68 479.72 L7.04 479.72 L44.29 479.72"></path>
</g>
<g id="shape2246-148" transform="translate(364.25,-63.0721)" v:groupcontext="shape" v:mid="2246">
<title>Label Text 10pt.2246</title>
<desc>5V</desc>
<rect class="st3" height="20.0036" width="47.9288" x="0" y="459.72"></rect>
<text class="st4" v:langid="1033" x="17.85" y="472.72">5V</text> </g>
<g id="group2257-151" transform="translate(225.636,-339.314)" v:groupcontext="group" v:mid="2257">
<title>wireless-connectivity</title>
<g id="shape2258-152" transform="translate(93.6153,-0.0657534)" v:groupcontext="shape" v:mid="2258">
<title>Sheet.2258</title>
<path class="st17" d="M93.62 469.81 C93.62 469.81 86.53 479.72 77.99 469.77 C69.48 459.82 62.37 469.75 62.37 469.75 C62.37 469.75         55.28 479.68 46.77 469.74 C38.25 459.79 31.18 469.79 31.18 469.79 C31.18 469.79 24.12 479.72 15.58 469.77         C7.07 459.82 0 469.74 0 469.74 L93.62 469.81 Z"></path>
<path class="st18" d="M93.62 469.81 C93.62 469.81 86.53 479.72 77.99 469.77 C69.48 459.82 62.37 469.75 62.37 469.75 C62.37 469.75         55.28 479.68 46.77 469.74 C38.25 459.79 31.18 469.79 31.18 469.79 C31.18 469.79 24.12 479.72 15.58 469.77         C7.07 459.82 0 469.74 0 469.74"></path>
</g>
<g id="shape2259-155" transform="translate(93.6153,-0.0657534)" v:groupcontext="shape" v:mid="2259">
<title>Sheet.2259</title>
<path class="st17" d="M0 469.81 C0 469.81 7.09 479.72 15.62 469.77 C24.14 459.82 31.25 469.75 31.25 469.75 C31.25 469.75 38.33         479.68 46.85 469.74 C55.36 459.79 62.43 469.79 62.43 469.79 C62.43 469.79 69.5 479.72 78.03 469.77 C86.55         459.82 93.62 469.74 93.62 469.74 L0 469.81 Z"></path>
<path class="st18" d="M0 469.81 C0 469.81 7.09 479.72 15.62 469.77 C24.14 459.82 31.25 469.75 31.25 469.75 C31.25 469.75 38.33         479.68 46.85 469.74 C55.36 459.79 62.43 469.79 62.43 469.79 C62.43 469.79 69.5 479.72 78.03 469.77 C86.55         459.82 93.62 469.74 93.62 469.74"></path>
</g>
<g id="shape2260-158" v:groupcontext="shape" v:mid="2260">
<title>Sheet.2260</title>
<path class="st17" d="M93.62 469.81 C93.62 469.81 86.53 479.72 77.99 469.77 C69.48 459.82 62.37 469.75 62.37 469.75 C62.37 469.75         55.28 479.68 46.77 469.74 C38.25 459.79 31.18 469.79 31.18 469.79 C31.18 469.79 24.12 479.72 15.58 469.77         C7.07 459.82 0 469.74 0 469.74 L93.62 469.81 Z"></path>
<path class="st18" d="M93.62 469.81 C93.62 469.81 86.53 479.72 77.99 469.77 C69.48 459.82 62.37 469.75 62.37 469.75 C62.37 469.75         55.28 479.68 46.77 469.74 C38.25 459.79 31.18 469.79 31.18 469.79 C31.18 469.79 24.12 479.72 15.58 469.77         C7.07 459.82 0 469.74 0 469.74"></path>
</g>
<g id="shape2261-161" v:groupcontext="shape" v:mid="2261">
<title>Sheet.2261</title>
<path class="st17" d="M0 469.81 C0 469.81 7.09 479.72 15.62 469.77 C24.14 459.82 31.25 469.75 31.25 469.75 C31.25 469.75 38.33         479.68 46.85 469.74 C55.36 459.79 62.43 469.79 62.43 469.79 C62.43 469.79 69.5 479.72 78.03 469.77 C86.55         459.82 93.62 469.74 93.62 469.74 L0 469.81 Z"></path>
<path class="st18" d="M0 469.81 C0 469.81 7.09 479.72 15.62 469.77 C24.14 459.82 31.25 469.75 31.25 469.75 C31.25 469.75 38.33         479.68 46.85 469.74 C55.36 459.79 62.43 469.79 62.43 469.79 C62.43 469.79 69.5 479.72 78.03 469.77 C86.55         459.82 93.62 469.74 93.62 469.74"></path>
</g>
</g>
<g id="group2262-164" transform="translate(269.259,-326.218)" v:groupcontext="group" v:mid="2262">
<title>wireless-connectivity.2262</title>
<g id="shape2263-165" transform="translate(71.8037,-0.0657534)" v:groupcontext="shape" v:mid="2263">
<title>Sheet.2263</title>
<path class="st17" d="M71.8 469.81 C71.8 469.81 66.37 479.72 59.82 469.77 C53.29 459.82 47.84 469.75 47.84 469.75 C47.84 469.75         42.4 479.68 35.87 469.74 C29.34 459.79 23.92 469.79 23.92 469.79 C23.92 469.79 18.5 479.72 11.95 469.77         C5.42 459.82 0 469.74 0 469.74 L71.8 469.81 Z"></path>
<path class="st18" d="M71.8 469.81 C71.8 469.81 66.37 479.72 59.82 469.77 C53.29 459.82 47.84 469.75 47.84 469.75 C47.84 469.75         42.4 479.68 35.87 469.74 C29.34 459.79 23.92 469.79 23.92 469.79 C23.92 469.79 18.5 479.72 11.95 469.77         C5.42 459.82 0 469.74 0 469.74"></path>
</g>
<g id="shape2264-168" transform="translate(71.8037,-0.0657534)" v:groupcontext="shape" v:mid="2264">
<title>Sheet.2264</title>
<path class="st17" d="M0 469.81 C0 469.81 5.44 479.72 11.98 469.77 C18.51 459.82 23.97 469.75 23.97 469.75 C23.97 469.75 29.4         479.68 35.93 469.74 C42.46 459.79 47.88 469.79 47.88 469.79 C47.88 469.79 53.3 479.72 59.85 469.77 C66.38         459.82 71.8 469.74 71.8 469.74 L0 469.81 Z"></path>
<path class="st18" d="M0 469.81 C0 469.81 5.44 479.72 11.98 469.77 C18.51 459.82 23.97 469.75 23.97 469.75 C23.97 469.75 29.4         479.68 35.93 469.74 C42.46 459.79 47.88 469.79 47.88 469.79 C47.88 469.79 53.3 479.72 59.85 469.77 C66.38         459.82 71.8 469.74 71.8 469.74"></path>
</g>
<g id="shape2265-171" v:groupcontext="shape" v:mid="2265">
<title>Sheet.2265</title>
<path class="st17" d="M71.8 469.81 C71.8 469.81 66.37 479.72 59.82 469.77 C53.29 459.82 47.84 469.75 47.84 469.75 C47.84 469.75         42.4 479.68 35.87 469.74 C29.34 459.79 23.92 469.79 23.92 469.79 C23.92 469.79 18.5 479.72 11.95 469.77         C5.42 459.82 0 469.74 0 469.74 L71.8 469.81 Z"></path>
<path class="st18" d="M71.8 469.81 C71.8 469.81 66.37 479.72 59.82 469.77 C53.29 459.82 47.84 469.75 47.84 469.75 C47.84 469.75         42.4 479.68 35.87 469.74 C29.34 459.79 23.92 469.79 23.92 469.79 C23.92 469.79 18.5 479.72 11.95 469.77         C5.42 459.82 0 469.74 0 469.74"></path>
</g>
<g id="shape2266-174" v:groupcontext="shape" v:mid="2266">
<title>Sheet.2266</title>
<path class="st17" d="M0 469.81 C0 469.81 5.44 479.72 11.98 469.77 C18.51 459.82 23.97 469.75 23.97 469.75 C23.97 469.75 29.4         479.68 35.93 469.74 C42.46 459.79 47.88 469.79 47.88 469.79 C47.88 469.79 53.3 479.72 59.85 469.77 C66.38         459.82 71.8 469.74 71.8 469.74 L0 469.81 Z"></path>
<path class="st18" d="M0 469.81 C0 469.81 5.44 479.72 11.98 469.77 C18.51 459.82 23.97 469.75 23.97 469.75 C23.97 469.75 29.4         479.68 35.93 469.74 C42.46 459.79 47.88 469.79 47.88 469.79 C47.88 469.79 53.3 479.72 59.85 469.77 C66.38         459.82 71.8 469.74 71.8 469.74"></path>
</g>
</g>
<g id="group2267-177" transform="translate(282.496,-313.123)" v:groupcontext="group" v:mid="2267">
<title>wireless-connectivity.2267</title>
<g id="shape2268-178" transform="translate(65.2523,-0.0657534)" v:groupcontext="shape" v:mid="2268">
<title>Sheet.2268</title>
<path class="st17" d="M65.25 469.81 C65.25 469.81 60.31 479.72 54.36 469.77 C48.43 459.82 43.47 469.75 43.47 469.75 C43.47 469.75         38.53 479.68 32.6 469.74 C26.66 459.79 21.74 469.79 21.74 469.79 C21.74 469.79 16.81 479.72 10.86 469.77         C4.93 459.82 0 469.74 0 469.74 L65.25 469.81 Z"></path>
<path class="st18" d="M65.25 469.81 C65.25 469.81 60.31 479.72 54.36 469.77 C48.43 459.82 43.47 469.75 43.47 469.75 C43.47 469.75         38.53 479.68 32.6 469.74 C26.66 459.79 21.74 469.79 21.74 469.79 C21.74 469.79 16.81 479.72 10.86 469.77         C4.93 459.82 0 469.74 0 469.74"></path>
</g>
<g id="shape2269-181" transform="translate(65.2523,-0.0657534)" v:groupcontext="shape" v:mid="2269">
<title>Sheet.2269</title>
<path class="st17" d="M0 469.81 C0 469.81 4.94 479.72 10.89 469.77 C16.83 459.82 21.78 469.75 21.78 469.75 C21.78 469.75 26.72         479.68 32.65 469.74 C38.59 459.79 43.52 469.79 43.52 469.79 C43.52 469.79 48.44 479.72 54.39 469.77         C60.33 459.82 65.25 469.74 65.25 469.74 L0 469.81 Z"></path>
<path class="st18" d="M0 469.81 C0 469.81 4.94 479.72 10.89 469.77 C16.83 459.82 21.78 469.75 21.78 469.75 C21.78 469.75 26.72         479.68 32.65 469.74 C38.59 459.79 43.52 469.79 43.52 469.79 C43.52 469.79 48.44 479.72 54.39 469.77         C60.33 459.82 65.25 469.74 65.25 469.74"></path>
</g>
<g id="shape2270-184" v:groupcontext="shape" v:mid="2270">
<title>Sheet.2270</title>
<path class="st17" d="M65.25 469.81 C65.25 469.81 60.31 479.72 54.36 469.77 C48.43 459.82 43.47 469.75 43.47 469.75 C43.47 469.75         38.53 479.68 32.6 469.74 C26.66 459.79 21.74 469.79 21.74 469.79 C21.74 469.79 16.81 479.72 10.86 469.77         C4.93 459.82 0 469.74 0 469.74 L65.25 469.81 Z"></path>
<path class="st18" d="M65.25 469.81 C65.25 469.81 60.31 479.72 54.36 469.77 C48.43 459.82 43.47 469.75 43.47 469.75 C43.47 469.75         38.53 479.68 32.6 469.74 C26.66 459.79 21.74 469.79 21.74 469.79 C21.74 469.79 16.81 479.72 10.86 469.77         C4.93 459.82 0 469.74 0 469.74"></path>
</g>
<g id="shape2271-187" v:groupcontext="shape" v:mid="2271">
<title>Sheet.2271</title>
<path class="st17" d="M0 469.81 C0 469.81 4.94 479.72 10.89 469.77 C16.83 459.82 21.78 469.75 21.78 469.75 C21.78 469.75 26.72         479.68 32.65 469.74 C38.59 459.79 43.52 469.79 43.52 469.79 C43.52 469.79 48.44 479.72 54.39 469.77         C60.33 459.82 65.25 469.74 65.25 469.74 L0 469.81 Z"></path>
<path class="st18" d="M0 469.81 C0 469.81 4.94 479.72 10.89 469.77 C16.83 459.82 21.78 469.75 21.78 469.75 C21.78 469.75 26.72         479.68 32.65 469.74 C38.59 459.79 43.52 469.79 43.52 469.79 C43.52 469.79 48.44 479.72 54.39 469.77         C60.33 459.82 65.25 469.74 65.25 469.74"></path>
</g>
</g>
<g id="group2272-190" transform="translate(293.664,-300.027)" v:groupcontext="group" v:mid="2272">
<title>wireless-connectivity.2272</title>
<g id="shape2273-191" transform="translate(59.6681,-0.0657534)" v:groupcontext="shape" v:mid="2273">
<title>Sheet.2273</title>
<path class="st17" d="M59.67 469.81 C59.67 469.81 55.15 479.72 49.71 469.77 C44.28 459.82 39.75 469.75 39.75 469.75 C39.75 469.75         35.24 479.68 29.81 469.74 C24.38 459.79 19.88 469.79 19.88 469.79 C19.88 469.79 15.37 479.72 9.93 469.77         C4.5 459.82 0 469.74 0 469.74 L59.67 469.81 Z"></path>
<path class="st18" d="M59.67 469.81 C59.67 469.81 55.15 479.72 49.71 469.77 C44.28 459.82 39.75 469.75 39.75 469.75 C39.75 469.75         35.24 479.68 29.81 469.74 C24.38 459.79 19.88 469.79 19.88 469.79 C19.88 469.79 15.37 479.72 9.93 469.77         C4.5 459.82 0 469.74 0 469.74"></path>
</g>
<g id="shape2274-194" transform="translate(59.6681,-0.0657534)" v:groupcontext="shape" v:mid="2274">
<title>Sheet.2274</title>
<path class="st17" d="M0 469.81 C0 469.81 4.52 479.72 9.96 469.77 C15.39 459.82 19.92 469.75 19.92 469.75 C19.92 469.75 24.43         479.68 29.86 469.74 C35.29 459.79 39.79 469.79 39.79 469.79 C39.79 469.79 44.3 479.72 49.74 469.77 C55.16         459.82 59.67 469.74 59.67 469.74 L0 469.81 Z"></path>
<path class="st18" d="M0 469.81 C0 469.81 4.52 479.72 9.96 469.77 C15.39 459.82 19.92 469.75 19.92 469.75 C19.92 469.75 24.43         479.68 29.86 469.74 C35.29 459.79 39.79 469.79 39.79 469.79 C39.79 469.79 44.3 479.72 49.74 469.77 C55.16         459.82 59.67 469.74 59.67 469.74"></path>
</g>
<g id="shape2275-197" v:groupcontext="shape" v:mid="2275">
<title>Sheet.2275</title>
<path class="st17" d="M59.67 469.81 C59.67 469.81 55.15 479.72 49.71 469.77 C44.28 459.82 39.75 469.75 39.75 469.75 C39.75 469.75         35.24 479.68 29.81 469.74 C24.38 459.79 19.88 469.79 19.88 469.79 C19.88 469.79 15.37 479.72 9.93 469.77         C4.5 459.82 0 469.74 0 469.74 L59.67 469.81 Z"></path>
<path class="st18" d="M59.67 469.81 C59.67 469.81 55.15 479.72 49.71 469.77 C44.28 459.82 39.75 469.75 39.75 469.75 C39.75 469.75         35.24 479.68 29.81 469.74 C24.38 459.79 19.88 469.79 19.88 469.79 C19.88 469.79 15.37 479.72 9.93 469.77         C4.5 459.82 0 469.74 0 469.74"></path>
</g>
<g id="shape2276-200" v:groupcontext="shape" v:mid="2276">
<title>Sheet.2276</title>
<path class="st17" d="M0 469.81 C0 469.81 4.52 479.72 9.96 469.77 C15.39 459.82 19.92 469.75 19.92 469.75 C19.92 469.75 24.43         479.68 29.86 469.74 C35.29 459.79 39.79 469.79 39.79 469.79 C39.79 469.79 44.3 479.72 49.74 469.77 C55.16         459.82 59.67 469.74 59.67 469.74 L0 469.81 Z"></path>
<path class="st18" d="M0 469.81 C0 469.81 4.52 479.72 9.96 469.77 C15.39 459.82 19.92 469.75 19.92 469.75 C19.92 469.75 24.43         479.68 29.86 469.74 C35.29 459.79 39.79 469.79 39.79 469.79 C39.79 469.79 44.3 479.72 49.74 469.77 C55.16         459.82 59.67 469.74 59.67 469.74"></path>
</g>
</g>
<g id="shape2317-203" transform="translate(62.5569,-138.36)" v:groupcontext="shape" v:mid="2317">
<title>Component block.749</title>
<desc>11pt text</desc>
<rect class="st1" height="117.039" width="205.263" x="0" y="362.685"></rect>
<text class="st2" v:langid="1033" x="81.53" y="424.5">11pt text</text> </g>
<g id="shape2318-206" transform="translate(558,799.212) rotate(180)" v:groupcontext="shape" v:mid="2318">
<title>Right arrow 1pt.2318</title>
<path class="st8" d="M6.68 479.72 L7.04 479.72 L50.39 479.72"></path>
</g>
<g id="group2332-211" transform="translate(225.636,-150.235)" v:groupcontext="group" v:mid="2332">
<title>wireless-connectivity.2332</title>
<g id="shape2333-212" transform="translate(93.2624,-0.0657534)" v:groupcontext="shape" v:mid="2333">
<title>Sheet.2333</title>
<path class="st17" d="M93.26 469.81 C93.26 469.81 86.2 479.72 77.7 469.77 C69.21 459.82 62.13 469.75 62.13 469.75 C62.13 469.75         55.07 479.68 46.59 469.74 C38.11 459.79 31.07 469.79 31.07 469.79 C31.07 469.79 24.03 479.72 15.52 469.77         C7.04 459.82 0 469.74 0 469.74 L93.26 469.81 Z"></path>
<path class="st18" d="M93.26 469.81 C93.26 469.81 86.2 479.72 77.7 469.77 C69.21 459.82 62.13 469.75 62.13 469.75 C62.13 469.75         55.07 479.68 46.59 469.74 C38.11 459.79 31.07 469.79 31.07 469.79 C31.07 469.79 24.03 479.72 15.52 469.77         C7.04 459.82 0 469.74 0 469.74"></path>
</g>
<g id="shape2334-215" transform="translate(93.2624,-0.0657534)" v:groupcontext="shape" v:mid="2334">
<title>Sheet.2334</title>
<path class="st17" d="M0 469.81 C0 469.81 7.06 479.72 15.56 469.77 C24.05 459.82 31.13 469.75 31.13 469.75 C31.13 469.75 38.19         479.68 46.67 469.74 C55.16 459.79 62.2 469.79 62.2 469.79 C62.2 469.79 69.23 479.72 77.74 469.77 C86.22         459.82 93.26 469.74 93.26 469.74 L0 469.81 Z"></path>
<path class="st18" d="M0 469.81 C0 469.81 7.06 479.72 15.56 469.77 C24.05 459.82 31.13 469.75 31.13 469.75 C31.13 469.75 38.19         479.68 46.67 469.74 C55.16 459.79 62.2 469.79 62.2 469.79 C62.2 469.79 69.23 479.72 77.74 469.77 C86.22         459.82 93.26 469.74 93.26 469.74"></path>
</g>
<g id="shape2335-218" v:groupcontext="shape" v:mid="2335">
<title>Sheet.2335</title>
<path class="st17" d="M93.26 469.81 C93.26 469.81 86.2 479.72 77.7 469.77 C69.21 459.82 62.13 469.75 62.13 469.75 C62.13 469.75         55.07 479.68 46.59 469.74 C38.11 459.79 31.07 469.79 31.07 469.79 C31.07 469.79 24.03 479.72 15.52 469.77         C7.04 459.82 0 469.74 0 469.74 L93.26 469.81 Z"></path>
<path class="st18" d="M93.26 469.81 C93.26 469.81 86.2 479.72 77.7 469.77 C69.21 459.82 62.13 469.75 62.13 469.75 C62.13 469.75         55.07 479.68 46.59 469.74 C38.11 459.79 31.07 469.79 31.07 469.79 C31.07 469.79 24.03 479.72 15.52 469.77         C7.04 459.82 0 469.74 0 469.74"></path>
</g>
<g id="shape2336-221" v:groupcontext="shape" v:mid="2336">
<title>Sheet.2336</title>
<path class="st17" d="M0 469.81 C0 469.81 7.06 479.72 15.56 469.77 C24.05 459.82 31.13 469.75 31.13 469.75 C31.13 469.75 38.19         479.68 46.67 469.74 C55.16 459.79 62.2 469.79 62.2 469.79 C62.2 469.79 69.23 479.72 77.74 469.77 C86.22         459.82 93.26 469.74 93.26 469.74 L0 469.81 Z"></path>
<path class="st18" d="M0 469.81 C0 469.81 7.06 479.72 15.56 469.77 C24.05 459.82 31.13 469.75 31.13 469.75 C31.13 469.75 38.19         479.68 46.67 469.74 C55.16 459.79 62.2 469.79 62.2 469.79 C62.2 469.79 69.23 479.72 77.74 469.77 C86.22         459.82 93.26 469.74 93.26 469.74"></path>
</g>
</g>
<a data-link-id="#ahl-rx-2" xlink:href="#ahl-rx-2">
<g id="shape2329-224" transform="translate(412.161,-118.051)" v:groupcontext="shape" v:mid="2329">
<title>AHL RX 2</title>
<desc>AHL RX</desc>
<rect class="st5" height="84.3688" width="101.25" x="0" y="395.355"></rect>
<text class="st2" v:langid="1033" x="30.76" y="440.84">AHL RX</text> </g>
</a>
<g id="group2319-227" transform="translate(156.913,-132.31)" v:groupcontext="group" v:mid="2319">
<title>Sheet.2319</title>
</g>
<g id="group2320-228" transform="translate(77.218,-148.911)" v:groupcontext="group" v:mid="2320">
<title>Camera.2320</title>
<g id="shape2321-229" v:groupcontext="shape" v:mid="2321">
<title>Sheet.2321</title>
<path class="st10" d="M25.61 460.51 C26.36 460.51 26.96 461.12 26.96 461.88 L26.96 478.35 C26.96 479.11 26.36 479.72 25.61 479.72         L1.35 479.72 C0.61 479.72 0 479.11 0 478.35 L0 461.88 C0 461.12 0.61 460.51 1.35 460.51 L8.09 460.51         L10.11 457.08 L16.85 457.08 L18.87 460.51 L25.61 460.51 ZM6.74 466 L6.74 463.25 L2.7 463.25 L2.7 466         L6.74 466 ZM13.48 476.98 C16.85 476.98 19.55 474.23 19.55 470.8 C19.55 467.37 16.85 464.62 13.48 464.62         C10.11 464.62 7.41 467.37 7.41 470.8 C7.41 474.23 10.11 476.98 13.48 476.98 Z"></path>
</g>
<g id="shape2322-231" transform="translate(8.76263,-4.11782)" v:groupcontext="shape" v:mid="2322">
<title>Sheet.2322</title>
<path class="st10" d="M4.72 479.72 C7.35 479.72 9.44 477.6 9.44 474.92 C9.44 472.24 7.35 470.12 4.72 470.12 C2.09 470.12 0 472.24         0 474.92 C0 477.6 2.09 479.72 4.72 479.72 ZM4.72 471.49 C6.61 471.49 8.09 473 8.09 474.92 C8.09 476.84         6.61 478.35 4.72 478.35 C2.83 478.35 1.35 476.84 1.35 474.92 C1.35 473 2.83 471.49 4.72 471.49 Z"></path>
</g>
</g>
<a data-link-id="#pmic-2" xlink:href="#pmic-2">
<g id="shape2323-233" transform="translate(124.18,-216.424)" v:groupcontext="shape" v:mid="2323">
<title>PMIC 2</title>
<desc>PMIC</desc>
<rect class="st5" height="33.75" width="101.25" x="0" y="445.974"></rect>
<text class="st2" v:langid="1033" x="36.88" y="466.15">PMIC</text> </g>
</a>
<a data-link-id="#ahl-tx-2" xlink:href="#ahl-tx-2">
<g id="shape2324-236" transform="translate(124.18,-143.36)" v:groupcontext="shape" v:mid="2324">
<title>AHL TX 2</title>
<desc>AHL TX</desc>
<rect class="st5" height="33.75" width="101.25" x="0" y="445.974"></rect>
<text class="st2" v:langid="1033" x="31.37" y="466.15">AHL TX</text> </g>
</a>
<g id="shape2325-239" transform="translate(-304.919,302.614) rotate(-90)" v:groupcontext="shape" v:mid="2325">
<title>Down arrow.2325</title>
<path class="st8" d="M6.68 479.72 L7.04 479.72 L39.31 479.72"></path>
</g>
<g id="shape2327-244" transform="translate(570.544,278.376) rotate(90)" v:groupcontext="shape" v:mid="2327">
<title>Right arrow bracket.2327</title>
<path class="st8" d="M23.47 479.72 L23.11 479.72 L0 479.72 L0 395.72"></path>
</g>
<g id="shape2328-249" transform="translate(124.18,799.212) rotate(180)" v:groupcontext="shape" v:mid="2328">
<title>Right arrow.2328</title>
<path class="st19" d="M6.68 479.72 L7.04 479.72 L20 479.72"></path>
</g>
<g id="shape2362-254" transform="translate(48.9883,-220.799)" v:groupcontext="shape" v:layermember="3" v:mid="2362">
<title>Connector Arrow</title>
<path class="st20" d="M0 467.27 L0 467.17 L68.15 467.17"></path>
</g>
<g id="group2376-259" transform="translate(969.938,-229.376)" v:groupcontext="group" v:mid="2376">
<title>Sheet.2376</title>
<g id="shape2150-260" transform="translate(507.324,405.74) rotate(90)" v:groupcontext="shape" v:mid="2150">
<title>Double arrow.2150</title>
<path class="st21" d="M10.68 479.72 L11.04 479.72 L34.33 479.72"></path>
</g>
<g id="shape2166-269" transform="translate(136.013,938.444) rotate(180)" v:groupcontext="shape" v:mid="2166">
<title>Double arrow.2166</title>
<path class="st21" d="M10.68 479.72 L11.04 479.72 L89.1 479.72"></path>
</g>
<g id="shape2367-276" transform="translate(6.39488E-14,-36)" v:groupcontext="shape" v:mid="2367">
<title>Label Text 10pt.262.2367</title>
<desc>900</desc>
<rect class="st3" height="27" width="28.4448" x="0" y="452.724"></rect>
<text class="st4" v:langid="1033" x="5.88" y="469.22">900</text> </g>
<g id="shape2368-279" transform="translate(43.6224,-1)" v:groupcontext="shape" v:mid="2368">
<title>Label Text 10pt.2368</title>
<desc>1024</desc>
<rect class="st3" height="20.0036" width="83.0331" x="0" y="459.72"></rect>
<text class="st4" v:langid="1033" x="30.39" y="472.72">1024</text> </g>
<g id="shape2369-282" transform="translate(35.5974,-29.414)" v:groupcontext="shape" v:mid="2369">
<title>Non-Renesas Component.297</title>
<desc>Main Display (Surround View)</desc>
<rect class="st23" height="43.586" width="100.405" x="0" y="436.138"></rect>
<text class="st4" v:langid="1033" x="21.58" y="453.83">Main Display<tspan class="st24" dy="1.39em" x="14.08">(Surround View)</tspan></text> </g>
</g>
<g id="group2383-286" transform="translate(970.049,-109.376)" v:groupcontext="group" v:mid="2383">
<title>Sheet.2383</title>
<g id="shape2384-287" transform="translate(507.324,405.74) rotate(90)" v:groupcontext="shape" v:mid="2384">
<title>Double arrow.2150</title>
<path class="st21" d="M10.68 479.72 L11.04 479.72 L34.33 479.72"></path>
</g>
<g id="shape2385-294" transform="translate(136.013,938.46) rotate(180)" v:groupcontext="shape" v:mid="2385">
<title>Double arrow.2166</title>
<path class="st21" d="M10.68 479.72 L11.04 479.72 L89.1 479.72"></path>
</g>
<g id="shape2386-301" transform="translate(6.39488E-14,-36)" v:groupcontext="shape" v:mid="2386">
<title>Label Text 10pt.2367</title>
<desc>600</desc>
<rect class="st3" height="27" width="28.4448" x="0" y="452.724"></rect>
<text class="st4" v:langid="1033" x="5.88" y="469.22">600</text> </g>
<g id="shape2387-304" transform="translate(43.6224,-0.983708)" v:groupcontext="shape" v:mid="2387">
<title>Label Text 10pt.2368</title>
<desc>800</desc>
<rect class="st3" height="20.0036" width="83.0331" x="0" y="459.72"></rect>
<text class="st4" v:langid="1033" x="33.17" y="472.72">800</text> </g>
<g id="shape2388-307" transform="translate(35.5974,-29.414)" v:groupcontext="shape" v:mid="2388">
<title>Non-Renesas Component.297</title>
<desc>Sub Display AR-HUD</desc>
<rect class="st23" height="43.586" width="100.405" x="0" y="436.138"></rect>
<text class="st4" v:langid="1033" x="23.52" y="453.83">Sub Display<tspan class="st25" dy="1.264em" x="28.81">AR</tspan><tspan class="st25">-</tspan><tspan class="st25">HUD</tspan></text> </g>
</g>
<a data-link-id="#clock-generator" xlink:href="#clock-generator">
<g id="shape2389-313" transform="translate(723.711,-143.36)" v:groupcontext="shape" v:mid="2389">
<title>Clock Generator</title>
<desc>Clock Generator</desc>
<rect class="st5" height="33.75" width="101.25" x="0" y="445.974"></rect>
<text class="st2" v:langid="1033" x="10.58" y="466.15">Clock Generator</text> </g>
</a>
<g id="shape2392-316" transform="translate(62.5569,-441.36)" v:groupcontext="shape" v:mid="2392">
<title>Label Text 10pt.262.2392</title>
<desc>Cameras</desc>
<rect class="st3" height="20.0036" width="72" x="0" y="459.72"></rect>
<text class="st4" v:langid="1033" x="15.72" y="472.72">Cameras</text> </g>
<g id="shape2393-319" transform="translate(262.982,-49.4206)" v:groupcontext="shape" v:mid="2393">
<title>Non-Renesas Component.297</title>
<desc>DC/DC</desc>
<rect class="st23" height="33.75" width="101.25" x="0" y="445.974"></rect>
<text class="st26" v:langid="1033" x="33.21" y="466.15">DC/DC</text> </g>
<g id="shape2395-322" transform="translate(412.197,-49.4206)" v:groupcontext="shape" v:mid="2395">
<title>Non-Renesas Component.2395</title>
<desc>PMIC</desc>
<rect class="st23" height="33.75" width="101.25" x="0" y="445.974"></rect>
<text class="st26" v:langid="1033" x="36.88" y="466.15">PMIC</text> </g>
</g>
</svg>