<?xml version="1.0" encoding="UTF-8" standalone="no"?>
<!DOCTYPE svg PUBLIC "-//W3C//DTD SVG 1.1//EN" "http://www.w3.org/Graphics/SVG/1.1/DTD/svg11.dtd">
<svg class="st37" color-interpolation-filters="sRGB" height="6.25in" viewbox="0 0 900 450" width="12.5in" xml:space="preserve" xmlns="http://www.w3.org/2000/svg" xmlns:ev="http://www.w3.org/2001/xml-events" xmlns:v="http://schemas.microsoft.com/visio/2003/SVGExtensions/" xmlns:xlink="http://www.w3.org/1999/xlink">
<style type="text/css">
	
		.st1 {fill:none;stroke:#000000;stroke-dasharray:7,5;stroke-width:1}
		.st2 {fill:#000000;font-family:Arial;font-size:0.916672em}
		.st3 {fill:#dbeef3;stroke:none;stroke-linecap:round;stroke-linejoin:round;stroke-width:0.75}
		.st4 {fill:none;stroke:none;stroke-linecap:round;stroke-linejoin:round;stroke-width:0.72}
		.st5 {fill:#000000;font-family:Arial;font-size:0.833336em}
		.st6 {fill:none;stroke:#000000;stroke-width:1}
		.st7 {fill:#0071b9;stroke:none;stroke-linecap:round;stroke-linejoin:round;stroke-width:0.24}
		.st8 {fill:#ffffff;font-family:Arial;font-size:0.916672em}
		.st9 {font-size:1em}
		.st10 {stroke:#000000;stroke-width:1}
		.st11 {marker-end:url(#mrkr4-56);stroke:#000000;stroke-width:1}
		.st12 {fill:#000000;fill-opacity:1;stroke:#000000;stroke-opacity:1;stroke-width:0.28409090909091}
		.st13 {marker-start:url(#mrkr4-65);stroke:#000000;stroke-width:1}
		.st14 {fill:#0071b9;stroke:#000000;stroke-dasharray:7,5;stroke-width:1}
		.st15 {fill:none;stroke:#000000;stroke-linecap:round;stroke-linejoin:round;stroke-width:1}
		.st16 {fill:#ffffff;stroke:#000000;stroke-width:1}
		.st17 {fill:#000000;stroke:none;stroke-linecap:butt;stroke-width:0.75}
		.st18 {fill:#ffffff;stroke:#010101;stroke-linecap:butt;stroke-width:1}
		.st19 {fill:none}
		.st20 {stroke:#010101;stroke-linecap:butt;stroke-width:1}
		.st21 {fill:none;stroke:none;stroke-linecap:butt;stroke-width:0.75}
		.st22 {fill:#3d3d3c;font-family:Arial;font-size:0.666664em}
		.st23 {fill:#ffffff;stroke:none;stroke-linecap:butt;stroke-width:0.75}
		.st24 {fill:#000000;stroke:none;stroke-linecap:butt;stroke-width:0.51}
		.st25 {stroke:#000000;stroke-linecap:round;stroke-linejoin:round;stroke-width:0.75}
		.st26 {fill:none;stroke:#000000;stroke-dasharray:5.25,3.75;stroke-linecap:round;stroke-linejoin:round;stroke-width:0.75}
		.st27 {marker-end:url(#mrkr4-56);marker-start:url(#mrkr4-65);stroke:#000000;stroke-width:1}
		.st28 {marker-end:url(#mrkr4-395);stroke:#000000;stroke-linecap:round;stroke-linejoin:round;stroke-width:0.75}
		.st29 {fill:#000000;fill-opacity:1;stroke:#000000;stroke-opacity:1;stroke-width:0.22935779816514}
		.st30 {fill:#000000;font-family:Arial;font-size:0.833336em;font-style:italic}
		.st31 {fill:#000000;stroke:none;stroke-linecap:round;stroke-linejoin:round;stroke-width:0.75}
		.st32 {fill:#000000;stroke:none;stroke-linecap:butt;stroke-width:1.19934}
		.st33 {fill:#000000;stroke:#000000;stroke-width:0.5}
		.st34 {fill:#4ba3d3;stroke:none;stroke-linecap:round;stroke-linejoin:round;stroke-width:0.24}
		.st35 {fill:#ffffff;font-family:Arial;font-size:0.833336em}
		.st36 {baseline-shift:32.4947%;font-size:0.649894em}
		.st37 {fill:none;fill-rule:evenodd;font-size:12px;overflow:visible;stroke-linecap:square;stroke-miterlimit:3}
	
	</style>
<defs id="Markers">
<g id="lend4">
<path d="M 2 1 L 0 0 L 2 -1 L 2 1 " style="stroke:none"></path>
</g>
<marker class="st12" id="mrkr4-56" markerunits="strokeWidth" orient="auto" overflow="visible" refx="-7.04" v:arrowsize="2" v:arrowtype="4" v:setback="7.04">
<use transform="scale(-3.52,-3.52) " xlink:href="#lend4"></use>
</marker>
<marker class="st12" id="mrkr4-65" markerunits="strokeWidth" orient="auto" overflow="visible" refx="6.68" v:arrowsize="2" v:arrowtype="4" v:setback="6.68">
<use transform="scale(3.52) " xlink:href="#lend4"></use>
</marker>
<marker class="st29" id="mrkr4-395" markerunits="strokeWidth" orient="auto" overflow="visible" refx="-8.72" v:arrowsize="2" v:arrowtype="4" v:setback="8.72">
<use transform="scale(-4.36,-4.36) " xlink:href="#lend4"></use>
</marker>
</defs>
<g v:groupcontext="foregroundPage" v:index="1" v:mid="8">
<title>4:3 ratio</title>
<g id="shape27-1" transform="translate(35.4251,-244.375)" v:groupcontext="shape" v:mid="27">
<title>Option B: Stationary Equipment</title>
<desc>Option B: Stationary Equipment</desc>
<path class="st1" d="M0 450 L261.25 450 L261.25 373.12 L0 373.12 L0 450 Z"></path>
<text class="st2" v:langid="1033" x="4" y="387.03">Option B: Stationary Equipment</text> </g>
<g display="none" id="shape1-4" transform="translate(2.55795E-13,2.68221E-05)" v:groupcontext="shape" v:layermember="3" v:mid="1">
<title>Sheet.1</title>
<rect class="st3" height="675" width="9" x="0" y="-225"></rect>
</g>
<g display="none" id="shape2-6" transform="translate(891,2.68221E-05)" v:groupcontext="shape" v:layermember="3" v:mid="2">
<title>Sheet.2</title>
<rect class="st3" height="675" width="9" x="0" y="-225"></rect>
</g>
<g display="none" id="shape3-8" transform="translate(450,-216) rotate(-90)" v:groupcontext="shape" v:layermember="3" v:mid="3">
<title>Sheet.3</title>
<rect class="st3" height="900" width="9" x="0" y="-450"></rect>
</g>
<g display="none" id="shape4-10" transform="translate(450,450) rotate(-90)" v:groupcontext="shape" v:layermember="3" v:mid="4">
<title>Sheet.4</title>
<rect class="st3" height="900" width="9" x="0" y="-450"></rect>
</g>
<g id="shape5-12" transform="translate(830,-10)" v:groupcontext="shape" v:mid="5">
<title>JP208</title>
<desc>JP208</desc>
<rect class="st4" height="20.0036" width="48.2996" x="0" y="429.996"></rect>
<text class="st5" v:langid="1033" x="15.94" y="443">JP208</text> </g>
<g id="shape7-15" transform="translate(35.4251,-335)" v:groupcontext="shape" v:mid="7">
<title>Option A: Portable Equipment</title>
<desc>Option A: Portable Equipment</desc>
<rect class="st6" height="85" width="261.25" x="0" y="365"></rect>
<text class="st2" v:langid="1033" x="4" y="378.9">Option A: Portable Equipment</text> </g>
<a data-link-id="#buck-boost-regulator" xlink:href="#buck-boost-regulator">
<g id="shape8-18" transform="translate(145.425,-364.687)" v:groupcontext="shape" v:mid="8">
<title>Buck-Boost Regulator</title>
<desc>Buck-Boost Regulator</desc>
<rect class="st7" height="33.75" width="101.25" x="0" y="416.25"></rect>
<text class="st8" v:langid="1033" x="22.5" y="429.82">Buck-Boost <tspan class="st9" dy="1.2em" x="26.78">Regulator</tspan></text> </g>
</a>
<g id="group9-22" transform="translate(525.425,70.3125) rotate(90)" v:groupcontext="group" v:mid="9">
<title>Battery 1-Cell</title>
<g id="shape10-23" transform="translate(-444,450) rotate(-90)" v:groupcontext="shape" v:mid="10">
<title>Sheet.10</title>
<path class="st10" d="M0 450 L11.32 450"></path>
</g>
<g id="shape11-26" transform="translate(-440.2,447.769) rotate(-90)" v:groupcontext="shape" v:mid="11">
<title>Sheet.11</title>
<path class="st10" d="M0 450 L6.86 450"></path>
</g>
<g id="shape12-29" transform="translate(10,-5.66217)" v:groupcontext="shape" v:mid="12">
<title>Line 1pt.1552</title>
<path class="st10" d="M0 450 L6 450"></path>
</g>
<g id="shape13-32" transform="translate(-1.66664,-5.66217)" v:groupcontext="shape" v:mid="13">
<title>Line 1pt.1583</title>
<path class="st10" d="M0 450 L7.67 450"></path>
</g>
</g>
<g id="group14-35" transform="translate(75.4251,-346.873)" v:groupcontext="group" v:mid="14">
<title>Ground - Earth</title>
<g id="shape15-36" transform="translate(455.662,430.185) rotate(90)" v:groupcontext="shape" v:mid="15">
<title>Sheet.15</title>
<path class="st10" d="M0 450 L14.29 450"></path>
</g>
<g id="shape16-39" transform="translate(11.3243,894.5) rotate(180)" v:groupcontext="shape" v:mid="16">
<title>Sheet.16</title>
<path class="st10" d="M0 450 L11.32 450"></path>
</g>
<g id="shape17-42" transform="translate(10.1705,897.25) rotate(180)" v:groupcontext="shape" v:mid="17">
<title>Sheet.17</title>
<path class="st10" d="M0 450 L9.02 450"></path>
</g>
<g id="shape18-45" transform="translate(9.09354,900) rotate(180)" v:groupcontext="shape" v:mid="18">
<title>Sheet.18</title>
<path class="st10" d="M0 450 L6.86 450"></path>
</g>
</g>
<g id="shape19-48" transform="translate(145.425,518.438) rotate(180)" v:groupcontext="shape" v:mid="19">
<title>Sheet.19</title>
<path class="st10" d="M0 450 L64.34 450"></path>
</g>
<g id="shape20-51" transform="translate(246.675,-381.562)" v:groupcontext="shape" v:mid="20">
<title>Sheet.20</title>
<path class="st11" d="M0 450 L26.9 450"></path>
</g>
<g id="shape21-57" transform="translate(560.198,68.4375) rotate(90)" v:groupcontext="shape" v:mid="21">
<title>Sheet.21</title>
<path class="st10" d="M0 450 L31.88 450"></path>
</g>
<g id="shape22-60" transform="translate(280.425,550.313) rotate(180)" v:groupcontext="shape" v:mid="22">
<title>Sheet.22</title>
<path class="st13" d="M6.68 450 L7.04 450 L170 450"></path>
</g>
<g id="shape23-66" transform="translate(49.4251,-353.684)" v:groupcontext="shape" v:mid="23">
<title>3V</title>
<desc>3V</desc>
<rect class="st4" height="20.0036" width="28" x="0" y="429.996"></rect>
<text class="st5" v:langid="1033" x="7.88" y="443">3V</text> </g>
<g id="shape24-69" transform="translate(248.425,-380.687)" v:groupcontext="shape" v:mid="24">
<title>5V</title>
<desc>5V</desc>
<rect class="st4" height="20.0036" width="69" x="0" y="429.996"></rect>
<text class="st5" v:langid="1033" x="4" y="443">5V</text> </g>
<g id="shape25-72" transform="translate(248.425,-349.687)" v:groupcontext="shape" v:mid="25">
<title>3V </title>
<desc>3V</desc>
<rect class="st4" height="20.0036" width="69" x="0" y="429.996"></rect>
<text class="st5" v:langid="1033" x="4" y="443">3V</text> </g>
<a data-link-id="#buck-regulator" xlink:href="#buck-regulator">
<g id="shape28-75" transform="translate(145.425,-265.937)" v:groupcontext="shape" v:mid="28">
<title>Buck Regulator</title>
<desc>Buck Regulator</desc>
<path class="st14" d="M0 450 L101.25 450 L101.25 416.25 L0 416.25 L0 450 Z"></path>
<text class="st8" v:langid="1033" x="13.02" y="436.43">Buck Regulator</text> </g>
</a>
<g id="shape29-78" transform="translate(97.6478,-280.035)" v:groupcontext="shape" v:mid="29">
<title>Input</title>
<ellipse class="st15" cx="2.77732" cy="447.223" rx="2.77732" ry="2.77732"></ellipse>
</g>
<g id="shape30-80" transform="translate(360.425,-392.133)" v:groupcontext="shape" v:mid="30">
<title>Input.30</title>
<ellipse class="st15" cx="2.77732" cy="447.223" rx="2.77732" ry="2.77732"></ellipse>
</g>
<g id="shape31-82" transform="translate(360.425,-375.133)" v:groupcontext="shape" v:mid="31">
<title>Input.31</title>
<ellipse class="st15" cx="2.77732" cy="447.223" rx="2.77732" ry="2.77732"></ellipse>
</g>
<a data-link-id="#liquid-flow-sensor" xlink:href="#liquid-flow-sensor">
<g id="shape32-84" transform="translate(260.425,-195.937)" v:groupcontext="shape" v:mid="32">
<title>Liquid Flow Sensor</title>
<desc>Liquid Flow Sensor</desc>
<path class="st14" d="M0 450 L101.25 450 L101.25 416.25 L0 416.25 L0 450 Z"></path>
<text class="st8" v:langid="1033" x="22.81" y="429.82">Liquid Flow <tspan class="st9" dy="1.2em" x="33.2">Sensor</tspan></text> </g>
</a>
<a data-link-id="#air-quality-sensor" xlink:href="#air-quality-sensor">
<g id="shape33-88" transform="translate(260.425,-152.812)" v:groupcontext="shape" v:mid="33">
<title>Air Quality Sensor</title>
<desc>Air Quality Sensor</desc>
<path class="st14" d="M0 450 L101.25 450 L101.25 416.25 L0 416.25 L0 450 Z"></path>
<text class="st8" v:langid="1033" x="6.3" y="436.43">Air Quality Sensor</text> </g>
</a>
<a data-link-id="#humidity-temperature-sensor" xlink:href="#humidity-temperature-sensor">
<g id="shape34-91" transform="translate(260.425,-102.187)" v:groupcontext="shape" v:mid="34">
<title>Humidity &amp; Temperature Sensor</title>
<desc>Humidity &amp; Temperature Sensor</desc>
<path class="st14" d="M0 450 L101.25 450 L101.25 408.75 L0 408.75 L0 450 Z"></path>
<text class="st8" v:langid="1033" x="24.04" y="419.48">Humidity &amp; <tspan class="st9" dy="1.2em" x="19.14">Temperature </tspan><tspan class="st9" dy="1.2em" x="33.2">Sensor</tspan></text> </g>
</a>
<g id="shape35-96" transform="translate(160.425,-52.1875)" v:groupcontext="shape" v:mid="35">
<title>Electrode</title>
<desc>Electrode</desc>
<rect class="st16" height="33.75" width="101.25" x="0" y="416.25"></rect>
<text class="st2" v:langid="1033" x="27.39" y="436.43">Electrode</text> </g>
<a data-link-id="#wi-fi-bluetooth-module" xlink:href="#wi-fi-bluetooth-module">
<g id="shape42-99" transform="translate(639.8,-265.937)" v:groupcontext="shape" v:mid="42">
<title>Wi-Fi Bluetooth Module</title>
<desc>Wi-Fi Bluetooth Module</desc>
<rect class="st7" height="33.75" width="101.25" x="0" y="416.25"></rect>
<text class="st8" v:langid="1033" x="13.03" y="429.82">Wi-Fi Bluetooth <tspan class="st9" dy="1.2em" x="32.59">Module</tspan></text> </g>
</a>
<a data-link-id="#lcd-driver" xlink:href="#lcd-driver">
<g id="shape43-103" transform="translate(639.8,-220.937)" v:groupcontext="shape" v:mid="43">
<title>LCD Driver</title>
<desc>LCD Driver</desc>
<rect class="st7" height="33.75" width="101.25" x="0" y="416.25"></rect>
<text class="st8" v:langid="1033" x="23.43" y="436.43">LCD Driver</text> </g>
</a>
<a data-link-id="#d-amp" xlink:href="#d-amp">
<g id="shape44-106" transform="translate(639.8,-172.66)" v:groupcontext="shape" v:mid="44">
<title>D Amp</title>
<desc>D Amp</desc>
<rect class="st7" height="33.75" width="101.25" x="0" y="416.25"></rect>
<text class="st8" v:langid="1033" x="33.82" y="436.43">D Amp</text> </g>
</a>
<g id="group55-109" transform="translate(788.8,-175.975)" v:groupcontext="group" v:layermember="0" v:mid="55">
<title>Speaker</title>
<g id="group56-110" v:groupcontext="group" v:layermember="0" v:mid="56">
<title>speaker_8_</title>
<g id="shape57-111" transform="translate(0,-7.62129)" v:groupcontext="shape" v:layermember="0" v:mid="57">
<title>Sheet.57</title>
<path class="st17" d="M4.95 449.01 C4.95 449.51 4.45 450 3.96 450 L0.99 450 C0.49 450 0 449.51 0 449.01 L0 439.11 C-0 438.62          0.49 438.12 0.99 438.12 L3.96 438.12 C4.45 438.12 4.95 438.62 4.95 439.11 L4.95 449.01 Z"></path>
</g>
<g id="shape58-113" transform="translate(6.92845,0)" v:groupcontext="shape" v:layermember="0" v:mid="58">
<title>Sheet.58</title>
<path class="st17" d="M0.69 430.8 C0.3 431.19 0 431.99 0 432.48 L0 440.4 C0 440.89 0.3 441.69 0.69 442.08 L8.22 449.6 C8.61          450 8.91 449.9 8.91 449.31 L8.91 423.57 C8.91 423.08 8.61 422.88 8.22 423.28 L0.69 430.8 Z"></path>
</g>
</g>
<g id="shape59-115" transform="translate(18.4099,-8.71005)" v:groupcontext="shape" v:layermember="0" v:mid="59">
<title>Sheet.59</title>
<path class="st17" d="M0.79 440.4 L0 442.08 C0.99 442.87 1.58 444.16 1.58 445.15 C1.58 446.44 0.99 447.62 0 448.42 L0.79 450 C2.28         448.91 3.27 447.13 3.27 445.15 C3.27 443.17 2.28 441.49 0.79 440.4 Z"></path>
</g>
<g id="shape60-117" transform="translate(20.4884,-4.25605)" v:groupcontext="shape" v:layermember="0" v:mid="60">
<title>Sheet.60</title>
<path class="st17" d="M0.89 431.49 L0 433.37 C2.47 434.96 4.16 437.73 4.16 440.7 C4.16 443.86 2.47 446.63 0 448.22 L0.89 450 C4.06         448.12 6.14 444.66 6.14 440.7 C6.14 436.74 4.06 433.37 0.89 431.49 Z"></path>
</g>
</g>
<g id="group89-119" transform="translate(773.175,-220.937)" v:groupcontext="group" v:mid="89">
<title>LCD/LED Segment Display</title>
<g id="shape90-120" v:groupcontext="shape" v:mid="90">
<title>Sheet.90</title>
<rect class="st18" height="31.4737" width="101.25" x="0" y="418.526"></rect>
</g>
<g id="shape91-122" transform="translate(45,-20.5789)" v:groupcontext="shape" v:mid="91">
<title>Sheet.91</title>
<path class="st19" d="M3.55 445.76 L0 450 L3.55 445.76 Z"></path>
<path class="st20" d="M3.55 445.76 L0 450"></path>
</g>
<g id="shape92-125" transform="translate(51.5132,-20.5789)" v:groupcontext="shape" v:mid="92">
<title>Sheet.92</title>
<path class="st19" d="M3.55 445.76 L0 450 L3.55 445.76 Z"></path>
<path class="st20" d="M3.55 445.76 L0 450"></path>
</g>
<g id="shape93-128" transform="translate(39.6711,-14.5263)" v:groupcontext="shape" v:mid="93">
<title>Sheet.93</title>
<path class="st19" d="M4.14 445.76 L0 450 L4.14 445.76 Z"></path>
<path class="st20" d="M4.14 445.76 L0 450"></path>
</g>
<g id="shape94-131" transform="translate(46.1842,-14.5263)" v:groupcontext="shape" v:mid="94">
<title>Sheet.94</title>
<path class="st19" d="M4.14 445.76 L0 450 L4.14 445.76 Z"></path>
<path class="st20" d="M4.14 445.76 L0 450"></path>
</g>
<g id="shape95-134" transform="translate(49.1447,-25.4211)" v:groupcontext="shape" v:mid="95">
<title>Sheet.95</title>
<path class="st19" d="M0 450 L5.33 450 L0 450 Z"></path>
<path class="st20" d="M0 450 L5.33 450"></path>
</g>
<g id="shape96-137" transform="translate(44.4079,-19.3684)" v:groupcontext="shape" v:mid="96">
<title>Sheet.96</title>
<path class="st19" d="M0 450 L5.92 450 L0 450 Z"></path>
<path class="st20" d="M0 450 L5.92 450"></path>
</g>
<g id="shape97-140" transform="translate(39.6711,-13.3158)" v:groupcontext="shape" v:mid="97">
<title>Sheet.97</title>
<path class="st19" d="M0 450 L5.92 450 L0 450 Z"></path>
<path class="st20" d="M0 450 L5.92 450"></path>
</g>
<g id="shape98-143" transform="translate(56.8421,-20.5789)" v:groupcontext="shape" v:mid="98">
<title>Sheet.98</title>
<path class="st19" d="M3.55 445.76 L0 450 L3.55 445.76 Z"></path>
<path class="st20" d="M3.55 445.76 L0 450"></path>
</g>
<g id="shape99-146" transform="translate(63.3553,-20.5789)" v:groupcontext="shape" v:mid="99">
<title>Sheet.99</title>
<path class="st19" d="M3.55 445.76 L0 450 L3.55 445.76 Z"></path>
<path class="st20" d="M3.55 445.76 L0 450"></path>
</g>
<g id="shape100-149" transform="translate(52.1053,-14.5263)" v:groupcontext="shape" v:mid="100">
<title>Sheet.100</title>
<path class="st19" d="M3.55 445.76 L0 450 L3.55 445.76 Z"></path>
<path class="st20" d="M3.55 445.76 L0 450"></path>
</g>
<g id="shape101-152" transform="translate(58.6184,-14.5263)" v:groupcontext="shape" v:mid="101">
<title>Sheet.101</title>
<path class="st19" d="M3.55 445.76 L0 450 L3.55 445.76 Z"></path>
<path class="st20" d="M3.55 445.76 L0 450"></path>
</g>
<g id="shape102-155" transform="translate(60.9868,-25.4211)" v:groupcontext="shape" v:mid="102">
<title>Sheet.102</title>
<path class="st19" d="M0 450 L5.92 450 L0 450 Z"></path>
<path class="st20" d="M0 450 L5.92 450"></path>
</g>
<g id="shape103-158" transform="translate(56.25,-19.3684)" v:groupcontext="shape" v:mid="103">
<title>Sheet.103</title>
<path class="st19" d="M0 450 L5.92 450 L0 450 Z"></path>
<path class="st20" d="M0 450 L5.92 450"></path>
</g>
<g id="shape104-161" transform="translate(52.1053,-13.3158)" v:groupcontext="shape" v:mid="104">
<title>Sheet.104</title>
<path class="st19" d="M0 450 L5.33 450 L0 450 Z"></path>
<path class="st20" d="M0 450 L5.33 450"></path>
</g>
<g id="shape105-164" transform="translate(68.6842,-20.5789)" v:groupcontext="shape" v:mid="105">
<title>Sheet.105</title>
<path class="st19" d="M4.14 445.76 L0 450 L4.14 445.76 Z"></path>
<path class="st20" d="M4.14 445.76 L0 450"></path>
</g>
<g id="shape106-167" transform="translate(75.1974,-20.5789)" v:groupcontext="shape" v:mid="106">
<title>Sheet.106</title>
<path class="st19" d="M4.14 445.76 L0 450 L4.14 445.76 Z"></path>
<path class="st20" d="M4.14 445.76 L0 450"></path>
</g>
<g id="shape107-170" transform="translate(63.9474,-13.9211)" v:groupcontext="shape" v:mid="107">
<title>Sheet.107</title>
<path class="st19" d="M3.55 445.76 L0 450 L3.55 445.76 Z"></path>
<path class="st20" d="M3.55 445.76 L0 450"></path>
</g>
<g id="shape108-173" transform="translate(70.4605,-13.9211)" v:groupcontext="shape" v:mid="108">
<title>Sheet.108</title>
<path class="st19" d="M3.55 445.76 L0 450 L3.55 445.76 Z"></path>
<path class="st20" d="M3.55 445.76 L0 450"></path>
</g>
<g id="shape109-176" transform="translate(72.8289,-24.8158)" v:groupcontext="shape" v:mid="109">
<title>Sheet.109</title>
<path class="st19" d="M0 450 L5.92 450 L0 450 Z"></path>
<path class="st20" d="M0 450 L5.92 450"></path>
</g>
<g id="shape110-179" transform="translate(68.6842,-19.3684)" v:groupcontext="shape" v:mid="110">
<title>Sheet.110</title>
<path class="st19" d="M0 450 L5.33 450 L0 450 Z"></path>
<path class="st20" d="M0 450 L5.33 450"></path>
</g>
<g id="shape111-182" transform="translate(63.9474,-13.3158)" v:groupcontext="shape" v:mid="111">
<title>Sheet.111</title>
<path class="st19" d="M0 450 L5.33 450 L0 450 Z"></path>
<path class="st20" d="M0 450 L5.33 450"></path>
</g>
<g id="shape112-185" transform="translate(81.1184,-20.5789)" v:groupcontext="shape" v:mid="112">
<title>Sheet.112</title>
<path class="st19" d="M3.55 445.76 L0 450 L3.55 445.76 Z"></path>
<path class="st20" d="M3.55 445.76 L0 450"></path>
</g>
<g id="shape113-188" transform="translate(87.6316,-20.5789)" v:groupcontext="shape" v:mid="113">
<title>Sheet.113</title>
<path class="st19" d="M3.55 445.76 L0 450 L3.55 445.76 Z"></path>
<path class="st20" d="M3.55 445.76 L0 450"></path>
</g>
<g id="shape114-191" transform="translate(75.7895,-13.9211)" v:groupcontext="shape" v:mid="114">
<title>Sheet.114</title>
<path class="st19" d="M3.55 445.76 L0 450 L3.55 445.76 Z"></path>
<path class="st20" d="M3.55 445.76 L0 450"></path>
</g>
<g id="shape115-194" transform="translate(82.3026,-13.9211)" v:groupcontext="shape" v:mid="115">
<title>Sheet.115</title>
<path class="st19" d="M3.55 445.76 L0 450 L3.55 445.76 Z"></path>
<path class="st20" d="M3.55 445.76 L0 450"></path>
</g>
<g id="shape116-197" transform="translate(85.2632,-24.8158)" v:groupcontext="shape" v:mid="116">
<title>Sheet.116</title>
<path class="st19" d="M0 450 L5.33 450 L0 450 Z"></path>
<path class="st20" d="M0 450 L5.33 450"></path>
</g>
<g id="shape117-200" transform="translate(80.5263,-19.3684)" v:groupcontext="shape" v:mid="117">
<title>Sheet.117</title>
<path class="st19" d="M0 450 L5.33 450 L0 450 Z"></path>
<path class="st20" d="M0 450 L5.33 450"></path>
</g>
<g id="shape118-203" transform="translate(75.7895,-13.3158)" v:groupcontext="shape" v:mid="118">
<title>Sheet.118</title>
<path class="st19" d="M0 450 L5.92 450 L0 450 Z"></path>
<path class="st20" d="M0 450 L5.92 450"></path>
</g>
<g id="shape119-206" transform="translate(11.0803,-20.691)" v:groupcontext="shape" v:mid="119">
<title>Sheet.119</title>
<desc>ON</desc>
<rect class="st21" height="7.98947" width="13.0263" x="0" y="442.011"></rect>
<text class="st22" v:langid="1033" x="0" y="448.41">ON</text> </g>
<g id="shape120-209" transform="translate(11.0803,-12.8226)" v:groupcontext="shape" v:mid="120">
<title>Sheet.120</title>
<desc>OFF</desc>
<rect class="st21" height="7.98947" width="19.5395" x="0" y="442.011"></rect>
<text class="st22" v:langid="1033" x="0" y="448.41">OFF</text> </g>
<g id="shape121-212" transform="translate(19.5057,-4.23684)" v:groupcontext="shape" v:mid="121">
<title>Sheet.121</title>
<path class="st18" d="M0 447.58 C0 446.25 1.17 445.16 2.66 445.16 C4.16 445.16 5.33 446.25 5.33 447.58 C5.33 448.91 4.16 450 2.66         450 C1.17 450 0 448.91 0 447.58 Z"></path>
</g>
<g id="group122-214" transform="translate(37.8947,-4.84211)" v:groupcontext="group" v:mid="122">
<title>Sheet.122</title>
<g id="shape123-215" v:groupcontext="shape" v:mid="123">
<title>Sheet.123</title>
<rect class="st18" height="2.42105" width="7.69737" x="0" y="447.579"></rect>
</g>
<g id="shape124-217" transform="translate(9.91776,0)" v:groupcontext="shape" v:mid="124">
<title>Sheet.124</title>
<rect class="st18" height="2.42105" width="8.28947" x="0" y="447.579"></rect>
</g>
<g id="shape125-219" transform="translate(30.9375,0)" v:groupcontext="shape" v:mid="125">
<title>Sheet.125</title>
<rect class="st18" height="2.42105" width="8.28947" x="0" y="447.579"></rect>
</g>
<g id="shape126-221" transform="translate(41.4474,0)" v:groupcontext="shape" v:mid="126">
<title>Sheet.126</title>
<rect class="st18" height="2.42105" width="8.28947" x="0" y="447.579"></rect>
</g>
<g id="shape127-223" transform="translate(20.4276,0)" v:groupcontext="shape" v:mid="127">
<title>Sheet.127</title>
<rect class="st18" height="2.42105" width="8.28947" x="0" y="447.579"></rect>
</g>
</g>
<g id="shape128-225" transform="translate(11.2857,-4.23684)" v:groupcontext="shape" v:mid="128">
<title>Sheet.128</title>
<path class="st18" d="M0 447.58 C0 446.25 1.17 445.16 2.66 445.16 C4.16 445.16 5.33 446.25 5.33 447.58 C5.33 448.91 4.16 450 2.66         450 C1.17 450 0 448.91 0 447.58 Z"></path>
</g>
</g>
<g id="group129-227" transform="translate(800.07,-336.003)" v:groupcontext="group" v:mid="129">
<title>Tablet</title>
<g id="shape130-228" v:groupcontext="shape" v:layermember="0" v:mid="130">
<title>Sheet.130</title>
<path class="st23" d="M3.93 450 C1.74 450 0 448.26 0 446.07 L0 415.21 C0 413.02 1.74 411.28 3.93 411.28 L24.13 411.28 C26.32 411.28         28.06 413.02 28.06 415.21 L28.06 446.07 C28.06 448.26 26.32 450 24.13 450 L3.93 450 Z"></path>
</g>
<g id="shape131-230" transform="translate(1.68345,-1.68345)" v:groupcontext="shape" v:layermember="0" v:mid="131">
<title>Sheet.131</title>
<path class="st17" d="M24.69 447.76 C24.69 448.99 23.68 450 22.45 450 L2.24 450 C1.01 450 0 448.99 0 447.76 L0 416.89 C-0 415.66         1.01 414.65 2.24 414.65 L22.45 414.65 C23.68 414.65 24.69 415.66 24.69 416.89 L24.69 447.76 Z"></path>
</g>
<g id="shape132-232" transform="translate(3.36691,-6.17266)" v:groupcontext="shape" v:layermember="0" v:mid="132">
<title>Sheet.132</title>
<rect class="st23" height="26.3741" width="21.3237" x="0" y="423.626"></rect>
</g>
<g id="shape133-234" transform="translate(13.4676,-34.2302)" v:groupcontext="shape" v:layermember="0" v:mid="133">
<title>Sheet.133</title>
<ellipse class="st23" cx="0.561151" cy="449.439" rx="0.561151" ry="0.561151"></ellipse>
</g>
<g id="shape134-236" transform="translate(12.9065,-2.80576)" v:groupcontext="shape" v:layermember="0" v:mid="134">
<title>Sheet.134</title>
<ellipse class="st23" cx="1.1223" cy="448.878" rx="1.1223" ry="1.1223"></ellipse>
</g>
</g>
<g id="group135-238" transform="translate(745.425,-337.747)" v:groupcontext="group" v:mid="135">
<title>Media Player</title>
<g id="shape136-239" transform="translate(12.5753,-10.6638)" v:groupcontext="shape" v:mid="136">
<title>XMLID_35_</title>
<path class="st24" d="M8.97 432.28 C4.01 432.28 0 436.25 0 441.14 C0 446.03 4.01 450 8.97 450 C13.92 450 17.93 446.03 17.93 441.14         C17.93 436.25 13.92 432.28 8.97 432.28 ZM5.95 447.16 L5.16 447.16 L5.16 435.74 L5.95 435.74 L5.95 447.16         ZM6.43 447.16 L6.43 435.74 L15.29 440.96 L6.43 447.16 Z"></path>
</g>
<g id="shape137-241" v:groupcontext="shape" v:mid="137">
<title>Sheet.137</title>
<path class="st24" d="M38.89 414.77 L5.04 414.77 C2.27 414.77 0 417.15 0 420.07 L0 444.7 C0 447.62 2.27 450 5.04 450 L38.89 450         C41.66 450 43.93 447.62 43.93 444.7 L43.93 420.07 C43.93 417.16 41.66 414.77 38.89 414.77 ZM38.69 446.64         L17.38 446.64 L17.38 447.45 C17.38 447.96 16.97 448.38 16.46 448.38 L13.43 448.38 C12.92 448.38 12.51         447.96 12.51 447.45 L12.51 446.64 L4.74 446.64 C4.06 446.64 3.5 446.06 3.5 445.34 C3.5 444.63 4.06 444.05         4.74 444.05 L12.51 444.05 L12.51 442.98 C12.51 442.47 12.92 442.05 13.43 442.05 L16.46 442.05 C16.97         442.05 17.38 442.47 17.38 442.98 L17.38 444.05 L38.69 444.05 C39.37 444.05 39.93 444.63 39.93 445.34         C39.92 446.06 39.37 446.64 38.69 446.64 ZM41.08 441.47 L2.61 441.47 L2.61 419.62 L41.08 419.62 L41.08         441.47 L41.08 441.47 Z"></path>
</g>
<g id="shape138-243" transform="translate(13.3159,-2.30957)" v:groupcontext="shape" v:mid="138">
<title>Sheet.138</title>
<path class="st24" d="M2.69 450 L0.56 450 C0.25 450 0 449.75 0 449.44 L0 445.64 C0 445.34 0.25 445.09 0.56 445.09 L2.7 445.09         C3 445.09 3.25 445.34 3.25 445.64 L3.25 449.44 C3.25 449.75 3 450 2.69 450 Z"></path>
</g>
</g>
<g id="group139-245" transform="translate(696.138,-339.063)" v:groupcontext="group" v:mid="139">
<title>LCD Monitor</title>
<g id="shape140-246" v:groupcontext="shape" v:layermember="0" v:mid="140">
<title>Sheet.140</title>
<path class="st23" d="M10.29 449.93 C8.56 449.93 7.24 448.54 7.24 446.88 C7.24 445.55 8.1 444.42 9.3 443.96 L3.72 443.96 C1.66         443.96 0 442.3 0 440.24 L0 421.12 C0 419.06 1.66 417.4 3.72 417.4 L34.86 417.4 C36.92 417.4 38.58 419.06         38.58 421.12 L38.58 440.31 C38.58 442.36 36.92 444.02 34.86 444.02 L29.35 444.02 C30.54 444.42 31.4         445.62 31.4 446.95 C31.4 448.61 30.01 450 28.35 450 L10.29 450 L10.29 449.93 Z"></path>
</g>
<g id="shape141-248" transform="translate(1.99182,-1.99182)" v:groupcontext="shape" v:layermember="0" v:mid="141">
<title>Sheet.141</title>
<path class="st17" d="M32.8 421.38 L1.73 421.38 C0.8 421.38 0 422.11 0 423.11 L0 442.3 C0 443.23 0.73 444.02 1.73 444.02 L13.35         444.02 C14.34 447.41 13.48 447.74 8.3 447.81 C7.7 447.81 7.24 448.27 7.24 448.94 C7.24 449.54 7.7 450         8.3 450 L26.23 450 C26.82 450 27.29 449.54 27.29 448.94 C27.29 448.34 26.82 447.81 26.23 447.81 C21.05         447.74 20.18 447.41 21.18 444.02 L32.8 444.02 C33.73 444.02 34.52 443.29 34.52 442.3 L34.52 423.11 C34.52         422.11 33.79 421.38 32.8 421.38 ZM31.87 441.3 L2.66 441.3 L2.66 424.04 L31.87 424.04 L31.87 441.3 Z"></path>
</g>
</g>
<g id="group142-250" transform="translate(767.214,-283.039)" v:groupcontext="group" v:mid="142">
<title>Antenna</title>
<g id="shape143-251" transform="translate(458.317,439.084) rotate(90)" v:groupcontext="shape" v:mid="143">
<title>Sheet.143</title>
<path class="st10" d="M0 450 L10.92 450"></path>
</g>
<g id="group144-254" transform="translate(0,-10.9164)" v:groupcontext="group" v:mid="144">
<title>Sheet.144</title>
<g id="shape145-255" transform="translate(0,-13.3803)" v:groupcontext="shape" v:mid="145">
<title>Sheet.145</title>
<path class="st25" d="M0 450 L16.42 450"></path>
</g>
<g id="shape146-258" transform="translate(382.179,199.05) rotate(58.134)" v:groupcontext="shape" v:mid="146">
<title>Sheet.146</title>
<path class="st25" d="M0 450 L15.75 450"></path>
</g>
<g id="shape147-261" transform="translate(401.33,669.74) rotate(121.201)" v:groupcontext="shape" v:mid="147">
<title>Sheet.147</title>
<path class="st25" d="M0 450 L15.64 450"></path>
</g>
</g>
</g>
<g id="shape148-264" transform="translate(426.394,822.813) rotate(180)" v:groupcontext="shape" v:mid="148">
<title>Sheet.148</title>
<path class="st10" d="M0 450 L163.7 450"></path>
</g>
<g id="shape149-267" transform="translate(426.394,830.313) rotate(180)" v:groupcontext="shape" v:mid="149">
<title>Sheet.149</title>
<path class="st10" d="M0 450 L163.7 450"></path>
</g>
<g id="shape150-270" transform="translate(426.394,837.813) rotate(180)" v:groupcontext="shape" v:mid="150">
<title>Sheet.150</title>
<path class="st10" d="M0 450 L163.7 450"></path>
</g>
<g id="shape151-273" transform="translate(362.464,-52.1875)" v:groupcontext="shape" v:mid="151">
<title>Sheet.151</title>
<ellipse class="st26" cx="5" cy="432.5" rx="5" ry="17.5"></ellipse>
</g>
<g id="shape153-275" transform="translate(361.675,-219.687)" v:groupcontext="shape" v:mid="153">
<title>Sheet.153</title>
<path class="st13" d="M6.68 450 L7.04 450 L23.75 450"></path>
</g>
<g id="shape154-280" transform="translate(835.425,55.3125) rotate(90)" v:groupcontext="shape" v:mid="154">
<title>Sheet.154</title>
<path class="st10" d="M0 450 L175 450"></path>
</g>
<g id="shape155-283" transform="translate(361.675,-202.687)" v:groupcontext="shape" v:mid="155">
<title>Sheet.155</title>
<path class="st13" d="M6.68 450 L7.04 450 L23.75 450"></path>
</g>
<g id="shape156-288" transform="translate(361.675,-110.687)" v:groupcontext="shape" v:mid="156">
<title>Sheet.156</title>
<path class="st27" d="M6.68 450 L7.04 450 L57.68 450"></path>
</g>
<g id="shape157-295" transform="translate(835.425,247.313) rotate(90)" v:groupcontext="shape" v:mid="157">
<title>Sheet.157</title>
<path class="st10" d="M0 450 L92 450"></path>
</g>
<g id="shape158-298" transform="translate(361.675,-134.687)" v:groupcontext="shape" v:mid="158">
<title>Sheet.158</title>
<path class="st13" d="M6.68 450 L7.04 450 L48.75 450"></path>
</g>
<g id="shape159-303" transform="translate(860.425,72.3125) rotate(90)" v:groupcontext="shape" v:mid="159">
<title>Sheet.159</title>
<path class="st10" d="M0 450 L243 450"></path>
</g>
<g id="shape160-306" transform="translate(361.675,-160.687)" v:groupcontext="shape" v:mid="160">
<title>Sheet.160</title>
<path class="st13" d="M6.68 450 L7.04 450 L23.75 450"></path>
</g>
<g id="shape161-311" transform="translate(361.675,-179.687)" v:groupcontext="shape" v:mid="161">
<title>Sheet.161</title>
<path class="st13" d="M6.68 450 L7.04 450 L49.12 450"></path>
</g>
<g id="shape162-316" transform="translate(410.425,-314.687)" v:groupcontext="shape" v:mid="162">
<title>Sheet.162</title>
<path class="st11" d="M0 450 L8.93 450"></path>
</g>
<g id="shape163-321" transform="translate(366.04,-377.723)" v:groupcontext="shape" v:mid="163">
<title>Sheet.163</title>
<path class="st10" d="M0 450 L224.38 450"></path>
</g>
<g id="shape164-324" transform="translate(366.117,-394.998)" v:groupcontext="shape" v:mid="164">
<title>Sheet.164</title>
<path class="st10" d="M0 450 L239.31 450"></path>
</g>
<g id="shape165-327" transform="translate(639.8,720.313) rotate(180)" v:groupcontext="shape" v:mid="165">
<title>Sheet.165</title>
<path class="st13" d="M6.68 450 L7.04 450 L33.88 450"></path>
</g>
<g id="shape166-332" transform="translate(1055.43,55.0021) rotate(90)" v:groupcontext="shape" v:mid="166">
<title>Sheet.166</title>
<path class="st10" d="M0 450 L215.31 450"></path>
</g>
<g id="shape167-335" transform="translate(639.8,700.313) rotate(180)" v:groupcontext="shape" v:mid="167">
<title>Sheet.167</title>
<path class="st13" d="M6.68 450 L7.04 450 L64.38 450"></path>
</g>
<g id="shape168-340" transform="translate(639.8,675.313) rotate(180)" v:groupcontext="shape" v:mid="168">
<title>Sheet.168</title>
<path class="st13" d="M6.68 450 L7.04 450 L49.38 450"></path>
</g>
<g id="shape169-345" transform="translate(639.8,655.313) rotate(180)" v:groupcontext="shape" v:mid="169">
<title>Sheet.169</title>
<path class="st27" d="M6.68 450 L7.04 450 L57.34 450"></path>
</g>
<g id="shape170-352" transform="translate(639.8,630.313) rotate(180)" v:groupcontext="shape" v:mid="170">
<title>Sheet.170</title>
<path class="st13" d="M6.68 450 L7.04 450 L49.38 450"></path>
</g>
<g id="shape171-357" transform="translate(639.8,610.313) rotate(180)" v:groupcontext="shape" v:mid="171">
<title>Sheet.171</title>
<path class="st27" d="M6.68 450 L7.04 450 L57.34 450"></path>
</g>
<g id="shape172-364" transform="translate(1040.43,72.2765) rotate(90)" v:groupcontext="shape" v:mid="172">
<title>Sheet.172</title>
<path class="st10" d="M0 450 L153.04 450"></path>
</g>
<g id="shape173-367" transform="translate(741.05,-282.812)" v:groupcontext="shape" v:mid="173">
<title>Sheet.173</title>
<path class="st10" d="M0 450 L34.48 450"></path>
</g>
<g id="shape174-370" transform="translate(741.05,-237.812)" v:groupcontext="shape" v:mid="174">
<title>Sheet.174</title>
<path class="st27" d="M6.68 450 L7.04 450 L25.08 450"></path>
</g>
<g id="shape175-377" transform="translate(741.05,-189.535)" v:groupcontext="shape" v:mid="175">
<title>Sheet.175</title>
<path class="st11" d="M0 450 L40.71 450"></path>
</g>
<g id="shape176-382" transform="translate(575.425,-134.687) rotate(1.72855E-05)" v:groupcontext="shape" v:mid="176">
<title>Sheet.176</title>
<path class="st11" d="M0 450 L43.96 450"></path>
</g>
<g id="shape177-387" transform="translate(103.572,-282.847) rotate(0.0471061)" v:groupcontext="shape" v:mid="177">
<title>Sheet.177</title>
<path class="st10" d="M0 450 L42.22 450"></path>
</g>
<g id="shape178-390" transform="translate(246.675,-282.812)" v:groupcontext="shape" v:mid="178">
<title>Sheet.178</title>
<path class="st28" d="M0 450 L37.21 450"></path>
</g>
<g id="shape179-396" transform="translate(565.152,167.163) rotate(90)" v:groupcontext="shape" v:mid="179">
<title>Sheet.179</title>
<path class="st10" d="M0 450 L28.15 450"></path>
</g>
<g id="shape180-399" transform="translate(290.425,645.313) rotate(180)" v:groupcontext="shape" v:mid="180">
<title>Sheet.180</title>
<path class="st13" d="M6.68 450 L7.04 450 L175 450"></path>
</g>
<g id="shape181-404" transform="translate(25.4251,-254.684)" v:groupcontext="shape" v:mid="181">
<title>AC Adapter </title>
<desc>AC Adapter</desc>
<rect class="st4" height="20.0036" width="72" x="0" y="429.996"></rect>
<text class="st5" v:langid="1033" x="16.31" y="443">AC Adapter</text> </g>
<g id="shape182-407" transform="translate(25.4251,-272.811)" v:groupcontext="shape" v:mid="182">
<title>5V  </title>
<desc>5V</desc>
<rect class="st4" height="20.0036" width="72" x="0" y="429.996"></rect>
<text class="st5" v:langid="1033" x="55.77" y="443">5V</text> </g>
<g id="shape183-410" transform="translate(299.425,-384.908)" v:groupcontext="shape" v:mid="183">
<title>5V &lt;1.4A</title>
<desc>5V &lt;1.4A</desc>
<rect class="st4" height="20.0036" width="72" x="0" y="429.996"></rect>
<text class="st5" v:langid="1033" x="15.29" y="443">5V &lt;1.4A</text> </g>
<g id="shape184-413" transform="translate(299.425,-367.908)" v:groupcontext="shape" v:mid="184">
<title>3V &lt;1.2A</title>
<desc>3V &lt;1.2A</desc>
<rect class="st4" height="20.0036" width="72" x="0" y="429.996"></rect>
<text class="st5" v:langid="1033" x="15.29" y="443">3V &lt;1.2A</text> </g>
<g id="shape185-416" transform="translate(319.275,-29.6875)" v:groupcontext="shape" v:mid="185">
<title>Max, 36 Electrodes</title>
<desc>Max, 36 Electrodes</desc>
<rect class="st4" height="20.0036" width="96.379" x="0" y="429.996"></rect>
<text class="st5" v:langid="1033" x="5.39" y="443">Max, 36 Electrodes</text> </g>
<g id="shape186-419" transform="translate(146.068,-15)" v:groupcontext="shape" v:mid="186">
<title>*Detect the change of capacitance by liquid level</title>
<desc>Detect the change of capacitance by liquid level</desc>
<rect class="st4" height="32.0037" width="129.965" x="0" y="417.996"></rect>
<text class="st5" v:langid="1033" x="18.84" y="431">Detect the change of <tspan class="st9" dy="1.2em" x="6.89">capacitance by liquid level</tspan></text> </g>
<g id="shape187-423" transform="translate(580,-44.6875)" v:groupcontext="shape" v:mid="187">
<title>*CTSU2: Capacitive Touch Sensing Unit 2</title>
<desc>*CTSU2: Capacitive Touch Sensing Unit 2</desc>
<rect class="st4" height="20.0036" width="198.094" x="0" y="429.996"></rect>
<text class="st30" v:langid="1033" x="5.39" y="443">*CTSU2: Capacitive Touch Sensing Unit 2</text> </g>
<g id="shape188-426" transform="translate(712.923,-314.687)" v:groupcontext="shape" v:mid="188">
<title>PC/Tablet/Smartphone</title>
<desc>PC/Tablet/Smartphone</desc>
<rect class="st4" height="20.0036" width="112.502" x="0" y="429.996"></rect>
<text class="st5" v:langid="1033" x="5.39" y="443">PC/Tablet/Smartphone</text> </g>
<g id="shape189-429" transform="translate(787.8,-199.687)" v:groupcontext="shape" v:mid="189">
<title>LCD</title>
<desc>LCD</desc>
<rect class="st4" height="20.0036" width="72" x="0" y="429.996"></rect>
<text class="st5" v:langid="1033" x="26" y="443">LCD</text> </g>
<g id="shape190-432" transform="translate(655.425,-123.011)" v:groupcontext="shape" v:mid="190">
<title>LED  </title>
<desc>LED</desc>
<rect class="st4" height="20.0036" width="32.7185" x="0" y="429.996"></rect>
<text class="st5" v:langid="1033" x="6.63" y="443">LED</text> </g>
<g id="shape191-435" transform="translate(107.425,-378.79)" v:groupcontext="shape" v:mid="191">
<title>Connector 1.178</title>
<ellipse class="st31" cx="2.77275" cy="447.227" rx="2.77275" ry="2.77275"></ellipse>
</g>
<g id="shape194-437" transform="translate(112.38,-280.062)" v:groupcontext="shape" v:mid="194">
<title>Connector 1.178.194</title>
<ellipse class="st31" cx="2.77275" cy="447.227" rx="2.77275" ry="2.77275"></ellipse>
</g>
<g id="shape195-439" transform="translate(265.925,-255.186)" v:groupcontext="shape" v:mid="195">
<title>5V   </title>
<desc>5V</desc>
<rect class="st4" height="20.0036" width="69" x="0" y="429.996"></rect>
<text class="st5" v:langid="1033" x="4" y="443">5V</text> </g>
<g id="shape196-442" transform="translate(265.925,-282.686)" v:groupcontext="shape" v:mid="196">
<title>3V   </title>
<desc>3V</desc>
<rect class="st4" height="20.0036" width="69" x="0" y="429.996"></rect>
<text class="st5" v:langid="1033" x="4" y="443">3V</text> </g>
<g id="shape199-445" transform="translate(407.652,-176.915)" v:groupcontext="shape" v:mid="199">
<title>Connector 1.178.199</title>
<ellipse class="st31" cx="2.77275" cy="447.227" rx="2.77275" ry="2.77275"></ellipse>
</g>
<g id="shape200-447" transform="translate(382.425,-157.915)" v:groupcontext="shape" v:mid="200">
<title>Connector 1.178.200</title>
<ellipse class="st31" cx="2.77275" cy="447.227" rx="2.77275" ry="2.77275"></ellipse>
</g>
<g id="shape201-449" transform="translate(382.425,-107.915)" v:groupcontext="shape" v:mid="201">
<title>Connector 1.178.201</title>
<ellipse class="st31" cx="2.77275" cy="447.227" rx="2.77275" ry="2.77275"></ellipse>
</g>
<g id="shape202-451" transform="translate(407.647,-311.915)" v:groupcontext="shape" v:mid="202">
<title>Connector 1.178.202</title>
<ellipse class="st31" cx="2.77275" cy="447.227" rx="2.77275" ry="2.77275"></ellipse>
</g>
<g id="shape203-453" transform="translate(407.925,-374.951)" v:groupcontext="shape" v:mid="203">
<title>Connector 1.178.203</title>
<ellipse class="st31" cx="2.77275" cy="447.227" rx="2.77275" ry="2.77275"></ellipse>
</g>
<g id="shape204-455" transform="translate(382.731,-392.225)" v:groupcontext="shape" v:mid="204">
<title>Connector 1.178.204</title>
<ellipse class="st31" cx="2.77275" cy="447.227" rx="2.77275" ry="2.77275"></ellipse>
</g>
<g id="group209-457" transform="translate(625.823,-123.011)" v:groupcontext="group" v:mid="209">
<title>LED</title>
<g id="shape210-458" transform="translate(7.17655,-11.0839)" v:groupcontext="shape" v:mid="210">
<title>Sheet.210</title>
<path class="st32" d="M9.96 450 L9.96 446.8 C9.96 446.53 9.75 446.31 9.47 446.31 L6.06 446.31 C5.79 446.31 5.57 446.53 5.57 446.8         L5.57 450 L0 450 L0 442.07 C0 437.79 3.49 434.31 7.77 434.31 C12.05 434.31 15.53 437.79 15.53 442.07         L15.53 450 L9.96 450 L9.96 450 Z"></path>
</g>
<g id="shape211-460" transform="translate(5.1792,5.68434E-14)" v:groupcontext="shape" v:mid="211">
<title>Sheet.211</title>
<path class="st32" d="M13.95 450 C13.77 450 13.63 449.85 13.63 449.68 L13.63 443.84 L5.9 443.84 L5.9 449.68 C5.9 449.85 5.75 450         5.57 450 C5.4 450 5.25 449.85 5.25 449.68 L5.25 443.84 L0.48 443.84 C0.22 443.84 0 443.63 0 443.36 L0         440.05 C0 439.78 0.21 439.57 0.48 439.57 L19.04 439.57 C19.31 439.57 19.53 439.78 19.53 440.05 L19.53         443.36 C19.53 443.63 19.31 443.84 19.04 443.84 L14.28 443.84 L14.28 449.68 C14.28 449.85 14.13 450 13.95         450 Z"></path>
</g>
<g id="shape212-462" transform="translate(7.26242,-26.5282)" v:groupcontext="shape" v:mid="212">
<title>Sheet.212</title>
<path class="st33" d="M2.76 450 C2.65 450 2.54 449.94 2.48 449.83 L0.09 445.7 C0 445.55 0.05 445.35 0.21 445.26 C0.37 445.17 0.57         445.22 0.65 445.38 L3.04 449.51 C3.13 449.66 3.08 449.86 2.92 449.95 C2.87 449.99 2.82 450 2.76 450         Z"></path>
</g>
<g id="shape213-464" transform="translate(1.91148,-22.9288)" v:groupcontext="shape" v:mid="213">
<title>Sheet.213</title>
<path class="st33" d="M4.51 450 C4.45 450 4.4 449.99 4.34 449.95 L0.21 447.57 C0.05 447.48 0 447.28 0.09 447.13 C0.18 446.97 0.38         446.91 0.54 447.01 L4.67 449.39 C4.83 449.48 4.87 449.68 4.79 449.84 C4.73 449.94 4.62 450 4.51 450         Z"></path>
</g>
<g id="shape214-466" transform="translate(-5.14588E-14,-18.0073)" v:groupcontext="shape" v:mid="214">
<title>Sheet.214</title>
<path class="st33" d="M5.1 450 L0.33 450 C0.15 450 0 449.85 0 449.68 C0 449.5 0.15 449.35 0.33 449.35 L5.1 449.35 C5.28 449.35         5.43 449.49 5.43 449.68 C5.43 449.86 5.28 450 5.1 450 Z"></path>
</g>
<g id="shape215-468" transform="translate(24.4627,-18.0073)" v:groupcontext="shape" v:mid="215">
<title>Sheet.215</title>
<path class="st33" d="M5.1 450 L0.32 450 C0.15 450 0 449.85 0 449.68 C0 449.5 0.15 449.35 0.32 449.35 L5.1 449.35 C5.27 449.35         5.42 449.49 5.42 449.68 C5.42 449.86 5.27 450 5.1 450 Z"></path>
</g>
<g id="shape216-470" transform="translate(23.0976,-22.9288)" v:groupcontext="shape" v:mid="216">
<title>Sheet.216</title>
<path class="st33" d="M0.37 450 C0.26 450 0.15 449.94 0.09 449.84 C0 449.68 0.05 449.49 0.21 449.39 L4.34 447.01 C4.5 446.91 4.7         446.97 4.78 447.13 C4.87 447.28 4.82 447.48 4.67 447.57 L0.53 449.95 C0.48 449.99 0.42 450 0.37 450         Z"></path>
</g>
<g id="shape217-472" transform="translate(19.4894,-26.5282)" v:groupcontext="shape" v:mid="217">
<title>Sheet.217</title>
<path class="st33" d="M0.38 450 C0.32 450 0.26 449.99 0.21 449.95 C0.05 449.86 0 449.66 0.09 449.51 L2.48 445.38 C2.57 445.22         2.77 445.17 2.92 445.26 C3.08 445.35 3.13 445.55 3.04 445.7 L0.66 449.83 C0.6 449.94 0.48 450 0.38 450         Z"></path>
</g>
<g id="shape218-474" transform="translate(14.6152,-27.8489)" v:groupcontext="shape" v:mid="218">
<title>Sheet.218</title>
<path class="st33" d="M0.33 450 C0.15 450 0 449.85 0 449.67 L0 444.9 C0 444.72 0.15 444.57 0.33 444.57 C0.51 444.57 0.65 444.72         0.65 444.9 L0.65 449.67 C0.65 449.85 0.51 450 0.33 450 Z"></path>
</g>
<g id="shape219-476" transform="translate(13.3951,-11.0839)" v:groupcontext="shape" v:mid="219">
<title>Sheet.219</title>
<rect class="st32" height="3.03971" width="3.10041" x="0" y="446.96"></rect>
</g>
</g>
<g id="shape220-478" transform="translate(587.647,-266.915)" v:groupcontext="shape" v:mid="220">
<title>Connector 1.178.220</title>
<ellipse class="st31" cx="2.77275" cy="447.227" rx="2.77275" ry="2.77275"></ellipse>
</g>
<a data-link-id="#mcu" xlink:href="#mcu">
<g id="group221-480" transform="translate(426.394,-44.6875)" v:groupcontext="group" v:mid="221">
<title>Sheet.221</title>
<g id="shape152-481" v:groupcontext="shape" v:mid="152">
<title>MCU</title>
<desc>MCU</desc>
<rect class="st7" height="318.375" width="149.031" x="0" y="131.625"></rect>
<text class="st8" v:langid="1033" x="61.99" y="149.53">MCU</text> </g>
<g id="shape36-484" transform="translate(4.82435,-13.676)" v:groupcontext="shape" v:mid="36">
<title>CTSU2*</title>
<desc>CTSU2*</desc>
<rect class="st34" height="22.648" width="48.7821" x="0" y="427.352"></rect>
<text class="st35" v:langid="1033" x="6.05" y="441.68">CTSU2*</text> </g>
<g id="shape37-487" transform="translate(4.82435,-57.5)" v:groupcontext="shape" v:mid="37">
<title>I2C   </title>
<desc>I2C</desc>
<rect class="st34" height="22.648" width="48.7821" x="0" y="427.352"></rect>
<text class="st35" v:langid="1033" x="17.58" y="441.68">I<tspan class="st36" dy="-0.235em" v:basefontsize="10">2</tspan><tspan class="st9" dy="0.153em">C</tspan></text> </g>
<g id="shape38-492" transform="translate(94.8243,-232.352)" v:groupcontext="shape" v:mid="38">
<title>UART</title>
<desc>UART</desc>
<rect class="st34" height="22.648" width="48.7821" x="0" y="427.352"></rect>
<text class="st35" v:langid="1033" x="10.78" y="441.68">UART</text> </g>
<g id="shape39-495" transform="translate(94.8243,-187.352)" v:groupcontext="shape" v:mid="39">
<title>I2C</title>
<desc>I2C</desc>
<rect class="st34" height="22.648" width="48.7821" x="0" y="427.352"></rect>
<text class="st35" v:langid="1033" x="17.58" y="441.68">I<tspan class="st36" dy="-0.235em" v:basefontsize="10">2</tspan><tspan class="st9" dy="0.153em">C</tspan></text> </g>
<g id="shape40-500" transform="translate(94.8243,-142.352)" v:groupcontext="shape" v:mid="40">
<title>PWM</title>
<desc>PWM</desc>
<rect class="st34" height="22.648" width="48.7821" x="0" y="427.352"></rect>
<text class="st35" v:langid="1033" x="12.17" y="441.68">PWM</text> </g>
<g id="shape41-503" transform="translate(94.8243,-78.324)" v:groupcontext="shape" v:mid="41">
<title>GPIO</title>
<desc>GPIO</desc>
<rect class="st34" height="22.648" width="48.7821" x="0" y="427.352"></rect>
<text class="st35" v:langid="1033" x="11.89" y="441.68">GPIO</text> </g>
</g>
</a>
</g>
</svg>