<?xml version="1.0" encoding="UTF-8" standalone="no"?>
<!DOCTYPE svg PUBLIC "-//W3C//DTD SVG 1.1//EN" "http://www.w3.org/Graphics/SVG/1.1/DTD/svg11.dtd">
<svg class="st20" color-interpolation-filters="sRGB" height="4.86111in" viewbox="0 0 900 350" width="12.5in" xml:space="preserve" xmlns="http://www.w3.org/2000/svg" xmlns:ev="http://www.w3.org/2001/xml-events" xmlns:v="http://schemas.microsoft.com/visio/2003/SVGExtensions/" xmlns:xlink="http://www.w3.org/1999/xlink">
<style type="text/css">
	
		.st1 {marker-end:url(#mrkr4-6);stroke:#000000;stroke-width:1}
		.st2 {fill:#000000;fill-opacity:1;stroke:#000000;stroke-opacity:1;stroke-width:0.28409090909091}
		.st3 {fill:none;stroke:none;stroke-linecap:round;stroke-linejoin:round;stroke-width:0.72}
		.st4 {fill:#000000;font-family:Arial;font-size:0.833336em}
		.st5 {font-size:1em}
		.st6 {fill:#000000;stroke:none;stroke-linecap:round;stroke-linejoin:round;stroke-width:0.75}
		.st7 {fill:#ffffff;stroke:#000000;stroke-width:1}
		.st8 {fill:#000000;font-family:Arial;font-size:0.916672em}
		.st9 {marker-end:url(#mrkr4-6);marker-start:url(#mrkr4-106);stroke:#000000;stroke-width:1}
		.st10 {stroke:#000000;stroke-linecap:round;stroke-linejoin:round;stroke-width:1}
		.st11 {fill:#ffffff;stroke:#000000;stroke-dasharray:7,5;stroke-width:1}
		.st12 {fill:#0071b9;stroke:none;stroke-linecap:round;stroke-linejoin:round;stroke-width:0.24}
		.st13 {fill:#ffffff;font-family:Arial;font-size:0.916672em}
		.st14 {fill:#0071b9;stroke:#000000;stroke-dasharray:7,5;stroke-width:1}
		.st15 {fill:#4ba3d3;stroke:none;stroke-linecap:round;stroke-linejoin:round;stroke-width:0.24}
		.st16 {fill:#ffffff;font-family:Arial;font-size:0.833336em}
		.st17 {baseline-shift:32.4947%;font-size:0.649894em}
		.st18 {stroke:#000000;stroke-width:1}
		.st19 {fill:#000000;stroke:none;stroke-linecap:butt;stroke-width:0.75}
		.st20 {fill:none;fill-rule:evenodd;font-size:12px;overflow:visible;stroke-linecap:square;stroke-miterlimit:3}
	
	</style>
<defs id="Markers">
<g id="lend4">
<path d="M 2 1 L 0 0 L 2 -1 L 2 1 " style="stroke:none"></path>
</g>
<marker class="st2" id="mrkr4-6" markerunits="strokeWidth" orient="auto" overflow="visible" refx="-7.04" v:arrowsize="2" v:arrowtype="4" v:setback="7.04">
<use transform="scale(-3.52,-3.52) " xlink:href="#lend4"></use>
</marker>
<marker class="st2" id="mrkr4-106" markerunits="strokeWidth" orient="auto" overflow="visible" refx="6.68" v:arrowsize="2" v:arrowtype="4" v:setback="6.68">
<use transform="scale(3.52) " xlink:href="#lend4"></use>
</marker>
</defs>
<g v:groupcontext="foregroundPage" v:index="1" v:mid="8">
<title>Template 1</title>
<g id="shape214-1" transform="translate(342.5,-129.373)" v:groupcontext="shape" v:layermember="1" v:mid="214">
<title>Connector Arrow.214</title>
<path class="st1" d="M0 337.5 L111.71 337.5"></path>
</g>
<g id="shape215-7" transform="translate(342.5,-97.3732)" v:groupcontext="shape" v:layermember="1" v:mid="215">
<title>Connector Arrow.215</title>
<path class="st1" d="M0 337.5 L111.71 337.5"></path>
</g>
<g id="shape216-12" transform="translate(342.5,-81.3732)" v:groupcontext="shape" v:layermember="1" v:mid="216">
<title>Connector Arrow.216</title>
<path class="st1" d="M0 337.5 L111.71 337.5"></path>
</g>
<g id="shape217-17" transform="translate(342.5,-113.373)" v:groupcontext="shape" v:layermember="1" v:mid="217">
<title>Connector Arrow.217</title>
<path class="st1" d="M0 337.5 L111.71 337.5"></path>
</g>
<g id="shape194-22" transform="translate(810,-12.8677)" v:groupcontext="shape" v:mid="194">
<title>JP104</title>
<desc>JP104</desc>
<rect class="st3" height="20.0036" width="72" x="0" y="329.996"></rect>
<text class="st4" v:langid="1033" x="39.65" y="343">JP104</text> </g>
<g id="shape202-25" transform="translate(87.5625,-288.5)" v:groupcontext="shape" v:layermember="1" v:mid="202">
<title>Connector Arrow</title>
<path class="st1" d="M3.06 337.5 L14.9 337.5"></path>
</g>
<g id="shape203-30" transform="translate(210.75,-288.5)" v:groupcontext="shape" v:layermember="1" v:mid="203">
<title>Connector Arrow.203</title>
<path class="st1" d="M0 337.5 L54.59 337.5"></path>
</g>
<g id="shape204-35" transform="translate(209.25,-299.871)" v:groupcontext="shape" v:mid="204">
<title>5V/950mA</title>
<desc>5V/ 950mA</desc>
<rect class="st3" height="33.0037" width="64" x="0" y="316.996"></rect>
<text class="st4" v:langid="1033" x="24.5" y="330">5V/<tspan class="st5" dy="1.3em" x="16.16">950mA</tspan></text> </g>
<g id="shape206-39" transform="translate(373.625,-288.5)" v:groupcontext="shape" v:layermember="1" v:mid="206">
<title>Connector Arrow.206</title>
<path class="st1" d="M0 337.5 L80.13 337.5"></path>
</g>
<g id="shape207-44" transform="translate(373.625,-232.5)" v:groupcontext="shape" v:layermember="1" v:mid="207">
<title>Connector Arrow.207</title>
<path class="st1" d="M0 337.5 L80.83 337.5"></path>
</g>
<g id="shape208-49" transform="translate(373.625,-178.811)" v:groupcontext="shape" v:layermember="1" v:mid="208">
<title>Connector Arrow.208</title>
<path class="st1" d="M0 337.69 L80.59 337.34"></path>
</g>
<g id="shape209-54" transform="translate(421.25,-301)" v:groupcontext="shape" v:layermember="1" v:mid="209">
<title>Connector Arrow.209</title>
<path class="st1" d="M0 350 L15 350 L15 485.35 L-129.38 485.35 L-129.38 494.34"></path>
</g>
<g id="shape210-59" transform="translate(433.705,-298.227)" v:groupcontext="shape" v:mid="210">
<title>Connector 1.160</title>
<ellipse class="st6" cx="2.77275" cy="347.227" rx="2.77275" ry="2.77275"></ellipse>
</g>
<g id="shape211-61" transform="translate(374.25,-299.871)" v:groupcontext="shape" v:mid="211">
<title>3.3V/700mA</title>
<desc>3.3V/ 700mA</desc>
<rect class="st3" height="32.0037" width="64" x="0" y="317.996"></rect>
<text class="st4" v:langid="1033" x="20.32" y="331">3.3V/ <tspan class="st5" dy="1.2em" x="16.16">700mA</tspan></text> </g>
<g id="shape212-65" transform="translate(374.25,-244.621)" v:groupcontext="shape" v:mid="212">
<title>1.8V/</title>
<desc>1.8V/ 100mA</desc>
<rect class="st3" height="33.0037" width="64" x="0" y="316.996"></rect>
<text class="st4" v:langid="1033" x="20.32" y="330">1.8V/<tspan class="st5" dy="1.3em" x="16.16">100mA</tspan></text> </g>
<g id="shape213-69" transform="translate(374.25,-189.498)" v:groupcontext="shape" v:mid="213">
<title>1.2V/1600mA</title>
<desc>1.2V/1600mA</desc>
<rect class="st3" height="32.0037" width="64" x="0" y="317.996"></rect>
<text class="st4" v:langid="1033" x="20.32" y="331">1.2V/<tspan class="st5" dy="1.2em" x="13.38">1600mA</tspan></text> </g>
<g id="shape218-73" transform="translate(341.875,-137.871)" v:groupcontext="shape" v:mid="218">
<title>32.768KHz (RTC)</title>
<desc>32.768KHz (RTC)</desc>
<rect class="st3" height="20.0036" width="111.875" x="0" y="329.996"></rect>
<text class="st4" v:langid="1033" x="16.2" y="343">32.768KHz (RTC)</text> </g>
<g id="shape219-76" transform="translate(341.875,-121.873)" v:groupcontext="shape" v:mid="219">
<title>24MHz (Core)</title>
<desc>24MHz (Core)</desc>
<rect class="st3" height="20.0036" width="111.875" x="0" y="329.996"></rect>
<text class="st4" v:langid="1033" x="24.54" y="343">24MHz (Core)</text> </g>
<g id="shape220-79" transform="translate(341.875,-106.873)" v:groupcontext="shape" v:mid="220">
<title>48MHz (USB)</title>
<desc>48MHz (USB)</desc>
<rect class="st3" height="20.0036" width="111.875" x="0" y="329.996"></rect>
<text class="st4" v:langid="1033" x="25.1" y="343">48MHz (USB)</text> </g>
<g id="shape221-82" transform="translate(341.875,-89.8732)" v:groupcontext="shape" v:mid="221">
<title>Max 50MHz (Audio)</title>
<desc>Max 50MHz (Audio)</desc>
<rect class="st3" height="20.0036" width="111.875" x="0" y="329.996"></rect>
<text class="st4" v:langid="1033" x="11.76" y="343">Max 50MHz (Audio)</text> </g>
<g id="shape223-85" transform="translate(291.875,-89.8732)" v:groupcontext="shape" v:layermember="1" v:mid="223">
<title>Connector Arrow.223</title>
<path class="st1" d="M0 350 L0 413 L246.08 413"></path>
</g>
<g id="shape224-90" transform="translate(430.313,-25.7464)" v:groupcontext="shape" v:mid="224">
<title>25MHz (Ethernet)</title>
<desc>25MHz (Ethernet)</desc>
<rect class="st3" height="20.0036" width="111.875" x="0" y="329.996"></rect>
<text class="st4" v:langid="1033" x="16.48" y="343">25MHz (Ethernet)</text> </g>
<g id="shape201-93" transform="translate(29.375,-284.125)" v:groupcontext="shape" v:mid="201">
<title>DCIN</title>
<desc>DCIN (10~30V)</desc>
<rect class="st7" height="33.75" width="61.25" x="0" y="316.25"></rect>
<text class="st8" v:langid="1033" x="17.18" y="329.82">DCIN<tspan class="st5" dy="1.2em" x="7.85">(10~30V)</tspan></text> </g>
<g id="shape222-97" transform="translate(545,-10)" v:groupcontext="shape" v:mid="222">
<title>MII-PHY</title>
<desc>MII-PHY</desc>
<rect class="st7" height="33.75" width="61.25" x="0" y="316.25"></rect>
<text class="st8" v:langid="1033" x="9.85" y="336.43">MII-PHY</text> </g>
<g id="shape226-100" transform="translate(560.434,-77.875)" v:groupcontext="shape" v:layermember="1" v:mid="226">
<title>Bi-directional</title>
<path class="st9" d="M12.5 356.68 L12.5 357.04 L12.5 376.66"></path>
</g>
<g id="shape228-108" transform="translate(733.648,601.49) rotate(153.435)" v:groupcontext="shape" v:mid="228">
<title>Communication Lines B.795</title>
<path class="st10" d="M0 350 L10.06 350"></path>
</g>
<g id="shape229-111" transform="translate(564.75,-50.8107)" v:groupcontext="shape" v:mid="229">
<title>MII-I/F</title>
<desc>MII-I/F</desc>
<rect class="st3" height="20.0036" width="64.1254" x="0" y="329.996"></rect>
<text class="st8" v:langid="1033" x="16.18" y="343.3">MII-I/F</text> </g>
<g id="shape239-114" transform="translate(684.619,-200.375)" v:groupcontext="shape" v:layermember="1" v:mid="239">
<title>Bi-directional.239</title>
<path class="st9" d="M6.68 337.5 L7.04 337.5 L37.34 337.5"></path>
</g>
<g id="shape240-121" transform="translate(684.619,-115.375)" v:groupcontext="shape" v:layermember="1" v:mid="240">
<title>Connector Arrow.240</title>
<path class="st1" d="M0 337.5 L37.34 337.5"></path>
</g>
<g id="shape241-126" transform="translate(729,-196)" v:groupcontext="shape" v:mid="241">
<title>MIPI Camera</title>
<desc>MIPI Camera</desc>
<path class="st11" d="M0 350 L101.25 350 L101.25 316.25 L0 316.25 L0 350 Z"></path>
<text class="st8" v:langid="1033" x="18.23" y="336.43">MIPI Camera</text> </g>
<g id="shape242-129" transform="translate(729.75,-247.875)" v:groupcontext="shape" v:mid="242">
<title>Optional Non-Renesas Component.242</title>
<desc>Motor Control Unit</desc>
<path class="st11" d="M0 350 L101.25 350 L101.25 277 L0 277 L0 350 Z"></path>
<text class="st8" v:langid="1033" x="6" y="290.9">Motor Control Unit</text> </g>
<a data-link-id="#rs-485" xlink:href="#rs-485">
<g id="shape244-132" transform="translate(744.375,-261)" v:groupcontext="shape" v:mid="244">
<title>RS-485</title>
<desc>RS-485</desc>
<rect class="st12" height="33.75" width="72" x="0" y="316.25"></rect>
<text class="st13" v:langid="1033" x="17.35" y="336.43">RS-485</text> </g>
</a>
<g id="shape245-135" transform="translate(684.619,-265.375)" v:groupcontext="shape" v:layermember="1" v:mid="245">
<title>Bi-directional.245</title>
<path class="st9" d="M6.68 337.5 L7.04 337.5 L37.23 337.5"></path>
</g>
<a data-link-id="#switching-regulator-1" xlink:href="#switching-regulator-1">
<g id="shape196-142" transform="translate(109.5,-284.125)" v:groupcontext="shape" v:mid="196">
<title>Single component</title>
<desc>Switching Regulator</desc>
<rect class="st12" height="33.75" width="101.25" x="0" y="316.25"></rect>
<text class="st13" v:langid="1033" x="27.09" y="329.82">Switching <tspan class="st5" dy="1.2em" x="26.78">Regulator</tspan></text> </g>
</a>
<a data-link-id="#switching-regulator-2" xlink:href="#switching-regulator-2">
<g id="shape197-146" transform="translate(272.375,-284.125)" v:groupcontext="shape" v:mid="197">
<title>Switching-Regulator</title>
<desc>Switching Regulator</desc>
<rect class="st12" height="33.75" width="101.25" x="0" y="316.25"></rect>
<text class="st13" v:langid="1033" x="27.09" y="329.82">Switching <tspan class="st5" dy="1.2em" x="26.78">Regulator</tspan></text> </g>
</a>
<a data-link-id="#ldo" xlink:href="#ldo">
<g id="shape198-150" transform="translate(272.375,-228.125)" v:groupcontext="shape" v:mid="198">
<title>LDO</title>
<desc>LDO</desc>
<rect class="st12" height="33.75" width="101.25" x="0" y="316.25"></rect>
<text class="st13" v:langid="1033" x="39.32" y="336.43">LDO</text> </g>
</a>
<a data-link-id="#switching-regulator-3" xlink:href="#switching-regulator-3">
<g id="shape199-153" transform="translate(272.375,-174.248)" v:groupcontext="shape" v:mid="199">
<title>Switching Regulator </title>
<desc>Switching Regulator</desc>
<rect class="st12" height="33.75" width="101.25" x="0" y="316.25"></rect>
<text class="st13" v:langid="1033" x="27.09" y="329.82">Switching <tspan class="st5" dy="1.2em" x="26.78">Regulator</tspan></text> </g>
</a>
<a data-link-id="#clock-generator" xlink:href="#clock-generator">
<g id="shape200-157" transform="translate(241.25,-89.8732)" v:groupcontext="shape" v:mid="200">
<title>Clock Generator</title>
<desc>Clock Generator</desc>
<rect class="st12" height="59.75" width="101.25" x="0" y="290.25"></rect>
<text class="st13" v:langid="1033" x="10.58" y="323.43">Clock Generator</text> </g>
</a>
<a data-link-id="#audio-processor" xlink:href="#audio-processor">
<g id="shape243-160" transform="translate(729,-111)" v:groupcontext="shape" v:mid="243">
<title>Audio Processor</title>
<desc>Audio Processor</desc>
<path class="st14" d="M0 350 L101.25 350 L101.25 316.25 L0 316.25 L0 350 Z"></path>
<text class="st13" v:langid="1033" x="10.27" y="336.43">Audio Processor</text> </g>
</a>
<a data-link-id="#mpu" xlink:href="#mpu">
<g id="group246-163" transform="translate(461.25,-77.875)" v:groupcontext="group" v:mid="246">
<title>Sheet.246</title>
<g id="shape195-164" v:groupcontext="shape" v:mid="195">
<title>MPU</title>
<desc>MPU</desc>
<rect class="st12" height="258.375" width="223.369" x="0" y="91.625"></rect>
<text class="st13" v:langid="1033" x="99.46" y="109.53">MPU</text> </g>
<g id="shape231-167" transform="translate(4.99999,-80)" v:groupcontext="shape" v:mid="231">
<title>DRP</title>
<desc>DRP</desc>
<rect class="st15" height="22.648" width="61.204" x="0" y="327.352"></rect>
<text class="st16" v:langid="1033" x="20.05" y="341.68">DRP</text> </g>
<g id="shape232-170" transform="translate(4.99999,-5)" v:groupcontext="shape" v:mid="232">
<title>Clock Generator.232</title>
<desc>Clock Generator</desc>
<rect class="st15" height="64.75" width="61.204" x="0" y="285.25"></rect>
<text class="st16" v:langid="1033" x="18.1" y="314.62">Clock <tspan class="st5" dy="1.2em" x="8.09">Generator</tspan></text> </g>
<g id="shape233-174" transform="translate(81.0824,-5)" v:groupcontext="shape" v:mid="233">
<title>Ethernet MAC</title>
<desc>Ethernet MAC</desc>
<rect class="st15" height="32.375" width="61.204" x="0" y="317.625"></rect>
<text class="st16" v:langid="1033" x="11.7" y="330.81">Ethernet <tspan class="st5" dy="1.2em" x="19.49">MAC</tspan></text> </g>
<g id="shape234-178" transform="translate(157.5,-38.4202)" v:groupcontext="shape" v:mid="234">
<title>SSI (I2S)</title>
<desc>SSI (I2S)</desc>
<rect class="st15" height="22.648" width="61.204" x="0" y="327.352"></rect>
<text class="st16" v:langid="1033" x="11.29" y="341.68">SSI (I<tspan class="st17" dy="-0.235em" v:basefontsize="10">2</tspan><tspan class="st5" dy="0.153em">S)</tspan></text> </g>
<g id="shape235-183" transform="translate(157.5,-88.9317)" v:groupcontext="shape" v:mid="235">
<title>I2C</title>
<desc>I2C</desc>
<rect class="st15" height="22.648" width="61.204" x="0" y="327.352"></rect>
<text class="st16" v:langid="1033" x="23.79" y="341.68">I<tspan class="st17" dy="-0.235em" v:basefontsize="10">2</tspan><tspan class="st5" dy="0.153em">C</tspan></text> </g>
<g id="shape236-188" transform="translate(157.5,-125)" v:groupcontext="shape" v:mid="236">
<title>MIPI-CSI</title>
<desc>MIPI-CSI</desc>
<rect class="st15" height="22.648" width="61.204" x="0" y="327.352"></rect>
<text class="st16" v:langid="1033" x="10.32" y="341.68">MIPI-CSI</text> </g>
<g id="shape237-191" transform="translate(157.5,-188.676)" v:groupcontext="shape" v:mid="237">
<title>UART</title>
<desc>UART</desc>
<rect class="st15" height="22.648" width="61.204" x="0" y="327.352"></rect>
<text class="st16" v:langid="1033" x="16.99" y="341.68">UART</text> </g>
</g>
</a>
<g id="shape247-194" transform="translate(239.25,-232.5)" v:groupcontext="shape" v:layermember="1" v:mid="247">
<title>Connector Arrow.247</title>
<path class="st1" d="M0 337.5 L26.09 337.5"></path>
</g>
<g id="shape248-199" transform="translate(238.55,-178.623)" v:groupcontext="shape" v:layermember="1" v:mid="248">
<title>Connector Arrow.248</title>
<path class="st1" d="M0 337.5 L26.79 337.5"></path>
</g>
<g id="shape249-204" transform="translate(236.25,-298.227)" v:groupcontext="shape" v:mid="249">
<title>Connector 1.160.249</title>
<ellipse class="st6" cx="2.77275" cy="347.227" rx="2.77275" ry="2.77275"></ellipse>
</g>
<g id="shape250-206" transform="translate(226,-191.413)" v:groupcontext="shape" v:layermember="1" v:mid="250">
<title>Connector Line</title>
<path class="st18" d="M12.5 350 L12.5 241.54"></path>
</g>
<g id="shape251-209" transform="translate(828.307,-115.375)" v:groupcontext="shape" v:layermember="1" v:mid="251">
<title>Connector Arrow.251</title>
<path class="st1" d="M1.94 337.5 L16.02 337.5"></path>
</g>
<g id="group252-214" transform="translate(855.375,-114.315)" v:groupcontext="group" v:layermember="0" v:mid="252">
<title>Speaker</title>
<g id="group253-215" v:groupcontext="group" v:layermember="0" v:mid="253">
<title>speaker_8_</title>
<g id="shape254-216" transform="translate(0,-7.62129)" v:groupcontext="shape" v:layermember="0" v:mid="254">
<title>Sheet.254</title>
<path class="st19" d="M4.95 349.01 C4.95 349.51 4.45 350 3.96 350 L0.99 350 C0.49 350 0 349.51 0 349.01 L0 339.11 C-0 338.62          0.49 338.12 0.99 338.12 L3.96 338.12 C4.45 338.12 4.95 338.62 4.95 339.11 L4.95 349.01 Z"></path>
</g>
<g id="shape255-218" transform="translate(6.92845,0)" v:groupcontext="shape" v:layermember="0" v:mid="255">
<title>Sheet.255</title>
<path class="st19" d="M0.69 330.8 C0.3 331.19 0 331.99 0 332.48 L0 340.4 C0 340.89 0.3 341.69 0.69 342.08 L8.22 349.6 C8.61          350 8.91 349.9 8.91 349.31 L8.91 323.57 C8.91 323.08 8.61 322.88 8.22 323.28 L0.69 330.8 Z"></path>
</g>
</g>
<g id="shape256-220" transform="translate(18.4099,-8.71005)" v:groupcontext="shape" v:layermember="0" v:mid="256">
<title>Sheet.256</title>
<path class="st19" d="M0.79 340.4 L0 342.08 C0.99 342.87 1.58 344.16 1.58 345.15 C1.58 346.44 0.99 347.62 0 348.42 L0.79 350 C2.28         348.91 3.27 347.13 3.27 345.15 C3.27 343.17 2.28 341.49 0.79 340.4 Z"></path>
</g>
<g id="shape257-222" transform="translate(20.4884,-4.25605)" v:groupcontext="shape" v:layermember="0" v:mid="257">
<title>Sheet.257</title>
<path class="st19" d="M0.89 331.49 L0 333.37 C2.47 334.96 4.16 337.73 4.16 340.7 C4.16 343.86 2.47 346.63 0 348.22 L0.89 350 C4.06         348.12 6.14 344.66 6.14 340.7 C6.14 336.74 4.06 333.37 0.89 331.49 Z"></path>
</g>
</g>
</g>
</svg>