<?xml version="1.0" encoding="UTF-8" standalone="no"?>
<!DOCTYPE svg PUBLIC "-//W3C//DTD SVG 1.1//EN" "http://www.w3.org/Graphics/SVG/1.1/DTD/svg11.dtd">
<svg class="st20" color-interpolation-filters="sRGB" height="8.05556in" viewbox="0 0 900 580" width="12.5in" xml:space="preserve" xmlns="http://www.w3.org/2000/svg" xmlns:ev="http://www.w3.org/2001/xml-events" xmlns:v="http://schemas.microsoft.com/visio/2003/SVGExtensions/" xmlns:xlink="http://www.w3.org/1999/xlink">
<style type="text/css">
	
		.st1 {stroke:#000000;stroke-width:1}
		.st2 {stroke:#000000;stroke-linecap:round;stroke-linejoin:round;stroke-width:0.75}
		.st3 {marker-end:url(#mrkr4-46);stroke:#000000;stroke-width:1}
		.st4 {fill:#000000;fill-opacity:1;stroke:#000000;stroke-opacity:1;stroke-width:0.28409090909091}
		.st5 {fill:#0071b9;stroke:none;stroke-linecap:round;stroke-linejoin:round;stroke-width:0.24}
		.st6 {fill:#ffffff;font-family:Arial;font-size:0.916672em}
		.st7 {fill:#ffffff;stroke:#000000;stroke-width:1}
		.st8 {fill:#000000;font-family:Arial;font-size:0.916672em}
		.st9 {fill:none;stroke:none;stroke-linecap:round;stroke-linejoin:round;stroke-width:0.72}
		.st10 {fill:#000000;font-family:Arial;font-size:0.833336em}
		.st11 {font-size:1em}
		.st12 {marker-end:url(#mrkr4-46);marker-start:url(#mrkr4-91);stroke:#000000;stroke-width:1}
		.st13 {marker-end:url(#mrkr4-46);marker-start:url(#mrkr10-120);stroke:#000000;stroke-width:1}
		.st14 {marker-start:url(#mrkr10-120);stroke:#000000;stroke-width:1}
		.st15 {fill:#4ba3d3;stroke:none;stroke-linecap:round;stroke-linejoin:round;stroke-width:0.24}
		.st16 {fill:#ffffff;font-family:Arial;font-size:0.833336em}
		.st17 {baseline-shift:32.4947%;font-size:0.649894em}
		.st18 {stroke:#ffffff;stroke-width:1}
		.st19 {fill:none;stroke:#ffffff;stroke-linecap:round;stroke-linejoin:round;stroke-width:1}
		.st20 {fill:none;fill-rule:evenodd;font-size:12px;overflow:visible;stroke-linecap:square;stroke-miterlimit:3}
	
	</style>
<defs id="Markers">
<g id="lend4">
<path d="M 2 1 L 0 0 L 2 -1 L 2 1 " style="stroke:none"></path>
</g>
<marker class="st4" id="mrkr4-46" markerunits="strokeWidth" orient="auto" overflow="visible" refx="-7.04" v:arrowsize="2" v:arrowtype="4" v:setback="7.04">
<use transform="scale(-3.52,-3.52) " xlink:href="#lend4"></use>
</marker>
<marker class="st4" id="mrkr4-91" markerunits="strokeWidth" orient="auto" overflow="visible" refx="6.68" v:arrowsize="2" v:arrowtype="4" v:setback="6.68">
<use transform="scale(3.52) " xlink:href="#lend4"></use>
</marker>
<g id="lend10">
<path d="M 0 0.75 C -0.414214 0.75 -0.75 0.414214 -0.75 0 -0.75 -0.414214 -0.414214 -0.75 0 -0.75 0.414214 -0.75 0.75 -0.414214 0.75 0 0.75 0.414214 0.414214 0.75 0 0.75 Z " style="stroke:none"></path>
</g>
<marker class="st4" id="mrkr10-120" markerunits="strokeWidth" orient="auto" overflow="visible" refx="2.28" v:arrowsize="2" v:arrowtype="10" v:setback="2.28">
<use transform="scale(3.52) " xlink:href="#lend10"></use>
</marker>
</defs>
<g v:groupcontext="foregroundPage" v:index="1" v:mid="8">
<title>Web Diagram</title>
<g id="group119-1" transform="translate(795.942,-222)" v:groupcontext="group" v:mid="119">
<title>Antenna</title>
<g id="shape120-2" transform="translate(588.317,569.084) rotate(90)" v:groupcontext="shape" v:mid="120">
<title>Sheet.120</title>
<path class="st1" d="M0 580 L10.92 580"></path>
</g>
<g id="group121-5" transform="translate(0,-10.9164)" v:groupcontext="group" v:mid="121">
<title>Sheet.121</title>
<g id="shape122-6" transform="translate(0,-13.3803)" v:groupcontext="shape" v:mid="122">
<title>Sheet.122</title>
<path class="st2" d="M0 580 L16.42 580"></path>
</g>
<g id="shape123-9" transform="translate(492.586,260.418) rotate(58.134)" v:groupcontext="shape" v:mid="123">
<title>Sheet.123</title>
<path class="st2" d="M0 580 L15.75 580"></path>
</g>
<g id="shape124-12" transform="translate(512.526,867.086) rotate(121.201)" v:groupcontext="shape" v:mid="124">
<title>Sheet.124</title>
<path class="st2" d="M0 580 L15.64 580"></path>
</g>
</g>
</g>
<g id="shape92-15" transform="translate(166.653,-257.766)" v:groupcontext="shape" v:layermember="1" v:mid="92">
<title>Connector Line.92</title>
<path class="st1" d="M-12.5 580 L-12.5 632.65"></path>
</g>
<g id="shape140-18" transform="translate(73.8889,-355.915)" v:groupcontext="shape" v:layermember="1" v:mid="140">
<title>Connector Line</title>
<path class="st1" d="M12.5 584.58 L12.5 600.42"></path>
</g>
<g id="group169-21" transform="translate(80.6757,-306.5)" v:groupcontext="group" v:mid="169">
<title>Sheet.169</title>
<g id="shape14-22" transform="translate(-4.73659E-12,-23)" v:groupcontext="shape" v:mid="14">
<title>Sheet.14</title>
<path class="st1" d="M0 580 L11.32 580"></path>
</g>
<g id="shape15-25" transform="translate(2.2308,-19.2)" v:groupcontext="shape" v:mid="15">
<title>Sheet.15</title>
<path class="st1" d="M0 580 L6.86 580"></path>
</g>
<g id="shape16-28" transform="translate(585.662,561) rotate(90)" v:groupcontext="shape" v:mid="16">
<title>Line 1pt.1552</title>
<path class="st1" d="M0 580 L6 580"></path>
</g>
<g id="shape17-31" transform="translate(585.724,551) rotate(90)" v:groupcontext="shape" v:mid="17">
<title>Line 1pt.1583</title>
<path class="st1" d="M0 580 L6 580"></path>
</g>
<g id="group23-34" v:groupcontext="group" v:mid="23">
<title>Ground</title>
<g id="shape24-35" transform="translate(585.662,565.685) rotate(90)" v:groupcontext="shape" v:mid="24">
<title>Sheet.24</title>
<path class="st1" d="M0 580 L14.29 580"></path>
</g>
<g id="shape25-38" transform="translate(11.3243,1160) rotate(180)" v:groupcontext="shape" v:mid="25">
<title>Sheet.25</title>
<path class="st1" d="M0 580 L11.32 580"></path>
</g>
</g>
</g>
<g id="shape146-41" transform="translate(63.7931,-459.978)" v:groupcontext="shape" v:layermember="1" v:mid="146">
<title>Connector Arrow.146</title>
<path class="st3" d="M0 580 L-39.02 580 L-39.02 672.45 L-32.56 672.45"></path>
</g>
<g id="group131-47" transform="translate(-525,93.2352) rotate(-90)" v:groupcontext="group" v:mid="131">
<title>Antenna.131</title>
<g id="shape132-48" transform="translate(588.305,572.905) rotate(90.3775)" v:groupcontext="shape" v:mid="132">
<title>Sheet.132</title>
<path class="st1" d="M0 580 L12.49 580"></path>
</g>
<g id="group133-51" transform="translate(0,-10.9164)" v:groupcontext="group" v:mid="133">
<title>Sheet.133</title>
<g id="shape134-52" transform="translate(0,-13.3803)" v:groupcontext="shape" v:mid="134">
<title>Sheet.134</title>
<path class="st2" d="M0 580 L16.42 580"></path>
</g>
<g id="shape135-55" transform="translate(492.586,260.418) rotate(58.134)" v:groupcontext="shape" v:mid="135">
<title>Sheet.135</title>
<path class="st2" d="M0 580 L15.75 580"></path>
</g>
<g id="shape136-58" transform="translate(512.526,867.086) rotate(121.201)" v:groupcontext="shape" v:mid="136">
<title>Sheet.136</title>
<path class="st2" d="M0 580 L15.64 580"></path>
</g>
</g>
</g>
<g id="shape147-61" transform="translate(185,-412.114)" v:groupcontext="shape" v:layermember="1" v:mid="147">
<title>Connector Arrow.147</title>
<path class="st3" d="M0 580 L0 618.77 L-30.85 618.77 L-30.85 693.56"></path>
</g>
<g id="shape141-66" transform="translate(98.4566,-416.756)" v:groupcontext="shape" v:layermember="1" v:mid="141">
<title>Connector Line.141</title>
<path class="st1" d="M-12.46 580 L-12.54 613.04"></path>
</g>
<a data-link-id="#buck-boost" xlink:href="#buck-boost">
<g id="shape4-69" transform="translate(103.528,-257.766)" v:groupcontext="shape" v:mid="4">
<title>Buck-Boost</title>
<desc>Buck-Boost</desc>
<rect class="st5" height="33.75" width="101.25" x="0" y="546.25"></rect>
<text class="st6" v:langid="1033" x="22.5" y="566.43">Buck-Boost</text> </g>
</a>
<g id="shape8-72" transform="translate(166.733,-114.547)" v:groupcontext="shape" v:mid="8">
<title>Piezoelectric Film</title>
<desc>Piezoelectric Film</desc>
<rect class="st7" height="33.75" width="101.25" x="0" y="546.25"></rect>
<text class="st8" v:langid="1033" x="7.53" y="566.43">Piezoelectric Film</text> </g>
<g id="shape9-75" transform="translate(753.528,-114.544)" v:groupcontext="shape" v:mid="9">
<title>OLED Display</title>
<desc>OLED Display</desc>
<rect class="st7" height="33.75" width="101.25" x="0" y="546.25"></rect>
<text class="st8" v:langid="1033" x="16.09" y="566.43">OLED Display</text> </g>
<g id="shape46-78" transform="translate(18,-315.496)" v:groupcontext="shape" v:mid="46">
<title>Label Text 10pt.262</title>
<desc>Li-ion Cell</desc>
<rect class="st9" height="20.0036" width="72" x="0" y="559.996"></rect>
<text class="st10" v:langid="1033" x="13.77" y="573">Li-ion Cell</text> </g>
<a data-link-id="#ble" xlink:href="#ble">
<g id="shape48-81" transform="translate(753.528,-188.516)" v:groupcontext="shape" v:mid="48">
<title>Bluetooth Low Energy</title>
<desc>Bluetooth Low Energy</desc>
<rect class="st5" height="33.75" width="101.25" x="0" y="546.25"></rect>
<text class="st6" v:langid="1033" x="15.77" y="559.82">Bluetooth Low <tspan class="st11" dy="1.2em" x="33.2">Energy</tspan></text> </g>
</a>
<g id="shape49-85" transform="translate(692.324,-192.695)" v:groupcontext="shape" v:layermember="1" v:mid="49">
<title>Bi-directional</title>
<path class="st12" d="M6.68 567.65 L7.04 567.65 L54.16 567.35"></path>
</g>
<g id="shape50-93" transform="translate(692.324,-118.919)" v:groupcontext="shape" v:layermember="1" v:mid="50">
<title>Bi-directional.50</title>
<path class="st12" d="M6.68 567.5 L7.04 567.5 L54.16 567.5"></path>
</g>
<g id="shape76-100" transform="translate(267.983,-118.922)" v:groupcontext="shape" v:layermember="1" v:mid="76">
<title>Connector Arrow.76</title>
<path class="st3" d="M0 567.5 L27.02 567.5"></path>
</g>
<g id="shape79-105" transform="translate(437.046,-119.128)" v:groupcontext="shape" v:layermember="1" v:mid="79">
<title>Connector Arrow.79</title>
<path class="st3" d="M0 567.87 L71.5 567.2"></path>
</g>
<a data-link-id="#temp-sensor" xlink:href="#temp-sensor">
<g id="shape80-110" transform="translate(302,-188.125)" v:groupcontext="shape" v:mid="80">
<title>Humidity &amp; Temperature Sensor</title>
<desc>Humidity &amp; Temperature Sensor</desc>
<rect class="st5" height="33.75" width="135.954" x="0" y="546.25"></rect>
<text class="st6" v:langid="1033" x="41.39" y="561.83">Humidity &amp;<tspan class="st11" dy="1.2em" x="17.54">Temperature Sensor</tspan></text> </g>
</a>
<g id="shape84-114" transform="translate(476.793,-205)" v:groupcontext="shape" v:layermember="1" v:mid="84">
<title>Connected signals arrow.84</title>
<path class="st13" d="M0 582.28 L0 582.64 L0 631.86 L-32.71 631.86"></path>
</g>
<g id="shape94-122" transform="translate(141.677,-205.114)" v:groupcontext="shape" v:layermember="1" v:mid="94">
<title>Connected signals line</title>
<path class="st14" d="M12.48 582.28 L12.48 582.64 L12.52 621"></path>
</g>
<g id="shape96-127" transform="translate(154.153,-217.557)" v:groupcontext="shape" v:layermember="1" v:mid="96">
<title>Connected signals arrow</title>
<path class="st13" d="M2.28 592.44 L2.64 592.44 L140.81 592.55"></path>
</g>
<g id="shape100-134" transform="translate(591.455,-59.2666)" v:groupcontext="shape" v:layermember="1" v:mid="100">
<title>Connector Arrow</title>
<path class="st3" d="M12.5 577.15 L12.5 564.89"></path>
</g>
<g id="shape106-139" transform="translate(791.653,-166.815)" v:groupcontext="shape" v:layermember="1" v:mid="106">
<title>Connector Arrow.105</title>
<path class="st3" d="M12.5 576.7 L12.5 565.34"></path>
</g>
<g id="shape109-144" transform="translate(166.653,-165.114)" v:groupcontext="shape" v:layermember="1" v:mid="109">
<title>Connector Line.109</title>
<path class="st1" d="M-12.5 580 L-12.5 683"></path>
</g>
<g id="shape110-147" transform="translate(152.778,-49.6144)" v:groupcontext="shape" v:layermember="1" v:mid="110">
<title>Connector Line.110</title>
<path class="st1" d="M0 567.5 L451.18 567.5"></path>
</g>
<g id="shape111-150" transform="translate(154.153,-152.614)" v:groupcontext="shape" v:layermember="1" v:mid="111">
<title>Connected signals arrow.111</title>
<path class="st13" d="M2.28 567.5 L2.64 567.5 L140.85 567.5"></path>
</g>
<g id="shape113-157" transform="translate(603.955,-49.6144)" v:groupcontext="shape" v:layermember="1" v:mid="113">
<title>Connected signals line.113</title>
<path class="st14" d="M2.28 567.5 L2.64 567.5 L200.82 567.5"></path>
</g>
<g id="shape114-162" transform="translate(792.278,-62.1144)" v:groupcontext="shape" v:layermember="1" v:mid="114">
<title>Connector Arrow.114</title>
<path class="st3" d="M12.5 580 L12.5 534.61"></path>
</g>
<g id="shape115-167" transform="translate(103.528,-235.996)" v:groupcontext="shape" v:mid="115">
<title>Label Text 10pt.115</title>
<desc>3.3V</desc>
<rect class="st9" height="20.0036" width="72" x="0" y="559.996"></rect>
<text class="st10" v:langid="1033" x="25.71" y="573">3.3V</text> </g>
<g id="shape116-170" transform="translate(804.778,-49.6144)" v:groupcontext="shape" v:layermember="1" v:mid="116">
<title>Connected signals line.116</title>
<path class="st14" d="M2.28 567.5 L2.64 567.5 L77.22 567.5"></path>
</g>
<g id="shape117-175" transform="translate(894.5,-170.114)" v:groupcontext="shape" v:layermember="1" v:mid="117">
<title>Connector Line.117</title>
<path class="st1" d="M-12.5 580 L-12.5 688"></path>
</g>
<g id="shape118-178" transform="translate(804.153,-157.614)" v:groupcontext="shape" v:layermember="1" v:mid="118">
<title>Connector Line.118</title>
<path class="st1" d="M0 567.5 L77.85 567.5"></path>
</g>
<a data-link-id="#load-switch" xlink:href="#load-switch">
<g id="shape139-181" transform="translate(38.2778,-351.33)" v:groupcontext="shape" v:mid="139">
<title>Load Switch</title>
<desc>Load Switch</desc>
<rect class="st5" height="32.386" width="96.2222" x="0" y="547.614"></rect>
<text class="st6" v:langid="1033" x="18.15" y="567.11">Load Switch</text> </g>
</a>
<g id="shape148-184" transform="translate(476.793,-205)" v:groupcontext="shape" v:layermember="1" v:mid="148">
<title>Connected signals arrow.148</title>
<path class="st13" d="M0 577.72 L0 577.36 L0 289 L-255.46 289"></path>
</g>
<g id="shape149-191" transform="translate(810,-20.4001)" v:groupcontext="shape" v:mid="149">
<title>WS023</title>
<desc>WS023</desc>
<rect class="st9" height="20.0036" width="72" x="0" y="559.996"></rect>
<text class="st10" v:langid="1033" x="35.21" y="573">WS023</text> </g>
<g id="shape150-194" transform="translate(145,-326.97)" v:groupcontext="shape" v:mid="150">
<title>Label Text 10pt.150</title>
<desc>3.0 - 5.2V</desc>
<rect class="st9" height="20.0036" width="72" x="0" y="559.996"></rect>
<text class="st10" v:langid="1033" x="14.32" y="573">3.0 - 5.2V</text> </g>
<g id="shape156-197" transform="translate(438,-205)" v:groupcontext="shape" v:mid="156">
<title>Sheet.156</title>
<path class="st12" d="M70.91 580 L70.55 580 L7.04 580"></path>
</g>
<a data-link-id="#mcu" xlink:href="#mcu">
<g id="group157-204" transform="translate(515.586,-81.4188)" v:groupcontext="group" v:mid="157">
<title>Sheet.157</title>
<g id="shape1-205" v:groupcontext="shape" v:mid="1">
<title>MCU</title>
<desc>MCU</desc>
<rect class="st5" height="188.375" width="176.737" x="0" y="391.625"></rect>
<text class="st6" v:langid="1033" x="75.84" y="409.53">MCU</text> </g>
<g id="shape2-208" transform="translate(7.20682,-115.755)" v:groupcontext="shape" v:mid="2">
<title>I2C</title>
<desc>I2C</desc>
<rect class="st15" height="16.4349" width="44.4136" x="0" y="563.565"></rect>
<text class="st16" v:langid="1033" x="15.4" y="574.78">I<tspan class="st17" dy="-0.235em" v:basefontsize="10">2</tspan><tspan class="st11" dy="0.153em">C</tspan></text> </g>
<g id="shape10-213" transform="translate(7.20682,-41.7862)" v:groupcontext="shape" v:mid="10">
<title>ADC</title>
<desc>ADC</desc>
<rect class="st15" height="16.4349" width="44.4136" x="0" y="563.565"></rect>
<text class="st16" v:langid="1033" x="11.65" y="574.78">ADC</text> </g>
<g id="shape11-216" transform="translate(125,-41.7862)" v:groupcontext="shape" v:mid="11">
<title>SPI</title>
<desc>SPI</desc>
<rect class="st15" height="16.4349" width="44.4136" x="0" y="563.565"></rect>
<text class="st16" v:langid="1033" x="14.15" y="574.78">SPI</text> </g>
<g id="shape12-219" transform="translate(125,-115.755)" v:groupcontext="shape" v:mid="12">
<title>UART</title>
<desc>UART</desc>
<rect class="st15" height="16.4349" width="44.4136" x="0" y="563.565"></rect>
<text class="st16" v:langid="1033" x="8.6" y="574.78">UART</text> </g>
</g>
</a>
<g id="group160-222" transform="translate(300.046,-83.0948)" v:groupcontext="group" v:mid="160">
<title>Sheet.160</title>
<a data-link-id="#greenpak" xlink:href="#greenpak">
<g id="shape64-223" transform="translate(2,0)" v:groupcontext="shape" v:mid="64">
<title>GreenPAK</title>
<desc>GreenPAK</desc>
<rect class="st5" height="92.0196" width="135" x="0" y="487.98"></rect>
<text class="st6" v:langid="1033" x="41.21" y="505.88">GreenPAK</text> </g>
</a>
<g id="shape66-226" transform="translate(2,-8.324)" v:groupcontext="shape" v:mid="66">
<title>I/V Converter</title>
<desc>I/V Converter</desc>
<rect class="st9" height="20.0036" width="72" x="0" y="559.996"></rect>
<text class="st16" v:langid="1033" x="6.54" y="573">I/V Converter</text> </g>
<g id="shape75-229" transform="translate(-0.263513,-35.824)" v:groupcontext="shape" v:layermember="1" v:mid="75">
<title>Connector Line.75</title>
<path class="st18" d="M2.74 567.5 L22.26 567.5"></path>
</g>
<g id="shape65-232" transform="translate(22,-29.4386)" v:groupcontext="shape" v:mid="65">
<title>Driver</title>
<path class="st19" d="M34.06 561.34 L0 580 L0 542.22 L34.06 561.34 Z"></path>
</g>
<g id="shape67-234" transform="translate(89.9964,-29.4386)" v:groupcontext="shape" v:mid="67">
<title>Driver.67</title>
<path class="st19" d="M34.06 561.34 L0 580 L0 542.22 L34.06 561.34 Z"></path>
</g>
<g id="shape68-236" transform="translate(70,-8.32764)" v:groupcontext="shape" v:mid="68">
<title>Amplifier</title>
<desc>Amplifier</desc>
<rect class="st9" height="20.0036" width="72" x="0" y="559.996"></rect>
<text class="st16" v:langid="1033" x="16.55" y="573">Amplifier</text> </g>
<g id="shape71-239" transform="translate(56.0622,-35.7139)" v:groupcontext="shape" v:layermember="1" v:mid="71">
<title>Connector Line.71</title>
<path class="st18" d="M0 567.61 L33.93 567.39"></path>
</g>
<g id="shape78-242" transform="translate(117.797,-60.662)" v:groupcontext="shape" v:layermember="1" v:mid="78">
<title>Connector Line.78</title>
<path class="st18" d="M6.15 592.5 L18.85 592.5"></path>
</g>
</g>
<g id="group170-245" transform="translate(56.5748,-412.114)" v:groupcontext="group" v:mid="170">
<title>Sheet.170</title>
<a data-link-id="#nfc" xlink:href="#nfc">
<g id="shape125-246" v:groupcontext="shape" v:mid="125">
<title>NFC WLC Listener</title>
<desc>NFC WLC Listener</desc>
<rect class="st5" height="125.771" width="157.722" x="0" y="454.229"></rect>
<text class="st6" v:langid="1033" x="32.71" y="472.13">NFC WLC Listener</text> </g>
</a>
<g id="shape129-249" transform="translate(7.21825,-4.64164)" v:groupcontext="shape" v:mid="129">
<title>VBAT</title>
<desc>VBAT</desc>
<rect class="st15" height="16.435" width="44.4139" x="0" y="563.565"></rect>
<text class="st16" v:langid="1033" x="9.15" y="574.78">VBAT</text> </g>
<g id="shape137-252" transform="translate(106.218,-74.6367)" v:groupcontext="shape" v:mid="137">
<title> I2C</title>
<desc>I2C</desc>
<rect class="st15" height="16.435" width="44.4139" x="0" y="563.565"></rect>
<text class="st16" v:langid="1033" x="15.4" y="574.78">I<tspan class="st17" dy="-0.235em" v:basefontsize="10">2</tspan><tspan class="st11" dy="0.153em">C</tspan></text> </g>
<g id="shape138-257" transform="translate(106.492,-4.64164)" v:groupcontext="shape" v:mid="138">
<title>VDDC</title>
<desc>VDDC</desc>
<rect class="st15" height="16.435" width="44.14" x="0" y="563.565"></rect>
<text class="st16" v:langid="1033" x="7.9" y="574.78">VDDC</text> </g>
<g id="shape142-260" transform="translate(7.21825,-39.646)" v:groupcontext="shape" v:mid="142">
<title>GPO</title>
<desc>GPO</desc>
<rect class="st15" height="16.435" width="44.4139" x="0" y="563.565"></rect>
<text class="st16" v:langid="1033" x="11.09" y="574.78">GPO</text> </g>
<g id="shape130-263" transform="translate(7.21825,-74.6504)" v:groupcontext="shape" v:mid="130">
<title>RF</title>
<desc>RF</desc>
<rect class="st15" height="16.435" width="44.4139" x="0" y="563.565"></rect>
<text class="st16" v:langid="1033" x="15.54" y="574.78">RF</text> </g>
</g>
<g id="group172-266" transform="translate(573.693,-511.202)" v:groupcontext="group" v:mid="172">
<title>Quad component</title>
</g>
</g>
</svg>