<?xml version="1.0" encoding="UTF-8" standalone="no"?>
<!DOCTYPE svg PUBLIC "-//W3C//DTD SVG 1.1//EN" "http://www.w3.org/Graphics/SVG/1.1/DTD/svg11.dtd">
<svg class="st25" color-interpolation-filters="sRGB" height="8.33333in" viewbox="0 0 900 600" width="12.5in" xml:space="preserve" xmlns="http://www.w3.org/2000/svg" xmlns:ev="http://www.w3.org/2001/xml-events" xmlns:v="http://schemas.microsoft.com/visio/2003/SVGExtensions/" xmlns:xlink="http://www.w3.org/1999/xlink">
<style type="text/css">
	
		.st1 {fill:#ffffff;stroke:#000000;stroke-dasharray:7,5;stroke-width:1}
		.st2 {fill:#000000;font-family:Arial;font-size:0.833336em}
		.st3 {fill:#dbeef3;stroke:none;stroke-linecap:round;stroke-linejoin:round;stroke-width:0.75}
		.st4 {fill:none;stroke:none;stroke-width:0.72}
		.st5 {fill:#0071b9;stroke:none;stroke-width:1}
		.st6 {fill:#ffffff;font-family:Arial;font-size:0.916672em}
		.st7 {font-size:1em}
		.st8 {fill:#ffffff;stroke:#000000;stroke-width:1}
		.st9 {fill:#000000;font-family:Arial;font-size:0.916672em}
		.st10 {fill:none;stroke:#000000;stroke-dasharray:7,5;stroke-width:1}
		.st11 {fill:none;stroke:#000000;stroke-linecap:round;stroke-linejoin:round;stroke-width:1}
		.st12 {baseline-shift:-32.4947%;font-size:0.649894em}
		.st13 {marker-end:url(#mrkr4-67);stroke:#000000;stroke-width:1}
		.st14 {fill:#000000;fill-opacity:1;stroke:#000000;stroke-opacity:1;stroke-width:0.28409090909091}
		.st15 {stroke:#000000;stroke-width:1}
		.st16 {marker-start:url(#mrkr4-81);stroke:#000000;stroke-width:1}
		.st17 {marker-end:url(#mrkr4-67);marker-start:url(#mrkr4-81);stroke:#000000;stroke-width:1}
		.st18 {fill:#ffffff;stroke:#000000;stroke-linecap:round;stroke-linejoin:round;stroke-width:1.5}
		.st19 {fill:none;stroke:none;stroke-linecap:round;stroke-linejoin:round;stroke-width:1.5}
		.st20 {fill:#000000;font-family:Arial;font-size:1.00001em}
		.st21 {fill:#000000;stroke:none;stroke-linecap:round;stroke-linejoin:round;stroke-width:0.75}
		.st22 {fill:none;stroke:none;stroke-linecap:round;stroke-linejoin:round;stroke-width:0.72}
		.st23 {fill:#4ba3d3;stroke:none;stroke-width:1}
		.st24 {fill:#ffffff;font-family:Arial;font-size:0.833336em}
		.st25 {fill:none;fill-rule:evenodd;font-size:12px;overflow:visible;stroke-linecap:square;stroke-miterlimit:3}
	
	</style>
<defs id="Markers">
<g id="lend4">
<path d="M 2 1 L 0 0 L 2 -1 L 2 1 " style="stroke:none"></path>
</g>
<marker class="st14" id="mrkr4-67" markerunits="strokeWidth" orient="auto" overflow="visible" refx="-7.04" v:arrowsize="2" v:arrowtype="4" v:setback="7.04">
<use transform="scale(-3.52,-3.52) " xlink:href="#lend4"></use>
</marker>
<marker class="st14" id="mrkr4-81" markerunits="strokeWidth" orient="auto" overflow="visible" refx="6.68" v:arrowsize="2" v:arrowtype="4" v:setback="6.68">
<use transform="scale(3.52) " xlink:href="#lend4"></use>
</marker>
</defs>
<g v:groupcontext="foregroundPage" v:index="1" v:mid="8">
<title>4:3 ratio</title>
<g id="shape24-1" transform="translate(28.0547,-40)" v:groupcontext="shape" v:mid="24">
<title>Serial Servos</title>
<desc>Serial Servos</desc>
<path class="st1" d="M0 600 L131.95 600 L131.95 370 L0 370 L0 600 Z"></path>
<text class="st2" v:langid="1033" x="36.24" y="592.7">Serial Servos</text> </g>
<g display="none" id="shape1-4" transform="translate(2.55795E-13,2.68221E-05)" v:groupcontext="shape" v:layermember="3" v:mid="1">
<title>Sheet.1</title>
<rect class="st3" height="675" width="9" x="0" y="-75"></rect>
</g>
<g display="none" id="shape2-6" transform="translate(891,2.68221E-05)" v:groupcontext="shape" v:layermember="3" v:mid="2">
<title>Sheet.2</title>
<rect class="st3" height="675" width="9" x="0" y="-75"></rect>
</g>
<g display="none" id="shape3-8" transform="translate(300,-66) rotate(-90)" v:groupcontext="shape" v:layermember="3" v:mid="3">
<title>Sheet.3</title>
<rect class="st3" height="900" width="9" x="0" y="-300"></rect>
</g>
<g display="none" id="shape4-10" transform="translate(300,600) rotate(-90)" v:groupcontext="shape" v:layermember="3" v:mid="4">
<title>Sheet.4</title>
<rect class="st3" height="900" width="9" x="0" y="-300"></rect>
</g>
<g id="shape5-12" transform="translate(833.7,-9.99998)" v:groupcontext="shape" v:mid="5">
<title>JP177</title>
<desc>JP177</desc>
<rect class="st4" height="20.0036" width="48.2996" x="0" y="579.996"></rect>
<text class="st2" v:langid="1033" x="15.94" y="593">JP177</text> </g>
<a data-link-id="#buck-boost" xlink:href="#buck-boost">
<g id="shape7-15" transform="translate(238.75,-516.25)" v:groupcontext="shape" v:mid="7">
<title>Buck-Boost</title>
<desc>Buck-Boost</desc>
<rect class="st5" height="33.75" width="101.25" x="0" y="566.25"></rect>
<text class="st6" v:langid="1033" x="22.5" y="586.43">Buck-Boost</text> </g>
</a>
<a data-link-id="#switching-regulator" xlink:href="#switching-regulator">
<g id="shape8-18" transform="translate(268.75,-436.25)" v:groupcontext="shape" v:mid="8">
<title>Switching Regulator</title>
<desc>Switching Regulator</desc>
<rect class="st5" height="33.75" width="101.25" x="0" y="566.25"></rect>
<text class="st6" v:langid="1033" x="27.09" y="579.82">Switching <tspan class="st7" dy="1.2em" x="26.78">Regulator</tspan></text> </g>
</a>
<a data-link-id="#ldo" xlink:href="#ldo">
<g id="shape9-22" transform="translate(460,-436.25)" v:groupcontext="shape" v:mid="9">
<title>LDO</title>
<desc>LDO</desc>
<rect class="st5" height="33.75" width="101.25" x="0" y="566.25"></rect>
<text class="st6" v:langid="1033" x="39.32" y="586.43">LDO</text> </g>
</a>
<a data-link-id="#voltage-supervisor" xlink:href="#voltage-supervisor">
<g id="shape10-25" transform="translate(258.75,-296.25)" v:groupcontext="shape" v:mid="10">
<title>Voltage Supervisor</title>
<desc>Voltage Supervisor</desc>
<rect class="st5" height="33.75" width="101.25" x="0" y="566.25"></rect>
<text class="st6" v:langid="1033" x="4.15" y="586.43">Voltage Supervisor</text> </g>
</a>
<a data-link-id="#rs485" xlink:href="#rs485">
<g id="shape11-28" transform="translate(218.75,-203.125)" v:groupcontext="shape" v:mid="11">
<title>RS485</title>
<desc>RS-485</desc>
<rect class="st5" height="33.75" width="101.25" x="0" y="566.25"></rect>
<text class="st6" v:langid="1033" x="31.98" y="586.43">RS-485</text> </g>
</a>
<g id="shape12-31" transform="translate(218.75,-140)" v:groupcontext="shape" v:mid="12">
<title>3 State Buffer</title>
<desc>3 State Buffer</desc>
<rect class="st8" height="33.75" width="101.25" x="0" y="566.25"></rect>
<text class="st9" v:langid="1033" x="16.99" y="586.43">3 State Buffer</text> </g>
<g id="shape13-34" transform="translate(219.375,-61.25)" v:groupcontext="shape" v:mid="13">
<title>IMU*</title>
<desc>IMU*</desc>
<rect class="st8" height="33.75" width="101.25" x="0" y="566.25"></rect>
<text class="st9" v:langid="1033" x="38.4" y="586.43">IMU*</text> </g>
<g id="shape23-37" transform="translate(588.75,-140)" v:groupcontext="shape" v:mid="23">
<title>* MII-PHY</title>
<desc>MII-PHY*</desc>
<rect class="st8" height="33.75" width="101.25" x="0" y="566.25"></rect>
<text class="st9" v:langid="1033" x="27.71" y="586.43">MII-PHY*</text> </g>
<g id="shape25-40" transform="translate(780.75,-40)" v:groupcontext="shape" v:mid="25">
<title>MPU Board</title>
<desc>MPU Board (Robot Brain)</desc>
<path class="st1" d="M0 600 L101.25 600 L101.25 60 L0 60 L0 600 Z"></path>
<text class="st9" v:langid="1033" x="22.2" y="326.7">MPU Board<tspan class="st7" dy="1.2em" x="17.92">(Robot Brain)</tspan></text> </g>
<g id="shape26-44" transform="translate(174.634,-40)" v:groupcontext="shape" v:mid="26">
<title> </title>
<path class="st10" d="M0 600 L585.37 600 L585.37 60 L0 60 L0 600 Z"></path>
</g>
<g id="shape27-46" transform="translate(94.4454,-530.52)" v:groupcontext="shape" v:mid="27">
<title>Input</title>
<ellipse class="st11" cx="2.77732" cy="597.223" rx="2.77732" ry="2.77732"></ellipse>
</g>
<g id="shape28-48" transform="translate(98,-534.996)" v:groupcontext="shape" v:mid="28">
<title>4.5V-40V</title>
<desc>4.5V-40V</desc>
<rect class="st4" height="20.0036" width="72" x="0" y="579.996"></rect>
<text class="st2" v:langid="1033" x="4" y="593">4.5V-40V</text> </g>
<g id="shape29-51" transform="translate(23,-523.295)" v:groupcontext="shape" v:mid="29">
<title>Battery</title>
<desc>Battery</desc>
<rect class="st4" height="20.0036" width="72" x="0" y="579.996"></rect>
<text class="st2" v:langid="1033" x="36.32" y="593">Battery</text> </g>
<g id="shape30-54" transform="translate(340,-534.996)" v:groupcontext="shape" v:mid="30">
<title>12Vmax 2.7A</title>
<desc>12V/2.7Amax</desc>
<rect class="st4" height="20.0036" width="72" x="0" y="579.996"></rect>
<text class="st2" v:langid="1033" x="9.29" y="593">12V/2.7A<tspan class="st12" dy="-0.287em" v:basefontsize="10">max</tspan></text> </g>
<g id="shape31-58" transform="translate(395,-454.996)" v:groupcontext="shape" v:mid="31">
<title>5V max 4.2A</title>
<desc>5V/4.2Amax</desc>
<rect class="st4" height="20.0036" width="72" x="0" y="579.996"></rect>
<text class="st2" v:langid="1033" x="12.07" y="593">5V/4.2A<tspan class="st12" dy="-0.287em" v:basefontsize="10">max</tspan></text> </g>
<g id="shape32-62" transform="translate(101.468,-533.468) rotate(0.14225)" v:groupcontext="shape" v:mid="32">
<title>Sheet.32</title>
<path class="st13" d="M0 600 L131.73 600"></path>
</g>
<g id="shape33-68" transform="translate(340,-533.125)" v:groupcontext="shape" v:mid="33">
<title>Sheet.33</title>
<path class="st13" d="M0 600 L433.71 600"></path>
</g>
<g id="shape34-73" transform="translate(810.012,66.8037) rotate(90)" v:groupcontext="shape" v:mid="34">
<title>Sheet.34</title>
<path class="st15" d="M0 600 L273.2 600"></path>
</g>
<g id="shape35-76" transform="translate(160,-260)" v:groupcontext="shape" v:mid="35">
<title>Sheet.35</title>
<path class="st16" d="M6.68 600 L7.04 600 L50.01 600"></path>
</g>
<g id="shape36-82" transform="translate(160,-220)" v:groupcontext="shape" v:mid="36">
<title>Sheet.36</title>
<path class="st17" d="M6.68 600 L7.04 600 L51.71 600"></path>
</g>
<g id="shape37-89" transform="translate(218.75,1043.13) rotate(180)" v:groupcontext="shape" v:mid="37">
<title>Sheet.37</title>
<path class="st17" d="M6.68 600 L7.04 600 L50.8 600"></path>
</g>
<g id="shape38-96" transform="translate(320,-156.875)" v:groupcontext="shape" v:mid="38">
<title>Sheet.38</title>
<path class="st17" d="M6.68 600 L7.04 600 L62.96 600"></path>
</g>
<g id="shape39-103" transform="translate(320,-220)" v:groupcontext="shape" v:mid="39">
<title>Sheet.39</title>
<path class="st16" d="M6.68 600 L7.04 600 L40 600"></path>
</g>
<g id="shape40-108" transform="translate(-240,443.125) rotate(-90)" v:groupcontext="shape" v:mid="40">
<title>Sheet.40</title>
<path class="st15" d="M0 600 L63.13 600"></path>
</g>
<g id="shape41-111" transform="translate(360,-313.125)" v:groupcontext="shape" v:mid="41">
<title>Sheet.41</title>
<path class="st13" d="M0 600 L22.96 600"></path>
</g>
<g id="shape42-116" transform="translate(1090.07,163.75) rotate(90)" v:groupcontext="shape" v:mid="42">
<title>Sheet.42</title>
<path class="st13" d="M0 600 L88.89 600"></path>
</g>
<g id="shape43-121" transform="translate(490,810) rotate(180)" v:groupcontext="shape" v:mid="43">
<title>Sheet.43</title>
<path class="st15" d="M0 600 L260 600"></path>
</g>
<g id="shape44-124" transform="translate(-370,363.125) rotate(-90)" v:groupcontext="shape" v:mid="44">
<title>Sheet.44</title>
<path class="st16" d="M6.68 600 L7.04 600 L153.12 600"></path>
</g>
<g id="shape45-129" transform="translate(370,-453.125)" v:groupcontext="shape" v:mid="45">
<title>Sheet.45</title>
<path class="st13" d="M0 600 L82.96 600"></path>
</g>
<g id="shape46-134" transform="translate(-201,146.875) rotate(-90)" v:groupcontext="shape" v:mid="46">
<title>Sheet.46</title>
<path class="st15" d="M0 600 L41.87 600"></path>
</g>
<g id="shape47-137" transform="translate(780.75,705) rotate(180)" v:groupcontext="shape" v:mid="47">
<title>Sheet.47</title>
<path class="st16" d="M6.68 600 L7.04 600 L381.75 600"></path>
</g>
<g id="shape48-142" transform="translate(90.625,244.125) rotate(-90)" v:groupcontext="shape" v:mid="48">
<title>Sheet.48</title>
<path class="st16" d="M6.68 600 L7.04 600 L18.73 600"></path>
</g>
<g id="shape49-147" transform="translate(490,-374.606)" v:groupcontext="shape" v:mid="49">
<title>Sheet.49</title>
<path class="st15" d="M0 600 L200.63 600"></path>
</g>
<g id="shape50-150" transform="translate(640,886.875) rotate(180)" v:groupcontext="shape" v:mid="50">
<title>Sheet.50</title>
<path class="st13" d="M0 600 L66.22 600"></path>
</g>
<g id="shape51-155" transform="translate(1210,225.875) rotate(90)" v:groupcontext="shape" v:mid="51">
<title>Sheet.51</title>
<path class="st13" d="M0 600 L193.33 600"></path>
</g>
<g id="shape52-160" transform="translate(640,925) rotate(180)" v:groupcontext="shape" v:mid="52">
<title>Sheet.52</title>
<path class="st15" d="M0 600 L10 600"></path>
</g>
<g id="shape53-163" transform="translate(30,426.25) rotate(-90)" v:groupcontext="shape" v:mid="53">
<title>Sheet.53</title>
<path class="st16" d="M6.68 600 L7.04 600 L101.25 600"></path>
</g>
<g id="shape54-168" transform="translate(588.75,1043.13) rotate(180)" v:groupcontext="shape" v:mid="54">
<title>Sheet.54</title>
<path class="st17" d="M6.68 600 L7.04 600 L14.97 600"></path>
</g>
<g id="shape55-175" transform="translate(690,-156.875)" v:groupcontext="shape" v:mid="55">
<title>Sheet.55</title>
<path class="st17" d="M6.68 600 L7.04 600 L83.71 600"></path>
</g>
<g id="shape56-182" transform="translate(566.737,-78.125)" v:groupcontext="shape" v:mid="56">
<title>Sheet.56</title>
<path class="st17" d="M6.68 600 L7.04 600 L206.97 600"></path>
</g>
<g id="shape57-189" transform="translate(390,1121.88) rotate(180)" v:groupcontext="shape" v:mid="57">
<title>Sheet.57</title>
<path class="st17" d="M6.68 600 L7.04 600 L62.34 600"></path>
</g>
<g id="group58-196" transform="translate(95,-218.837)" v:groupcontext="group" v:mid="58">
<title>Motor</title>
<g id="shape59-197" v:groupcontext="shape" v:mid="59">
<title>Sheet.59</title>
<ellipse class="st18" cx="13.8801" cy="586.337" rx="13.8801" ry="13.6633"></ellipse>
</g>
<g id="shape60-199" v:groupcontext="shape" v:mid="60">
<title>Sheet.60</title>
<desc>M</desc>
<rect class="st19" height="27.3265" width="27.7603" x="0" y="572.673"></rect>
<text class="st20" v:langid="1033" x="8.88" y="589.94">M</text> </g>
</g>
<g id="group61-202" transform="translate(41.1199,-167.17)" v:groupcontext="group" v:mid="61">
<title>Motor.61</title>
<g id="shape62-203" v:groupcontext="shape" v:mid="62">
<title>Sheet.62</title>
<ellipse class="st18" cx="13.8801" cy="586.337" rx="13.8801" ry="13.6633"></ellipse>
</g>
<g id="shape63-205" v:groupcontext="shape" v:mid="63">
<title>Sheet.63</title>
<desc>M</desc>
<rect class="st19" height="27.3265" width="27.7603" x="0" y="572.673"></rect>
<text class="st20" v:langid="1033" x="8.88" y="589.94">M</text> </g>
</g>
<g id="group64-208" transform="translate(95,-115.503)" v:groupcontext="group" v:mid="64">
<title>Motor.64</title>
<g id="shape65-209" v:groupcontext="shape" v:mid="65">
<title>Sheet.65</title>
<ellipse class="st18" cx="13.8801" cy="586.337" rx="13.8801" ry="13.6633"></ellipse>
</g>
<g id="shape66-211" v:groupcontext="shape" v:mid="66">
<title>Sheet.66</title>
<desc>M</desc>
<rect class="st19" height="27.3265" width="27.7603" x="0" y="572.673"></rect>
<text class="st20" v:langid="1033" x="8.88" y="589.94">M</text> </g>
</g>
<g id="group67-214" transform="translate(41.1199,-63.8367)" v:groupcontext="group" v:mid="67">
<title>Motor.67</title>
<g id="shape68-215" v:groupcontext="shape" v:mid="68">
<title>Sheet.68</title>
<ellipse class="st18" cx="13.8801" cy="586.337" rx="13.8801" ry="13.6633"></ellipse>
</g>
<g id="shape69-217" v:groupcontext="shape" v:mid="69">
<title>Sheet.69</title>
<desc>M</desc>
<rect class="st19" height="27.3265" width="27.7603" x="0" y="572.673"></rect>
<text class="st20" v:langid="1033" x="8.88" y="589.94">M</text> </g>
</g>
<g id="shape70-220" transform="translate(122.765,-232.664)" v:groupcontext="shape" v:mid="70">
<title>Sheet.70</title>
<path class="st17" d="M6.68 600 L7.04 600 L20.19 600"></path>
</g>
<g id="shape71-227" transform="translate(68.8853,-180.997)" v:groupcontext="shape" v:mid="71">
<title>Sheet.71</title>
<path class="st17" d="M6.68 600 L7.04 600 L74.07 600"></path>
</g>
<g id="shape72-234" transform="translate(122.765,-129.331)" v:groupcontext="shape" v:mid="72">
<title>Sheet.72</title>
<path class="st17" d="M6.68 600 L7.04 600 L20.19 600"></path>
</g>
<g id="shape73-241" transform="translate(68.8853,-77.6641)" v:groupcontext="shape" v:mid="73">
<title>Sheet.73</title>
<path class="st17" d="M6.68 600 L7.04 600 L74.07 600"></path>
</g>
<g id="shape74-248" transform="translate(750,360) rotate(90)" v:groupcontext="shape" v:mid="74">
<title>Sheet.74</title>
<path class="st15" d="M0 600 L170 600"></path>
</g>
<g id="shape75-251" transform="translate(-245,130) rotate(-90)" v:groupcontext="shape" v:mid="75">
<title>Sheet.75</title>
<path class="st16" d="M6.68 600 L7.04 600 L63.13 600"></path>
</g>
<g id="shape76-256" transform="translate(207.463,-530.525)" v:groupcontext="shape" v:mid="76">
<title>Connector 1.168</title>
<ellipse class="st21" cx="2.77275" cy="597.227" rx="2.77275" ry="2.77275"></ellipse>
</g>
<g id="shape77-258" transform="translate(352.227,-530.352)" v:groupcontext="shape" v:mid="77">
<title>Connector 1.168.77</title>
<ellipse class="st21" cx="2.77275" cy="597.227" rx="2.77275" ry="2.77275"></ellipse>
</g>
<g id="shape78-260" transform="translate(396.227,-450.352)" v:groupcontext="shape" v:mid="78">
<title>Connector 1.168.78</title>
<ellipse class="st21" cx="2.77275" cy="597.227" rx="2.77275" ry="2.77275"></ellipse>
</g>
<g id="shape79-262" transform="translate(-290.625,270) rotate(-90)" v:groupcontext="shape" v:mid="79">
<title>Sheet.79</title>
<path class="st16" d="M6.68 600 L7.04 600 L60 600"></path>
</g>
<g id="shape80-267" transform="translate(306.647,-387.227)" v:groupcontext="shape" v:mid="80">
<title>Connector 1.168.80</title>
<ellipse class="st21" cx="2.77275" cy="597.227" rx="2.77275" ry="2.77275"></ellipse>
</g>
<g id="shape81-269" transform="translate(229.516,-236.996)" v:groupcontext="shape" v:mid="81">
<title>3.3V/20mA</title>
<desc>3.3V/20mA</desc>
<rect class="st22" height="20.0036" width="72" x="0" y="579.996"></rect>
<text class="st2" v:langid="1033" x="11.26" y="593">3.3V/20mA</text> </g>
<g id="shape82-272" transform="translate(357.242,-154.102)" v:groupcontext="shape" v:mid="82">
<title>Connector 1.168.82</title>
<ellipse class="st21" cx="2.77275" cy="597.227" rx="2.77275" ry="2.77275"></ellipse>
</g>
<g id="shape83-274" transform="translate(220.281,-39.9982)" v:groupcontext="shape" v:mid="83">
<title>* Inertial Measurement Unit</title>
<desc>* Inertial Measurement Unit</desc>
<rect class="st22" height="20.0036" width="131.945" x="0" y="579.996"></rect>
<text class="st2" v:langid="1033" x="5.39" y="593">* Inertial Measurement Unit</text> </g>
<g id="shape84-277" transform="translate(487.3,-387.227)" v:groupcontext="shape" v:mid="84">
<title>Connector 1.168.84</title>
<ellipse class="st21" cx="2.77275" cy="597.227" rx="2.77275" ry="2.77275"></ellipse>
</g>
<g id="shape85-279" transform="translate(487.3,-371.834)" v:groupcontext="shape" v:mid="85">
<title>Connector 1.168.85</title>
<ellipse class="st21" cx="2.77275" cy="597.227" rx="2.77275" ry="2.77275"></ellipse>
</g>
<g id="shape86-281" transform="translate(490.281,-415)" v:groupcontext="shape" v:mid="86">
<title>3.3V/250mA</title>
<desc>3.3V/250mA</desc>
<rect class="st22" height="20.0036" width="72" x="0" y="579.996"></rect>
<text class="st2" v:langid="1033" x="8.48" y="593">3.3V/250mA</text> </g>
<g id="shape87-284" transform="translate(607.227,-371.834)" v:groupcontext="shape" v:mid="87">
<title>Connector 1.168.87</title>
<ellipse class="st21" cx="2.77275" cy="597.227" rx="2.77275" ry="2.77275"></ellipse>
</g>
<g id="shape88-286" transform="translate(620.281,-373.998)" v:groupcontext="shape" v:mid="88">
<title>3.3V/10mA</title>
<desc>3.3V/10mA</desc>
<rect class="st22" height="20.0036" width="72" x="0" y="579.996"></rect>
<text class="st2" v:langid="1033" x="11.26" y="593">3.3V/10mA</text> </g>
<g id="shape89-289" transform="translate(590,-120)" v:groupcontext="shape" v:mid="89">
<title>*Media-Independent Interface</title>
<desc>*Media-Independent Interface</desc>
<rect class="st22" height="20.0036" width="142.541" x="0" y="579.996"></rect>
<text class="st2" v:langid="1033" x="5.39" y="593">*Media-Independent Interface</text> </g>
<g id="shape90-292" transform="translate(680.282,-533.996)" v:groupcontext="shape" v:mid="90">
<title>12V/max1A</title>
<desc>12V/1Amax</desc>
<rect class="st22" height="20.0036" width="72" x="0" y="579.996"></rect>
<text class="st2" v:langid="1033" x="13.46" y="593">12V/1A<tspan class="st12" dy="-0.287em" v:basefontsize="10">max</tspan></text> </g>
<g id="shape91-296" transform="translate(688,-495)" v:groupcontext="shape" v:mid="91">
<title>5V/max4A</title>
<desc>5V/4Amax</desc>
<rect class="st22" height="20.0036" width="72" x="0" y="579.996"></rect>
<text class="st2" v:langid="1033" x="16.24" y="593">5V/4A<tspan class="st12" dy="-0.287em" v:basefontsize="10">max</tspan></text> </g>
<g id="shape93-300" transform="translate(421,-349.996)" v:groupcontext="shape" v:mid="93">
<title>3.3V/100mA</title>
<desc>3.3V/100mA</desc>
<rect class="st22" height="20.0036" width="72" x="0" y="579.996"></rect>
<text class="st2" v:langid="1033" x="8.48" y="593">3.3V/100mA</text> </g>
<g id="shape94-303" transform="translate(565.282,-315)" v:groupcontext="shape" v:mid="94">
<title>24MHz</title>
<desc>24MHz</desc>
<rect class="st22" height="20.0036" width="72" x="0" y="579.996"></rect>
<text class="st2" v:langid="1033" x="4" y="593">24MHz</text> </g>
<g id="shape95-306" transform="translate(630,-218.996)" v:groupcontext="shape" v:mid="95">
<title>25MHz</title>
<desc>25MHz</desc>
<rect class="st22" height="20.0036" width="72" x="0" y="579.996"></rect>
<text class="st2" v:langid="1033" x="4" y="593">25MHz</text> </g>
<g id="shape96-309" transform="translate(570,-180)" v:groupcontext="shape" v:mid="96">
<title>3.3V/50mA</title>
<desc>3.3V /50mA</desc>
<rect class="st22" height="33.0037" width="40" x="0" y="566.996"></rect>
<text class="st2" v:langid="1033" x="4" y="580">3.3V<tspan class="st7" dy="1.3em" x="4">/50mA</tspan></text> </g>
<a data-link-id="#mcu" xlink:href="#mcu">
<g id="group97-313" transform="translate(390,-60)" v:groupcontext="group" v:mid="97">
<title>Sheet.97</title>
<g id="shape22-314" v:groupcontext="shape" v:mid="22">
<title>MCU</title>
<desc>MCU</desc>
<rect class="st5" height="280.324" width="176.737" x="0" y="319.676"></rect>
<text class="st6" v:langid="1033" x="75.84" y="465.14">MCU</text> </g>
<g id="shape14-317" transform="translate(8.79604,-241.801)" v:groupcontext="shape" v:mid="14">
<title>Reset</title>
<desc>Reset</desc>
<rect class="st23" height="22.648" width="61.204" x="0" y="577.352"></rect>
<text class="st24" v:langid="1033" x="17.54" y="591.68">Reset</text> </g>
<g id="shape15-320" transform="translate(10,-85.551)" v:groupcontext="shape" v:mid="15">
<title>UART</title>
<desc>UART</desc>
<rect class="st23" height="22.648" width="61.204" x="0" y="577.352"></rect>
<text class="st24" v:langid="1033" x="16.99" y="591.68">UART</text> </g>
<g id="shape16-323" transform="translate(8.79604,-6.80098)" v:groupcontext="shape" v:mid="16">
<title>SPI</title>
<desc>SPI</desc>
<rect class="st23" height="22.648" width="61.204" x="0" y="577.352"></rect>
<text class="st24" v:langid="1033" x="22.54" y="591.68">SPI</text> </g>
<g id="shape17-326" transform="translate(109.421,-241.801)" v:groupcontext="shape" v:mid="17">
<title>Clock Gen.</title>
<desc>Clock Gen.</desc>
<rect class="st23" height="22.648" width="61.204" x="0" y="577.352"></rect>
<text class="st24" v:langid="1033" x="5.87" y="591.68">Clock Gen.</text> </g>
<g id="shape18-329" transform="translate(109.375,-85.551)" v:groupcontext="shape" v:mid="18">
<title>Ethernet</title>
<desc>Ethernet</desc>
<rect class="st23" height="22.648" width="61.204" x="0" y="577.352"></rect>
<text class="st24" v:langid="1033" x="11.7" y="591.68">Ethernet</text> </g>
<g id="shape19-332" transform="translate(109.375,-6.80098)" v:groupcontext="shape" v:mid="19">
<title>USB</title>
<desc>USB</desc>
<rect class="st23" height="22.648" width="61.204" x="0" y="577.352"></rect>
<text class="st24" v:langid="1033" x="20.32" y="591.68">USB</text> </g>
</g>
</a>
<a data-link-id="#clock-generator" xlink:href="#clock-generator">
<g id="group98-335" transform="translate(640,-239.213)" v:groupcontext="group" v:mid="98">
<title>Sheet.98</title>
<g id="shape20-336" v:groupcontext="shape" v:mid="20">
<title>Clock Generator</title>
<desc>Clock Generator</desc>
<rect class="st5" height="116.574" width="101.25" x="0" y="483.426"></rect>
<text class="st6" v:langid="1033" x="10.58" y="501.33">Clock Generator</text> </g>
<g id="shape21-339" transform="translate(35,-5.78704)" v:groupcontext="shape" v:mid="21">
<title>X’tal</title>
<desc>X’tal</desc>
<rect class="st23" height="22.648" width="61.204" x="0" y="577.352"></rect>
<text class="st24" v:langid="1033" x="20.88" y="591.68">X’tal</text> </g>
</g>
</a>
</g>
</svg>